<?xml version="1.0" encoding="UTF-8"?>
<svg id="Livello_1" xmlns="http://www.w3.org/2000/svg" version="1.1" viewBox="0 0 2048 2048">
  <!-- Generator: Adobe Illustrator 30.0.0, SVG Export Plug-In . SVG Version: 2.1.1 Build 123)  -->
  <defs>
    <style>
      .st0, .st1, .st2 {
        fill: none;
      }

      .st0, .st2 {
        stroke: #fff;
        stroke-width: .75px;
      }

      .st3 {
        fill: #fcfdfc;
      }

      .st4 {
        fill: #2f2d25;
      }

      .st5 {
        fill: #2f559a;
      }

      .st6 {
        fill: #fff;
      }

      .st7 {
        fill: #fcfc4f;
      }

      .st1 {
        stroke: #fcfc4f;
        stroke-width: .79px;
      }

      .st2 {
        stroke-dasharray: 2.01 2.01;
      }

      .st8 {
        fill: #80817b;
      }

      .st9 {
        fill-rule: evenodd;
      }

      .st10 {
        fill: #cbba8d;
      }

      .st11 {
        fill: #e6c6a4;
      }
    </style>
  </defs>
  <g>
    <g>
      <path class="st11" d="M917.66,646.32c-11.58-16.16-18.68-30.52-24.68-49.8-8.29-26.64-12.17-54.72-7.97-82.52,13.86,18.64,31.42,29.54,55.27,21.78,22.66-7.38,44.31-21.88,68.51-28.49,58.63-16.03,120.97-5.35,171.06,28.37,1.26,27.43-7.21,55.8-17.83,80.86-15.75,37.18-42.75,67.83-77.1,88.9-5.76,3.53-12.38,6.18-18.21,9.79-13.14,8.15-23.05,19.31-33.37,30.69-1.55.42-1.81-.05-2.82-.93-2.78-2.41-6.18-9.61-9.01-12.99-14.98-17.85-34.26-22.79-52.82-35.18-20.92-13.95-36.54-30.27-51.03-50.49Z"/>
      <g>
        <path class="st11" d="M627.99,818c19.32,48.92,44.77,95.65,78.01,136.5-9.54,3.53-11.93,10.32-7.42,19.42,20.7,23.64,42.56,46.55,60.82,72.18,10.22,14.35,21.04,29.65,19.48,48.26-1.07,12.78-7.35,44.1-12.38,55.62-14.49,33.16-70.72,31.34-75.41-7.57-1.14-9.49,4.55-21.46,2.44-29.45-1.28-4.84-9.53-11.35-13.62-14.38-54.06-40.07-174.52-93.08-145.39-179.57,10.2-30.27,50.85-69.18,76.01-88.99,2.19-1.73,16.29-12.88,17.46-12.03Z"/>
        <path class="st11" d="M1493.65,1010.65c-32.46,32.02-72.63,51.53-107.56,78.94-4.55,3.57-13.4,10.05-14.11,15.89-1.4,11.58,4.15,20.4.73,33.73-8.94,34.77-63.17,32.8-73.64.23-3.63-11.3-10.63-39.6-11.98-51.02-3-25.23,21.72-54.31,36.52-73.32,13.52-17.35,28.26-33.73,42.6-50.4,3.17-5.96,3.28-14.72-3.76-17.68l-.34-1.36c31.03-42.31,56.59-87.98,73.92-137.66,1.99-1.49,35.94,26.85,39.46,30.02,60,54.12,82.67,109.01,18.18,172.62Z"/>
      </g>
    </g>
    <path class="st8" d="M897,1654.01c-3.34,8.62-6.57,18.72-10.49,27-17.15,36.19-44.9,27.25-79.05,27.95-60.8,1.26-121.96,1.21-182.96,1.05-23.98-4.13-24.33-22.09-18.76-41.77s15.08-39.32,20.88-59.3l270.38,45.07Z"/>
    <path class="st8" d="M1170,1654.01l268.47-49.05,3.04,3.03c5.49,19.06,15.27,38.59,20.52,57.48s-1.17,34.45-21.53,38.54c-45.99-.7-92.1,1.65-137.96,2.05-26.73.23-62.32,2.49-88.04-.06-5.87-.58-13.82-4.05-18.81-7.19-14.25-8.95-18.57-30.33-25.7-44.79Z"/>
    <path class="st3" d="M782.99,1076c-1.44-.12-1.57-1.47-2.02-2.47-12.95-28.05-29.24-47.58-48.99-71.01-5.15-6.11-30.34-30.94-29.72-36.89.58-5.52,14.06-8.62,18.75-10.14,14-4.51,43.07-14.12,56.62-15.38,19.13-1.78,22.1,9.86,21.37,26.37-.95,21.38-5.74,49.32-9.13,70.87-2.03,12.9-5.07,25.7-6.87,38.64Z"/>
    <path class="st3" d="M1284.99,1066.99c-1.66-.88-2.09-5.14-2.5-6.98-5.98-26.62-10.88-60.3-13.47-87.52-.88-9.19-2.91-22.78,2.15-30.82,3.36-5.33,11.94-8.81,18.17-8.58,13.84.52,50.81,11.27,64.62,16.46,5.72,2.15,11.52,3.67,7.9,10.82-3.38,6.67-19.91,22.9-25.83,30.16-9.24,11.32-18.77,22.81-27.44,34.56-9.05,12.26-21.16,26.88-23.59,41.91Z"/>
    <g>
      <path class="st4" d="M1205.68,538.68c-4.22,4.61-14.35,1.82-19.67.32-.42,35.93-13.1,69.94-28.81,101.7,5.83,8.28,12.52,15.91,18.8,23.85.72.92.76,2.46,1.34,3.11,4.29,4.9,19.81,7.93,26.21,10.3,58.41,21.64,112.52,46.14,166.14,77.86,51.15,30.27,154.42,98.09,166.86,159.14,16.6,81.44-78.95,131.55-133.85,170.22-5.05,3.56-23.65,16.14-24.67,21.34-.86,4.38,1.8,11.9,2.03,16.92,1.78,38.5-33.5,58.23-66.93,40.94-1.54-.8-9.45-7.07-10.11-6.38,12.7,43.96,25.2,88.04,38.73,131.76,34.98,113.05,74.98,224.47,112.25,336.75,9.06,27.29,33.12,66.7-6.16,81.8-61.46,3.77-123.62,2.13-185.36,2.64-32.33.27-67.26,9.23-85.64-25.28-37.39-82.53-70.72-167.09-108.65-249.35-7.34-15.91-17.96-45.84-40.88-37.53-8.39,3.04-13.97,10.32-18.15,17.85-42.27,87.03-75.23,178.84-116.97,266.03-9.33,19.5-20.33,29.42-42.64,32.36l-224.07,1c-18.23-2.13-29.77-15.04-29.26-33.54,51.56-163.19,111.95-323.81,159.29-488.5,2.75-9.58,5.42-19.24,7.49-29-11.92,11.62-25.67,15.61-42.21,13.72-22.74-2.6-37.9-23.83-35.77-46.21.89-9.36,6.82-15.04-1.47-23.54-9.15-9.38-28.44-18.54-39.85-26.15-62.66-41.77-160.8-103.32-101.91-190.54,19.92-29.5,49.23-55.11,77.32-76.68,80.68-61.91,172.83-107.91,267.9-143.1l20-29.07c-6.69-14.85-14.78-29.46-19.71-45.22-15.86-50.69-9.71-122.58,7.93-172.49,27.73-78.46,131.22-93.74,201.54-69.99,44.83,15.14,63.41,39.33,75.95,84.05,5.8,20.69,4.47,41.29,17.31,58.69,8.11,10.99,20.15,19.4,17.91,34.96-.2,1.4-1.32,4.23-2.25,5.25ZM1117.42,380.58c-31.51-38.33-118.77-37.93-157.09-12.25-16.09,10.79-24.01,33.71-27.84,51.65-3.99,18.69-6.25,37.9-6.48,57.01,17.93-8.48,37.06-16.27,56.56-20.93,41.24-9.86,83.08-12.02,124.47-1.62,10.74,2.7,23.43,8.94,33.71,11.33,1.04.24,2.09.51,3.14.13,1.54-1.07.26-10.88-.02-13.28-2.52-21.6-12.66-55.25-26.46-72.04ZM947.99,372c-15.56,4.97-27.83,18.53-36.42,32.07-12.21,19.26-17.11,40.5-21.27,62.73-.89,4.78-5.91,32-4.3,34.19l34.5-21.99c1.56-13.4,1.88-27.01,3.62-40.38,2.87-21.99,8-42.88,20.87-60.85,1.24-1.73,4.12-1.66,3-5.77ZM1128.67,377.35c-.96-.5-8.7-3.9-7.68-.84,3.17,5.72,7.17,11.01,10.2,16.81,5.7,10.93,9.76,23.44,12.53,35.47,2.29,9.93,3.78,32.03,7.52,39.48.9,1.78,2.78,3.48,4.44,4.56,3.27,2.15,12.84,5.17,15.09,7.46.88.9.1,4.61,5.24,3.69l-1.93-21.45-3.14-1.08c-.06-1.91.43-4.07.02-5.91-5.45-24.49-18.31-65.58-42.28-78.2ZM1195.39,513.63c-33.72-54.1-125.23-66.82-183.77-58.51-29.78,4.23-69.4,16.41-95.31,31.69-3.61,2.13-17.29,10.87-17.32,14.71,20.56,32.35,47.24,10.11,72.76-.27,69.19-28.14,125.57-28.72,193.14,4.36,7.32,3.58,28.09,17.06,34.59,17.43,4.55.25-3.46-8.39-4.1-9.41ZM1199.91,535.92c.68-2.11,2.25-5.65.09-7.43-17.86-6.96-33.53-18.58-51.28-25.71-77.33-31.03-123.21-19.28-196.04,12.39-16.7,7.26-35.76,13.27-50.34-1.52-2.52-2.55-5.21-7.47-7.52-10.47-9.3-.65-6.8,5.18-3.26,10.75,24.55,38.61,68.91,4.64,98.26-6.62,54.83-21.04,117.58-15.95,169.54,9.82,7.89,3.91,25.18,15.89,31.38,17.8.86.27,8.79,1.24,9.17.98ZM917.66,646.32c14.49,20.22,30.11,36.54,51.03,50.49,18.57,12.39,37.85,17.33,52.82,35.18,2.83,3.38,6.23,10.57,9.01,12.99,1.01.88,1.27,1.35,2.82.93,10.32-11.39,20.22-22.55,33.37-30.69,5.83-3.61,12.45-6.26,18.21-9.79,34.34-21.08,61.35-51.73,77.1-88.9,10.61-25.06,19.09-53.43,17.83-80.86-50.09-33.73-112.42-44.4-171.06-28.37-24.2,6.62-45.84,21.11-68.51,28.49-23.84,7.76-41.41-3.14-55.27-21.78-4.2,27.8-.32,55.88,7.97,82.52,6,19.28,13.1,33.65,24.68,49.8ZM1126.58,773.58c13.86-13.95,28.66-39.84,36.59-57.9,3.3-7.51,14.01-34.2,12.66-40.93-1.24-6.16-18.47-22.25-22.34-28.72-15.76,22.51-34.31,43.3-57.19,58.79-9.09,6.16-19.57,10.36-28.26,16.8l48.37,56.43c3.85,2.91,7.6-1.88,10.16-4.47ZM935.42,676.58c-5.47-5.54-10.82-11.67-15.93-17.57-1.78-2.05-5.69-9.1-8-9.08-1.43-.14-1.67,1.05-2.35,1.71-2.71,2.66-11.38,15.15-13.97,19.02-5.83,8.72-4.32,10.78-1.88,20.55,6.18,24.78,22.61,51.69,38.3,71.7,2.84,3.62,12.91,17.27,16.97,17.11l53.43-59.01c-25.18-11.26-47.17-24.76-66.57-44.44ZM1048,977h54.5c1.21,0,5.25,3.48,4.55,5.45l-.54,85.56-8.96,4.04c-39.72-2.72-83.9,3.45-123.09,0-5.47-.48-11.12-2.29-11.48-8.52,2.33-24.75-3.02-54.99-.02-79.06.53-4.28,4.43-7.46,8.54-7.46h50l1.5-1.5v-23c0-.47-4.06-6.27-4.86-8.14-15.58-36.45-32.09-74.24-43.86-112.14-5.31-17.11-8.27-35.13-13.79-52.2-3.11-3.94-6.62,4.53-10.05,5.02-3.86.55-10.83-4.86-13.43-7.54-22.56-23.2-39.05-56.17-49.31-86.69-3.18-9.47.53-11.91-12.67-8.28-15.73,4.32-38.07,15.56-53.82,22.19-49.54,20.85-100.13,47.87-144.56,77.93-3.67,2.48-13.47,6.15-13.73,10.85-.14,2.39,1.78,7.91,2.63,10.47,13.54,40.71,39.74,87.67,65.47,121.53,2.25,2.96,13.28,17.26,16.06,17.05,13.27-2.85,38.28-11.83,49.84-2.95,14.14,10.87,4.96,42.01,3.1,56.93-6.09,48.85-13.1,97.78-24.28,145.72-2.56,10.98-5.94,21.85-8.74,32.76,19.33,4.78,39.93,8.16,59.8,8.79,4.47-13.28,15.25-22.04,29.72-21.86,23.16.29,46.64,5.21,69.9,5.16,16.54,2.56,19.32,11.71,21.82,26.67.73.86,3.06,1.13,4.25,1.24,11.95,1.13,36.49,1.91,47.95-.06,3.69-.63,8.15-3.46,13.07-3.93,9.57-.93,42.34-1.64,50.77.21,3.08.68,5.25,3.32,9.2,3.8,11.13,1.36,38.85-.91,51.01-2.04,1.46-.14,6.74-.92,7.53-1.47,1.44-.98,1.48-6.24,5.03-7.97,3.34-1.63,13.47-2.21,17-1.1s3.59,5.02,6.44,5.56c6.15,1.16,14.48-.84,20.76-1.26l16.75-5.24c-9.18-8.45-36.47-8.72-40.89-22.11-2.48-7.5-6.35-30.42-4.88-37.67,2.16-10.6,17.57-11.67,26.28-12.72,25.36-3.06,78.22-3.65,95.5,18.48.89,1.13,4.45,6.27,5.02,7.23,2.85,4.84,3.94,17.68,2.2,23.01s-7.93,9.07-10.23,14.25c1.7,2.12,24.07-2.35,27.85-4.13,2.49-3.9-9.65-44.28-11.37-51.85-10.3-45.4-19.74-99.26-24.47-145.53-1.75-17.08-2.27-35.63,17.94-41.03,12.66-3.38,20.4,1.68,31.83,4.26,2.54.57,5.28.27,7.79,1.2,1.83-.1,5.94-4.79,7.39-6.45,25.28-28.78,55.31-87.6,68.07-123.93,1.4-3.98,6.78-19.39,4.66-22.24-.89-1.2-8.55-6.91-10.36-8.15-21.42-14.66-47.67-27.14-70.75-39.29-27.5-14.47-59.38-33.05-90.52-40.3-1.07-.25-2.03.43-3.06.43l-.06-2.9c-4.65.57-6.13-2.78-10.91-3.65-4.05-.74-5.82,1.73-9.25-3.72l-24.73-7.69c-2.52,6.13-3.3,12.9-5.34,19.17-8.45,25.95-22.83,55.55-41.2,75.8-4.51,4.98-13.21,14.79-20.5,11.47-1.74-.8-2.39-3.9-5-3.47-8.33,30.48-16.24,60.99-26.56,90.95-5.34,15.5-10.94,31.63-17.26,46.74s-18.17,31.99-18.23,47.85c-.01,3.58,1.87,7.54,1.04,11.45ZM1051,851v-79.5c0-2.76,3.99-14.54,5.46-17.54,2.45-5.01,13.93-16.7,14.44-18.66.65-2.51-5.55-9.47-8.4-10.33-2.9,0-29.47,29.6-32.92,34.12-14.01,18.29-9.06,21.94-9.49,42.42-.05,2.37-1.09,4.57-1.13,6.96-.2,14.17.24,28.38.04,42.54h32ZM1056,773.5v81c-3.63,3.44-9.36,1.24-13.49,1.4-1.83.07-3.57.95-5.13.96-6.58.05-13.21-1.45-19.87-.86l-2.5-1.5v-81c0-4.02,11.21-16.65,12.51-20.57s-4.07-9.93-6.55-13.16c-2.88-3.75-8.7-10.08-12.56-12.2-.38-.21-.44-1.53-1.05-1.61-5.3-.71-10.51,9.17-13.45,12.4-2.78,3.05-16.38,16.59-16.88,19.16-.36,1.85-.19,4.96.06,6.9,1.81,14.38,9.12,37.05,13.38,51.61,5.96,20.38,13.21,41.37,20.78,61.22s15.73,38.09,24.25,56.73c26.11-53.94,42.52-112.95,56.41-171.6,3.32-4.75-14.41-23.38-16.24-23.23-1.72.14-12.36,11.98-13.7,14.33-2.21,3.84-2.89,8.28-4.74,12.26l-1.23,7.77ZM1098.94,763.05l-2.82.06c-4.82,14.85-6.67,30.74-10.6,45.9-7.17,27.67-17.58,58.48-27.75,85.25-7.15,18.83-16.17,37.16-22.7,56.11l1.59,1.47c2.38.34,8.01.64,9.41-1.53,6.53-16.54,14.02-32.73,20.42-49.33,12.51-32.49,31.24-83.04,36.27-116.73.38-2.55,1.35-7.43,1.21-9.63-.31-4.79-4.4-7.19-5.03-11.57ZM972.99,765c-1.84-1.61-7.82,4.28-8.48,6.06-1.21,3.28,3.38,19.71,4.55,24.38,9.14,36.61,22.16,71.02,36.12,105.88,6.82,17.03,12.91,34.37,21.31,50.68,2.4-.61,4.34-5.88,4.85-8.23,1.33-6.17-5.39-20.84-8.16-27.45-17.45-41.63-31.11-77.56-42.63-121.37-2.61-9.94-5.97-19.74-7.57-29.94ZM1430.79,802.2l-23.77-15.2c-18.07,53.66-44.06,104.69-78.02,149.99l26.98,6.56c26.05-34.4,48.6-71.9,65.19-111.87,2.52-6.08,8.37-18.75,9.58-24.42.3-1.4.72-3.88.03-5.06ZM657.99,796c-1.15-.21-1.93.04-2.96.52-2.02.93-16.49,11.62-18.49,13.52-1.6,1.52-3.84,2.81-3.55,5.37,15.9,40.73,36.68,81.39,62.2,116.91,2.31,3.21,12.19,17.38,14.24,18.76,1.49,1,2.2,1.01,3.92.89,1.95-.13,22.58-5.76,23.64-6.47s1.44-1.42.53-2.5c-33.8-44.55-61.37-94.03-79.53-146.99ZM1493.65,1010.65c64.49-63.61,41.82-118.5-18.18-172.62-3.52-3.17-37.47-31.51-39.46-30.02-17.33,49.68-42.89,95.34-73.92,137.66l.34,1.36c7.04,2.96,6.93,11.73,3.76,17.68-14.33,16.67-29.08,33.05-42.6,50.4-14.8,19-39.52,48.09-36.52,73.32,1.36,11.41,8.35,39.72,11.98,51.02,10.47,32.57,64.71,34.54,73.64-.23,3.43-13.33-2.12-22.15-.73-33.73.7-5.84,9.55-12.32,14.11-15.89,34.93-27.41,75.1-46.92,107.56-78.94ZM627.99,818c-1.16-.85-15.27,10.3-17.46,12.03-25.15,19.81-65.81,58.72-76.01,88.99-29.13,86.49,91.33,139.51,145.39,179.57,4.08,3.03,12.34,9.53,13.62,14.38,2.11,8-3.58,19.97-2.44,29.45,4.69,38.91,60.92,40.73,75.41,7.57,5.03-11.52,11.31-42.84,12.38-55.62,1.56-18.61-9.26-33.91-19.48-48.26-18.26-25.63-40.12-48.54-60.82-72.18-4.51-9.1-2.12-15.89,7.42-19.42-33.24-40.86-58.69-87.58-78.01-136.5ZM1284.99,1066.99c2.43-15.03,14.54-29.66,23.59-41.91,8.67-11.75,18.2-23.23,27.44-34.56,5.92-7.26,22.45-23.49,25.83-30.16,3.62-7.15-2.17-8.67-7.9-10.82-13.82-5.19-50.78-15.94-64.62-16.46-6.23-.23-14.81,3.25-18.17,8.58-5.06,8.04-3.03,21.63-2.15,30.82,2.6,27.22,7.49,60.91,13.47,87.52.41,1.84.84,6.1,2.5,6.98ZM782.99,1076c1.8-12.94,4.84-25.73,6.87-38.64,3.39-21.55,8.18-49.49,9.13-70.87.73-16.51-2.24-28.15-21.37-26.37-13.55,1.26-42.62,10.87-56.62,15.38-4.69,1.51-18.18,4.62-18.75,10.14-.62,5.94,24.58,30.78,29.72,36.89,19.75,23.43,36.04,42.96,48.99,71.01.46.99.58,2.35,2.02,2.47ZM1027,988h14.5c1.43-.88,1.38-1.99,1.55-3.45.34-2.91.27-25.52-.49-26.61-4.08-1.36-11.88-2.08-15.56.56v29.5ZM969.5,1002h132.5c.59-8.94,5.39-19.31-6.59-20.91-6.52-.87-16.23.13-23.09.28-7.47.16-15.36,1.81-22.75-.25-3.49.83.81,10.19-4.28,11.68-2.11.62-18.57.54-20.3-.29-4.16-2.01-1.46-7.94-2.01-11.5l-1.54,2.07c-4.62-3.13-7.69-1-11.91-1.03-13.33-.1-26.63-.53-39.93-.09-1.49.46-3.05,19.14-.11,20.05ZM1103,1063.5v-55l-1.5-1.5h-133.5v56.5c0,.39,1.16,2.25,1.68,2.57l130.3.41c.49-.22,2.94-2.71,3.02-2.98ZM1261.98,1219.98c3.51-13.02-7.52-35.08-.43-45.93,6.95-10.64,17.62-11.51,15.37-28.46-5.11-38.48-77.83-35.05-105.28-30.45-3.12.52-10.93,1.81-12.71,4.29-2.91,4.03.41,30.11,2.34,35.82,2.6,7.69,10.52,9.81,17.49,12.51,10.64,4.12,16.64,5.92,27.74,6.16,17.76.39,20.13,17.15,18.5,31.59-1.01,8.95-7.07,7.51-7.9,10.17l.91,8.32,43.97-4.01ZM830.01,1222c1.61,15.83-5.77,45.12,2.78,58.71,4.72,7.51,24.17,9.28,32.72,10.28,12.91,1.51,50.36,4.51,60.89-.09,6.74-2.94,10.48-10.58,11.49-17.51,3.2-22,7.25-60.3,3.85-81.63-.59-3.7-3.52-16.06-6.35-17.65-5.36-3.02-27.38-2.52-34.88-3.12-15.58-1.25-36.91-4.86-52.04-3.01-17.1,2.09-20.16,27.01-18.5,40.55,2.06,16.81,24.71,22.52,38.65,24.35,12.8,1.68,38.72.47,47.93-9.83,9.77-10.94-.78-41.96,20.45-42.05l-.13,4.87c-10.87.33-8.55,14.93-10.17,23.34-2.16,11.22-4.21,17.87-15.03,22.97-21.81,10.28-64.51,8.78-81.67-10.18ZM1273.69,1183.26c1.78,4,1.13,17.47,2.76,22.8.49,1.61,7.27,7.92,8.58,8.47,2.65,1.11,22.07-4.26,26.56-4.46.91-1.3.21-2.77,0-4.11-1.51-9.61-7.81-21.52-9.53-31.55-3.72.74-8.04-.52-11.55.55-1.86.57-1.51,1.84-2.22,1.99-2.6.57-15.45,1.22-16.18,2.14-2.04,2.57,1.49,3.93,1.59,4.17ZM1266.99,1178c-3.39-.69-3.13,5.32-3.06,7.52.19,6.69,2.34,22.51,4.18,28.87,1.44,4.97,1.82,4.3,6.89,5.12.64,3.86-5.14,4.44-7.96,5.05-15.68,3.35-49.1,7.46-64.1,4-5.05-1.16-14.5-4.02-12.94-10.55,7.42,3.37,14.57,6.92,22.99,6.99,2.97-8.18-7.11-11.42-7.84-15.74s2.91-15.63-.63-20.28c-2.78-3.65-20.15,2.02-21.07,7.96.28,23.2,2.18,46.46,4.56,69.55,1.74,16.96,3.48,40.44,7.49,56.51,2.07,8.32,4.41,11.01,12.28,14.72,14.31,6.76,28.48,4.97,43.42,1.96,8.79-1.77,23.68-3.85,27.51-12.49,5.82-13.16,4.05-38.97,4.26-53.74.22-14.84,1.54-31.01.03-45.94-1.18-11.67-8.75-10.78-11.48-18.52-1.82-5.17-3-29.26-4.52-30.99ZM1211,1190.5c.8,5.95-.58,13.36,0,19.5,8.25.52,8.59-1.08,9.05-8.46.67-10.76-.03-21.06-13.04-21.54-.41.39,3.73,8.51,4,10.49ZM825.86,1190.14l-61.86-9.15c-1.21,12.53-6.39,24.63-9,37l68.89,9.89,1.97-37.74ZM1153,1188h-15c.98,18.69,4.3,37.28,2,56,2.62-.08,16.45.59,17.06-1.62l-4.06-54.39ZM1179,1192.01c-4.93,1.08-12.02.17-16.5.99-1.14.21-2.02.35-2.36,1.64l1.87,38.36,17.01-2.5.86-1.07c-1.19-12.31-3.94-25.38-.89-37.42ZM996.3,1205.27c-1.02,2.14-2.2,9.52-2.31,12.18-.56,12.99,2.15,27.23,17.47,28.59,10.33.92,39.34,1.4,48.98-.1,20.51-3.2,22.05-47.95-.9-49.98-9.27-.82-47.18-1.07-54.25,1.83-1.66.68-8.39,6.23-8.99,7.48ZM1134,1197l-57,3.01c5.43,11.53,5.74,26.16,1,37.98l57.06-3.43c3.4-2.37-2.41-31.86-1.06-37.57ZM994,1201.01l-46-1.02-1,38.01,46,.99c-5.14-12.01-6.02-26.51,1-37.98ZM1314,1215c-7.21,2.58-17.51,2.03-24.31,4.19-.77.25-1.31.59-1.58,1.39l1.09,56.72c13.69,15.99,33.88,27.79,53.8,34.69l-29-96.99ZM807,1231.01l-53.88-7.89-29.12,94.88c2.37,2.4,29.06-14.12,32.72-16.77,22.47-16.29,42.21-43.72,50.28-70.22ZM1032,1252h-22.5c-4.65,0-11.12-6.43-14.02-6.98-10.42-1.99-29.64-.58-41.02-.98-2.54-.09-4.89-1.22-7.45-1.05-2.63,11.34-1.33,33.82-7.57,42.94-12.82,18.73-45.57,12.71-64.95,11.07-11.91-1-24.3-.75-35.76-5.24-21.63-8.47-14.27-39.05-14.87-57.13l-1.5-1.5-9.35-1.14c-12.54,39.06-42.87,72.49-80.03,89.49-3.92,1.79-9.94,1.95-12.21,5.79-1.53,2.6-1.84,6.96-2.85,9.95-.4,1.18-4.41,9.13-4.51,9.7-2.95,16.35-10.56,36.18-16.37,53.62-22.5,67.5-45.59,134.84-68.98,202.03-.72,1.97,3.28,1.86,4.74,2.12,88,15.91,176.79,27.92,264.71,44.4l2.53-.55c14.1-31.96,27.66-64.24,41.78-96.22,19.07-43.2,38.21-92.93,59.8-134.2,6.11-11.69,14.86-24.87,29.34-26.16l1.04-139.96ZM1179.95,1237.05l-17.95.95c.13,3.69-.46,8.62-4.26,10.24-2.28.97-17.87,1.37-20.11.62-2.87-.96-2.02-7.72-3.21-7.92-11-.38-21.95,1.42-32.88,2.1-5.92.36-25.9-.76-29.63,2.37-3.4,2.85-1.61,12.56-1.87,17.13-1.21,20.81.64,42.32-1.01,62.99-1.55,19.43-12.17,33.01-30.8,38.7-1.76,2.02-1.9,26.06-.35,28.18,12.96.88,20.97,11.92,26.83,22.37,17.12,30.54,32.92,73.53,47.45,106.55,18.66,42.37,36.57,85.09,54.95,127.55l270.89-49.9c-29.68-93.51-63.66-185.64-92.92-279.33-18.23-6.98-36.34-16.01-51.28-28.71-1.66-1.41-3-3.89-4.79-4.93-.31,12.84.64,42.7-10.68,50.83-17.71,12.72-74.74,18.35-85.88-5.79-5.68-12.31-8.85-53.08-10.44-68.56-.37-3.58-.89-24.29-2.06-25.43ZM1064,1251h-19.5c-.94,0-4.02,1.72-5.81,1.19l-1.69,1.31v104.5c11.4-2.61,20.3-10.32,24.04-21.46,1.02-3.05,2.96-11.21,2.96-14.04v-71.5ZM1170,1654.01c7.13,14.46,11.45,35.84,25.7,44.79,4.99,3.14,12.94,6.61,18.81,7.19,25.71,2.55,61.31.3,88.04.06,45.86-.4,91.97-2.74,137.96-2.05,20.36-4.09,26.89-19.27,21.53-38.54s-15.03-38.42-20.52-57.48l-3.04-3.03-268.47,49.05ZM897,1654.01l-270.38-45.07c-5.8,19.98-15.23,39.33-20.88,59.3s-5.22,37.65,18.76,41.77c61,.16,122.16.22,182.96-1.05,34.15-.71,61.89,8.23,79.05-27.95,3.92-8.28,7.15-18.37,10.49-27Z"/>
      <path class="st8" d="M830.01,1222c17.16,18.96,59.86,20.46,81.67,10.18,10.82-5.1,12.87-11.76,15.03-22.97,1.62-8.41-.7-23.01,10.17-23.34l.13-4.87c-21.23.09-10.68,31.12-20.45,42.05-9.21,10.3-35.13,11.51-47.93,9.83-13.94-1.83-36.59-7.55-38.65-24.35-1.66-13.54,1.4-38.46,18.5-40.55,15.12-1.85,36.45,1.77,52.04,3.01,7.5.6,29.52.1,34.88,3.12,2.83,1.59,5.76,13.96,6.35,17.65,3.4,21.34-.65,59.63-3.85,81.63-1.01,6.93-4.75,14.57-11.49,17.51-10.53,4.6-47.98,1.6-60.89.09-8.55-1-28-2.77-32.72-10.28-8.54-13.59-1.17-42.89-2.78-58.71ZM868.71,1207.22c-7.89,1.79-9.22,17.7-1,19.56,19.96,4.52,20.44-23.98,1-19.56Z"/>
      <path class="st8" d="M1266.99,1178c1.52,1.73,2.7,25.83,4.52,30.99,2.72,7.74,10.3,6.86,11.48,18.52,1.51,14.93.19,31.1-.03,45.94-.21,14.77,1.56,40.58-4.26,53.74-3.82,8.64-18.72,10.72-27.51,12.49-14.94,3.01-29.11,4.8-43.42-1.96-7.87-3.72-10.21-6.41-12.28-14.72-4-16.08-5.74-39.56-7.49-56.51-2.37-23.09-4.28-46.35-4.56-69.55.92-5.94,18.29-11.61,21.07-7.96,3.55,4.65-.1,15.95.63,20.28s10.81,7.56,7.84,15.74c-8.42-.07-15.57-3.62-22.99-6.99-1.56,6.53,7.89,9.38,12.94,10.55,15,3.46,48.42-.65,64.1-4,2.82-.6,8.6-1.19,7.96-5.05-5.07-.81-5.45-.15-6.89-5.12-1.84-6.36-3.99-22.18-4.18-28.87-.06-2.2-.32-8.21,3.06-7.52ZM1223,1332.99c-2.74-30.36-4.41-60.93-9.5-90.99l-3.49-1,7.99,92h5Z"/>
      <path class="st8" d="M1261.98,1219.98l-43.97,4.01-.91-8.32c.83-2.66,6.9-1.22,7.9-10.17,1.63-14.44-.74-31.21-18.5-31.59-11.1-.24-17.1-2.04-27.74-6.16-6.97-2.7-14.89-4.82-17.49-12.51-1.93-5.71-5.25-31.78-2.34-35.82,1.79-2.48,9.59-3.76,12.71-4.29,27.45-4.6,100.17-8.03,105.28,30.45,2.25,16.96-8.41,17.82-15.37,28.46-7.09,10.85,3.95,32.91.43,45.93ZM1163.7,1121.2c-1.62.49-2.38,1.74-2.68,3.33-1.23,6.59.97,27.72,4.51,33.43,2.86,4.62,12.99,7.44,18.25,8.76,14.75,3.71,18.63,3.49,17.2-13.2-.72-8.44-3.25-22.51-11.43-26.57-3.89-1.93-22.25-6.83-25.85-5.75Z"/>
      <path class="st10" d="M996.3,1205.27c.6-1.25,7.33-6.8,8.99-7.48,7.07-2.9,44.98-2.65,54.25-1.83,22.94,2.03,21.4,46.77.9,49.98-9.63,1.51-38.64,1.02-48.98.1-15.32-1.36-18.03-15.6-17.47-28.59.11-2.65,1.29-10.03,2.31-12.18Z"/>
      <path class="st8" d="M1273.69,1183.26c-.1-.24-3.63-1.6-1.59-4.17.73-.92,13.58-1.58,16.18-2.14.71-.15.35-1.43,2.22-1.99,3.52-1.07,7.84.19,11.55-.55,1.73,10.04,8.02,21.95,9.53,31.55.21,1.34.92,2.81,0,4.11-4.48.2-23.91,5.57-26.56,4.46-1.32-.55-8.09-6.86-8.58-8.47-1.63-5.33-.98-18.8-2.76-22.8Z"/>
      <path class="st10" d="M1153,1188l4.06,54.39c-.61,2.21-14.45,1.54-17.06,1.62,2.31-18.72-1.02-37.31-2-56h15Z"/>
      <g>
        <path class="st10" d="M1032,1252l-1.04,139.96c-14.48,1.29-23.22,14.47-29.34,26.16-21.58,41.27-40.73,91-59.8,134.2-14.12,31.98-27.68,64.26-41.78,96.22l-2.53.55c-87.92-16.48-176.71-28.49-264.71-44.4-1.46-.26-5.46-.15-4.74-2.12,23.39-67.19,46.48-134.53,68.98-202.03,5.81-17.44,13.42-37.27,16.37-53.62.1-.57,4.11-8.52,4.51-9.7,1.01-2.99,1.32-7.35,2.85-9.95,2.27-3.84,8.29-4,12.21-5.79,37.16-17,67.49-50.43,80.03-89.49l9.35,1.14,1.5,1.5c.6,18.08-6.76,48.66,14.87,57.13,11.46,4.49,23.85,4.24,35.76,5.24,19.38,1.63,52.13,7.66,64.95-11.07,6.24-9.12,4.93-31.6,7.57-42.94,2.56-.17,4.91.96,7.45,1.05,11.38.4,30.6-1.02,41.02.98,2.9.55,9.37,6.98,14.02,6.98h22.5Z"/>
        <path class="st10" d="M1179.95,1237.05c1.17,1.14,1.7,21.85,2.06,25.43,1.59,15.48,4.76,56.25,10.44,68.56,11.14,24.14,68.17,18.51,85.88,5.79,11.31-8.13,10.37-37.99,10.68-50.83,1.79,1.04,3.13,3.52,4.79,4.93,14.94,12.69,33.06,21.73,51.28,28.71,29.26,93.69,63.24,185.83,92.92,279.33l-270.89,49.9c-18.38-42.46-36.3-85.18-54.95-127.55-14.54-33.02-30.34-76-47.45-106.55-5.86-10.45-13.86-21.48-26.83-22.37-1.55-2.12-1.41-26.16.35-28.18,18.63-5.69,29.25-19.27,30.8-38.7,1.65-20.68-.21-42.18,1.01-62.99.27-4.57-1.53-14.27,1.87-17.13,3.73-3.13,23.71-2.01,29.63-2.37,10.94-.67,21.88-2.48,32.88-2.1,1.2.2.35,6.96,3.21,7.92,2.24.75,17.83.36,20.11-.62,3.8-1.62,4.39-6.56,4.26-10.24l17.95-.95Z"/>
        <path class="st10" d="M807,1231.01c-8.07,26.49-27.81,53.93-50.28,70.22-3.66,2.65-30.34,19.18-32.72,16.77l29.12-94.88,53.88,7.89Z"/>
        <path class="st10" d="M1314,1215l29,96.99c-19.92-6.91-40.11-18.7-53.8-34.69l-1.09-56.72c.26-.8.8-1.15,1.58-1.39,6.8-2.16,17.1-1.61,24.31-4.19Z"/>
        <path class="st10" d="M1064,1251v71.5c0,2.83-1.94,10.99-2.96,14.04-3.73,11.14-12.63,18.85-24.04,21.46v-104.5l1.69-1.31c1.8.54,4.88-1.19,5.81-1.19h19.5Z"/>
        <path class="st8" d="M825.86,1190.14l-1.97,37.74-68.89-9.89c2.62-12.37,7.8-24.47,9-37l61.86,9.15Z"/>
        <path class="st8" d="M1134,1197c-1.35,5.71,4.46,35.19,1.06,37.57l-57.06,3.43c4.74-11.83,4.44-26.46-1-37.98l57-3.01Z"/>
        <path class="st8" d="M994,1201.01c-7.02,11.47-6.15,25.97-1,37.98l-46-.99,1-38.01,46,1.02Z"/>
        <path class="st8" d="M1179,1192.01c-3.05,12.04-.3,25.11.89,37.42l-.86,1.07-17.01,2.5-1.87-38.36c.33-1.29,1.22-1.43,2.36-1.64,4.48-.82,11.57.09,16.5-.99Z"/>
      </g>
      <path class="st8" d="M1211,1190.5c-.27-1.99-4.4-10.11-4-10.49,13.01.47,13.71,10.78,13.04,21.54-.46,7.38-.8,8.98-9.05,8.46-.58-6.14.8-13.55,0-19.5Z"/>
      <path class="st4" d="M868.71,1207.22c19.44-4.42,18.96,24.08-1,19.56-8.22-1.86-6.89-17.77,1-19.56ZM878.18,1217.17c0-3.3-2.67-5.97-5.97-5.97s-5.97,2.67-5.97,5.97,2.67,5.97,5.97,5.97,5.97-2.67,5.97-5.97Z"/>
      <path class="st4" d="M1223,1332.99h-5s-7.99-91.99-7.99-91.99l3.49,1c5.09,30.06,6.76,60.63,9.5,90.99Z"/>
      <path class="st4" d="M1163.7,1121.2c3.6-1.08,21.96,3.82,25.85,5.75,8.18,4.06,10.71,18.13,11.43,26.57,1.43,16.69-2.45,16.9-17.2,13.2-5.26-1.32-15.38-4.14-18.25-8.76-3.54-5.71-5.74-26.85-4.51-33.43.3-1.59,1.05-2.84,2.68-3.33ZM1196,1163c1.36-1.33-3.75-26.99-6.54-29.96-4.09-4.35-17.41-4.16-22.93-7.05l-1.33,2.25c2.84,13.37-2.55,23.54,12.53,29.53,3.22,1.28,10.98,4.16,14.05,4.96,1.41.37,2.79.37,4.23.27Z"/>
      <circle class="st10" cx="872.21" cy="1217.17" r="5.97"/>
      <path class="st8" d="M1196,1163c-1.43.1-2.81.09-4.23-.27-3.07-.79-10.83-3.68-14.05-4.96-15.08-5.99-9.69-16.16-12.53-29.53l1.33-2.25c5.52,2.89,18.84,2.7,22.93,7.05,2.8,2.97,7.9,28.63,6.54,29.96Z"/>
      <g>
        <path class="st5" d="M1048,977c.83-3.91-1.05-7.87-1.04-11.45.06-15.87,12.11-33.2,18.23-47.85s11.92-31.24,17.26-46.74c10.32-29.96,18.24-60.47,26.56-90.95,2.61-.43,3.25,2.68,5,3.47,7.29,3.32,15.98-6.49,20.5-11.47,18.37-20.25,32.75-49.85,41.2-75.8,2.04-6.26,2.82-13.04,5.34-19.17l24.73,7.69c3.43,5.45,5.2,2.98,9.25,3.72,4.78.87,6.26,4.22,10.91,3.65l.06,2.9c1.04,0,1.99-.68,3.06-.43,31.14,7.25,63.02,25.83,90.52,40.3,23.09,12.15,49.33,24.63,70.75,39.29,1.81,1.24,9.47,6.95,10.36,8.15,2.11,2.84-3.27,18.26-4.66,22.24-12.76,36.32-42.8,95.15-68.07,123.93-1.45,1.66-5.56,6.35-7.39,6.45-2.51-.93-5.25-.63-7.79-1.2-11.43-2.58-19.17-7.64-31.83-4.26-20.22,5.4-19.69,23.95-17.94,41.03,4.74,46.27,14.17,100.13,24.47,145.53,1.72,7.57,13.86,47.94,11.37,51.85-3.78,1.78-26.16,6.25-27.85,4.13,2.3-5.19,8.44-8.73,10.23-14.25s.65-18.17-2.2-23.01c-.57-.96-4.13-6.1-5.02-7.23-17.28-22.13-70.14-21.53-95.5-18.48-8.71,1.05-24.13,2.12-26.28,12.72-1.48,7.26,2.4,30.18,4.88,37.67,4.42,13.39,31.71,13.66,40.89,22.11l-16.75,5.24c-6.27.43-14.61,2.42-20.76,1.26-2.85-.54-2.95-4.47-6.44-5.56s-13.66-.52-17,1.1c-3.56,1.73-3.59,6.98-5.03,7.97-.79.54-6.07,1.33-7.53,1.47-12.16,1.13-39.88,3.4-51.01,2.04-3.95-.48-6.11-3.13-9.2-3.8-8.43-1.85-41.2-1.14-50.77-.21-4.92.48-9.37,3.3-13.07,3.93-11.46,1.96-36,1.18-47.95.06-1.19-.11-3.52-.38-4.25-1.24-2.5-14.97-5.28-24.12-21.82-26.67-23.26.04-46.74-4.87-69.9-5.16-14.47-.18-25.25,8.58-29.72,21.86-19.87-.64-40.47-4.01-59.8-8.79,2.8-10.91,6.18-21.78,8.74-32.76,11.18-47.94,18.19-96.86,24.28-145.72,1.86-14.92,11.03-46.06-3.1-56.93-11.55-8.88-36.57.09-49.84,2.95-2.78.21-13.81-14.08-16.06-17.05-25.74-33.86-51.93-80.82-65.47-121.53-.85-2.56-2.77-8.08-2.63-10.47.27-4.71,10.06-8.37,13.73-10.85,44.43-30.06,95.02-57.08,144.56-77.93,15.74-6.63,38.08-17.87,53.82-22.19,13.2-3.62,9.49-1.19,12.67,8.28,10.26,30.52,26.75,63.49,49.31,86.69,2.61,2.68,9.58,8.09,13.43,7.54,3.43-.49,6.94-8.96,10.05-5.02,5.52,17.07,8.48,35.09,13.79,52.2,11.77,37.9,28.28,75.69,43.86,112.14.8,1.87,4.86,7.67,4.86,8.14v23l-1.5,1.5h-50c-4.11,0-8.01,3.18-8.54,7.46-3,24.07,2.35,54.32.02,79.06.36,6.23,6.01,8.04,11.48,8.52,39.19,3.46,83.37-2.71,123.09,0l8.96-4.04.54-85.56c.7-1.97-3.34-5.45-4.55-5.45h-54.5Z"/>
        <path class="st5" d="M1056,773.5l1.23-7.77c1.85-3.98,2.53-8.42,4.74-12.26,1.35-2.34,11.98-14.19,13.7-14.33,1.83-.15,19.56,18.48,16.24,23.23-13.9,58.65-30.31,117.66-56.41,171.6-8.52-18.64-16.93-37.55-24.25-56.73s-14.82-40.83-20.78-61.22c-4.26-14.56-11.57-37.23-13.38-51.61-.24-1.94-.42-5.06-.06-6.9.5-2.57,14.1-16.11,16.88-19.16,2.93-3.23,8.14-13.11,13.45-12.4.61.08.67,1.4,1.05,1.61,3.86,2.13,9.68,8.45,12.56,12.2,2.48,3.23,7.81,9.38,6.55,13.16s-12.51,16.54-12.51,20.57v81l2.5,1.5c6.66-.59,13.3.91,19.87.86,1.56-.01,3.3-.88,5.13-.96,4.13-.17,9.87,2.03,13.49-1.4v-81Z"/>
        <path class="st7" d="M935.42,676.58c19.41,19.68,41.4,33.18,66.57,44.44l-53.43,59.01c-4.06.16-14.14-13.49-16.97-17.11-15.69-20.01-32.12-46.92-38.3-71.7-2.44-9.77-3.95-11.83,1.88-20.55,2.59-3.87,11.26-16.37,13.97-19.02.67-.66.92-1.85,2.35-1.71,2.3-.02,6.22,7.03,8,9.08,5.11,5.9,10.47,12.02,15.93,17.57Z"/>
        <path class="st7" d="M1126.58,773.58c-2.57,2.58-6.31,7.38-10.16,4.47l-48.37-56.43c8.69-6.44,19.17-10.65,28.26-16.8,22.88-15.49,41.43-36.28,57.19-58.79,3.86,6.47,21.1,22.56,22.34,28.72,1.35,6.73-9.37,33.43-12.66,40.93-7.94,18.07-22.73,43.95-36.59,57.9Z"/>
        <path class="st6" d="M1103,1063.5c-.08.27-2.53,2.76-3.02,2.98l-130.3-.41c-.52-.32-1.68-2.18-1.68-2.57v-56.5h133.5l1.5,1.5v55Z"/>
        <path class="st7" d="M657.99,796c18.17,52.96,45.73,102.44,79.53,146.99.91,1.08.53,1.79-.53,2.5s-21.69,6.34-23.64,6.47c-1.72.12-2.43.11-3.92-.89-2.05-1.37-11.93-15.54-14.24-18.76-25.53-35.52-46.31-76.18-62.2-116.91-.29-2.56,1.95-3.86,3.55-5.37,2-1.9,16.47-12.58,18.49-13.52,1.03-.48,1.82-.73,2.96-.52Z"/>
        <path class="st7" d="M1430.79,802.2c.69,1.18.27,3.66-.03,5.06-1.21,5.67-7.06,18.34-9.58,24.42-16.59,39.97-39.14,77.47-65.19,111.87l-26.98-6.56c33.96-45.29,59.94-96.33,78.02-149.99l23.77,15.2Z"/>
        <path class="st7" d="M1051,851h-32c.2-14.16-.25-28.37-.04-42.54.03-2.39,1.08-4.59,1.13-6.96.43-20.48-4.52-24.13,9.49-42.42,3.46-4.51,30.02-34.12,32.92-34.12,2.84.86,9.05,7.83,8.4,10.33-.51,1.96-11.99,13.66-14.44,18.66-1.47,3-5.46,14.78-5.46,17.54v79.5ZM1042.65,784.65c9.64-10.15-7.33-23.09-15.33-14.34-8.39,9.17,5.47,24.72,15.33,14.34ZM1045.26,829.06c0-5.56-4.51-10.07-10.07-10.07s-10.07,4.51-10.07,10.07,4.51,10.07,10.07,10.07,10.07-4.51,10.07-10.07Z"/>
        <path class="st5" d="M969.5,1002c-2.94-.91-1.38-19.58.11-20.05,13.3-.44,26.6,0,39.93.09,4.22.03,7.29-2.1,11.91,1.03l1.54-2.07c.55,3.57-2.15,9.49,2.01,11.5,1.72.83,18.19.91,20.3.29,5.09-1.49.79-10.86,4.28-11.68,7.39,2.07,15.28.42,22.75.25,6.86-.15,16.57-1.15,23.09-.28,11.98,1.6,7.18,11.97,6.59,20.91h-132.5Z"/>
        <path class="st5" d="M1098.94,763.05c.63,4.38,4.73,6.78,5.03,11.57.14,2.2-.83,7.08-1.21,9.63-5.02,33.7-23.76,84.24-36.27,116.73-6.39,16.61-13.89,32.79-20.42,49.33-1.4,2.17-7.03,1.87-9.41,1.53l-1.59-1.47c6.53-18.95,15.55-37.28,22.7-56.11,10.17-26.77,20.57-57.58,27.75-85.25,3.93-15.17,5.78-31.06,10.6-45.9l2.82-.06Z"/>
        <path class="st5" d="M972.99,765c1.6,10.2,4.96,20,7.57,29.94,11.51,43.82,25.18,79.75,42.63,121.37,2.77,6.6,9.48,21.28,8.16,27.45-.51,2.36-2.45,7.63-4.85,8.23-8.4-16.3-14.49-33.65-21.31-50.68-13.97-34.86-26.98-69.27-36.12-105.88-1.17-4.67-5.76-21.1-4.55-24.38.66-1.79,6.64-7.67,8.48-6.06Z"/>
        <path class="st7" d="M1027,988v-29.5c3.68-2.64,11.48-1.93,15.56-.56.76,1.09.83,23.71.49,26.61-.17,1.46-.12,2.57-1.55,3.45h-14.5Z"/>
        <path class="st4" d="M1042.65,784.65c-9.86,10.38-23.72-5.16-15.33-14.34,8-8.75,24.98,4.19,15.33,14.34ZM1040.4,777.52c0-2.97-2.41-5.37-5.37-5.37s-5.37,2.41-5.37,5.37,2.41,5.37,5.37,5.37,5.37-2.41,5.37-5.37Z"/>
        <path class="st4" d="M1045.26,829.06c0,5.56-4.51,10.07-10.07,10.07s-10.07-4.51-10.07-10.07,4.51-10.07,10.07-10.07,10.07,4.51,10.07,10.07ZM1040.28,828.92c0-2.87-2.33-5.2-5.2-5.2s-5.2,2.33-5.2,5.2,2.33,5.2,5.2,5.2,5.2-2.33,5.2-5.2Z"/>
        <circle class="st10" cx="1035.03" cy="777.52" r="5.37"/>
        <circle class="st10" cx="1035.08" cy="828.92" r="5.2"/>
      </g>
    </g>
    <g>
      <path class="st5" d="M1117.42,380.58c13.8,16.79,23.94,50.44,26.46,72.04.28,2.4,1.56,12.21.02,13.28-1.05.38-2.1.11-3.14-.13-10.28-2.39-22.97-8.63-33.71-11.33-41.39-10.4-83.24-8.24-124.47,1.62-19.5,4.66-38.63,12.45-56.56,20.93.23-19.12,2.48-38.32,6.48-57.01,3.83-17.93,11.74-40.86,27.84-51.65,38.32-25.69,125.58-26.09,157.09,12.25Z"/>
      <path class="st5" d="M1195.39,513.63c.63,1.02,8.64,9.66,4.1,9.41-6.5-.36-27.27-13.84-34.59-17.43-67.58-33.08-123.96-32.5-193.14-4.36-25.52,10.38-52.2,32.62-72.76.27.02-3.85,13.71-12.59,17.32-14.71,25.92-15.27,65.54-27.46,95.31-31.69,58.54-8.32,150.04,4.4,183.77,58.51Z"/>
      <path class="st5" d="M1199.91,535.92c-.38.26-8.3-.71-9.17-.98-6.21-1.91-23.49-13.89-31.38-17.8-51.96-25.77-114.71-30.86-169.54-9.82-29.35,11.26-73.71,45.23-98.26,6.62-3.55-5.58-6.04-11.4,3.26-10.75,2.31,3,5.01,7.92,7.52,10.47,14.58,14.78,33.63,8.78,50.34,1.52,72.83-31.67,118.72-43.42,196.04-12.39,17.76,7.12,33.43,18.75,51.28,25.71,2.16,1.77.58,5.32-.09,7.43Z"/>
      <path class="st5" d="M947.99,372c1.12,4.11-1.75,4.04-3,5.77-12.87,17.97-18.01,38.85-20.87,60.85-1.74,13.37-2.06,26.98-3.62,40.38l-34.5,21.99c-1.6-2.19,3.41-29.41,4.3-34.19,4.16-22.23,9.06-43.47,21.27-62.73,8.58-13.54,20.85-27.1,36.42-32.07Z"/>
      <path class="st5" d="M1128.67,377.35c23.97,12.62,36.83,53.71,42.28,78.2.41,1.84-.08,4-.02,5.91l3.14,1.08,1.93,21.45c-5.14.92-4.36-2.79-5.24-3.69-2.25-2.3-11.82-5.31-15.09-7.46-1.65-1.09-3.54-2.78-4.44-4.56-3.74-7.45-5.23-29.55-7.52-39.48-2.77-12.04-6.83-24.54-12.53-35.47-3.02-5.8-7.03-11.09-10.2-16.81-1.02-3.06,6.73.33,7.68.84Z"/>
    </g>
  </g>
  <g>
    <path class="st4" d="M987.89,1024.89h5.1v24.59h-4.71v-9.97l-2.32,9.97h-4.04l-2.32-9.97v9.97h-4.71v-24.59h5.1l3.96,12.02,3.96-12.02Z"/>
    <path class="st4" d="M999.25,1049.48h-4.71l6.63-24.59h4.71l6.24,24.59h-4.69l-1.07-4.18h-5.98l-1.12,4.18ZM1003.46,1033.87l-1.81,6.71h3.52l-1.71-6.71Z"/>
    <path class="st4" d="M1025.19,1024.89h4.71v24.59h-5.29l-6.22-14.01v14.01h-4.71v-24.59h5.29l6.22,14.01v-14.01Z"/>
    <path class="st4" d="M1036.17,1049.48h-4.71l6.63-24.59h4.71l6.24,24.59h-4.69l-1.07-4.18h-5.98l-1.12,4.18ZM1040.37,1033.87l-1.81,6.71h3.52l-1.71-6.71Z"/>
    <path class="st4" d="M1061.35,1024.89l3.6,3.62v4.76h-4.69v-3.67h-5.84v15.17h5.84v-5.24h-2.71v-4.69h7.4v11.04l-3.6,3.6h-8.03l-3.6-3.6v-17.37l3.6-3.62h8.03Z"/>
    <path class="st4" d="M1079.01,1024.89v4.71h-7.79v5.24h6.22v4.69h-6.22v5.24h7.79v4.71h-12.5v-24.59h12.5Z"/>
    <path class="st4" d="M1092.2,1024.89l3.6,3.62v7.44l-1.28,1.28,1.28,1.25v11h-4.69v-9.35h-5.84v9.35h-4.71v-24.59h11.64ZM1091.11,1029.6h-5.84v5.84h5.84v-5.84Z"/>
  </g>
  <g>
    <g>
      <g id="Ticket">
        <path class="st5" d="M974.68,445.16s-3.08-17.15-3.08-18.25c0-1.89,4.5-2.54,5.7-4.88,3.49-5.3.39-12.02-4.64-13.73-2.3-.7-4.31-.25-5.01-3.68-1.1-6.06-3.41-17.17-3.43-18.16s.85-1.13.85-1.13c0,0,76.67-13.27,113.68-19.7,1.79-.31,3.14,1.65,3.26,4.36.75,2.34,2.33,4.17,3.93,6.08,1.63,2.1,2.01,4.72,1.95,7.31.85,2.25.48,5.05,2.21,6.73.58,2.44.38,4.84-1.03,7.1.38,2.51.44,5.02.49,7.65.2,3.5-.45,7.13.59,10.53,1.43,2.42,1.63,5.2,2.39,7.81-.66,1.91-.83,3.06-3.46,3.58-17.78,3.36-53.44,9.46-53.44,9.46,0,0-59.96,10.54-60.53,10.54-.11,0-.41-1.6-.41-1.6h0,0Z"/>
        <g>
          <path class="st0" d="M974.88,446.13c-.1-.45-.2-.97-.2-.97h0,0s-.06-.36-.18-.98"/>
          <path class="st2" d="M974.15,442.2c-.88-4.96-2.55-14.48-2.55-15.29,0-1.89,4.5-2.54,5.7-4.88,3.49-5.3.39-12.02-4.64-13.73-2.3-.7-4.31-.25-5.01-3.68-1.1-6.06-3.41-17.17-3.43-18.16s.85-1.13.85-1.13c0,0,76.67-13.27,113.68-19.7,1.79-.31,3.14,1.65,3.26,4.36.75,2.34,2.33,4.17,3.93,6.08,1.63,2.1,2.01,4.72,1.95,7.31.85,2.25.48,5.05,2.21,6.73.58,2.44.38,4.84-1.03,7.1.38,2.51.44,5.02.49,7.65.2,3.5-.45,7.13.59,10.53,1.43,2.42,1.63,5.2,2.39,7.81-.66,1.91-.83,3.06-3.46,3.58-17.78,3.36-53.44,9.46-53.44,9.46,0,0-55.31,9.72-60.19,10.49"/>
        </g>
      </g>
      <path id="Border" class="st1" d="M1082.11,370.73l-104.97,18.34,8.6,49.93,105.86-18.56"/>
      <path id="Registered" class="st9" d="M1096.91,421.59c-1.2,0-2.17.97-2.17,2.16h0c0,1.2.97,2.17,2.17,2.17s2.17-.97,2.17-2.16-.97-2.17-2.16-2.17h0ZM1096.91,421.95c1,0,1.81.81,1.81,1.81h0c0,1-.81,1.81-1.81,1.81h0c-1,0-1.81-.81-1.81-1.81h0c0-1,.81-1.81,1.81-1.81h0ZM1095.96,422.63v2.33h.38v-.99h.22c.13,0,.23.03.3.08.1.07.23.25.39.54l.21.37h.46l-.28-.46c-.14-.22-.25-.37-.34-.46-.05-.05-.12-.09-.2-.12.2-.02.36-.09.48-.21.12-.13.18-.28.18-.44,0-.12-.04-.23-.11-.34s-.17-.18-.29-.23-.32-.06-.59-.06h-.8,0ZM1096.34,422.94h.43c.18,0,.31.01.38.04s.12.07.16.12c.04.05.06.12.06.18,0,.11-.04.19-.12.26-.08.07-.23.1-.45.1h-.46v-.7h0Z"/>
    </g>
    <g>
      <path class="st7" d="M991.67,403.73l3.27-.57-1.61,17.96-3.28.58-7.36-16.38,3.28-.58,4.67,10.4,1.03-11.4h0Z"/>
      <path class="st7" d="M996.78,402.83l3.28-.58,3.01,17.15-3.28.58-3.01-17.15Z"/>
      <path class="st7" d="M1010.01,400.51l2.96,2.08,2.13,12.11-2.07,2.95-8.11,1.42-3.01-17.15,8.11-1.42h0ZM1009.83,403.92l-4.07.72,1.86,10.58,4.07-.72-1.86-10.58Z"/>
      <path class="st7" d="M1023.08,398.21l.58,3.28-5.43.95.64,3.65,4.34-.76.57,3.27-4.34.76.64,3.65,5.43-.95.58,3.28-8.71,1.53-3.01-17.15,8.71-1.53h0Z"/>
      <path class="st7" d="M1033.03,396.46l2.96,2.08,2.13,12.11-2.07,2.95-5.6.98-2.95-2.07-2.13-12.11,2.07-2.97,5.6-.98h0ZM1032.85,399.88l-4.07.72,1.86,10.58,4.07-.72-1.86-10.58Z"/>
      <path class="st7" d="M1045.5,394.27l2.96,2.08.58,3.32-3.27.57-.45-2.56-4.07.72,1.86,10.58,4.07-.72-.45-2.56,3.27-.57.59,3.33-2.07,2.95-5.6.98-2.95-2.07-2.13-12.11,2.07-2.97,5.6-.98h0Z"/>
      <path class="st7" d="M1055.57,406.79l5.42-.95.58,3.28-8.7,1.53-3.01-17.15,3.28-.58,2.44,13.86h0Z"/>
      <path class="st7" d="M1067.73,390.37l3.28-.58,2.57,14.63-2.07,2.95-5.6.98-2.95-2.07-2.57-14.63,3.28-.58,2.44,13.86,4.06-.71-2.44-13.86h0Z"/>
      <path class="st7" d="M1080.96,388.04l2.96,2.08.91,5.18-.74,1.05,1.05.71.91,5.16-2.07,2.95-8.11,1.42-3.01-17.15,8.11-1.42h0ZM1077.35,395.83l4.06-.71-.64-3.65-4.06.71.64,3.65h0ZM1082,398.38l-4.07.72.64,3.65,4.07-.72-.64-3.65Z"/>
    </g>
  </g>
</svg>