<?xml version="1.0" encoding="UTF-8"?><svg id="a" xmlns="http://www.w3.org/2000/svg" width="1088.6" height="641.9" viewBox="0 0 1088.6 641.9"><path d="M515.1,88.5c1.6,1,35.2.8,38.3.2s3.7-4.3,7-4l376.3.8c5.5,2,7.8,7.2,8.3,12.7,1.8,18.2,1.4,53.6,0,72.1-.6,8.7-4.1,16.9-5,25.5h4s1.1,7.5,1.1,7.5v292c-1,11-19.3,39.7-26.6,49.5-4,5.4-9,8.2-15.9,8.1H171.4c-6.6-.4-11.1-1.3-15.5-6.5-8.6-17.3-25.5-31.2-30-50V199.2c-1.1-4.3,4.9-3,5-4-.6-8.2-4.4-15.8-5.1-23.9-1.6-20.1-1.5-53.9,0-74.1.4-6.1,4.9-12.4,11.5-12.5h373.1c4.6.5,3.5,3.2,4.7,3.8ZM935.9,187.7c7.7-29.3,2.5-60.3,4-90.5,0-3.2-2.1-5.9-5-7l-372.6-.5c-3.2-.5-2.5,2.9-4.9,3.2-4.5.6-44.4.9-46.3-.3s-.9-3.6-3.6-2.8H137.4c0,0-6.5,1.1-6.5,1.1v80.5c-.4,2.9,1.3,5.2,2,7.5l3,16h3c1-3-.9-7-1-9-1.2-18.3,2.5-37.8,1-56.3l4.5-1.7,786.5.5,2,3v57.5c-.2,1.9.1,4,0,6,5,1.2,3.2-4.1,4-7ZM142.9,200.7c-.6.1-1.5-.2-2,0h-10v297.5c0,.4,2.7,6.2,3.1,6.9,2.3,3.6,6.1,5.4,9.8,7.2l784.9-.2c7.9-2.7,10.5-10.1,11.2-17.8V203.2s-1.5-3.2-1.5-3.2l-10.5-.2v-65.5l-1.5-1.5H142.9v68ZM142.9,516.7l18.6,27.9,3.4,2.6h742.9c1.7-1,3.2-2.1,4.5-3.5,4-4.5,12-17.9,15.4-23.6.3-.5,3.4-5.7.7-3.3H142.9Z" fill="#110c05"/><path d="M142.9,200.7l1-67c1.1-.4,2.2,1,2.5,1h778.5l1.4,64.6c1.9,4.2,11.4,1.4,11.6,3v293c0,1.4-.4,4.9-1,5.8s-2.5.3-2.9.7c-1.8,1.9,2.2,8-7.7,8.9l-782.5-.5c-6.8-2.8-10.9-8.5-11-16l.6-291.6c2.6-.4,4.9-1.1,7.4-1.9s1.4.1,2,0ZM893.3,424.2c32.4-27.6,38.6-101.2,31.1-140.4-4.9-25.7-18.2-73.5-49.3-75.7H196.5c-22.7,1.7-33.1,24.8-40.4,43.5-18,46.2-17,98.4,2.6,143.9,6.5,15.2,16.7,34.6,34.9,37.1l680.8.3c7.6-.7,13.3-3.9,18.9-8.6Z" fill="#f4ca03"/><path d="M142.9,516.7h785.5c2.7-2.4-.4,2.8-.7,3.3-3.3,5.8-11.3,19.2-15.4,23.6s-2.8,2.5-4.5,3.5H165s-3.4-2.6-3.4-2.6l-18.6-27.9Z" fill="#d7af03"/><path d="M142.9,200.7v-68h783.5l1.5,1.5v65.5l10.5.2,1.5,3.2v291.1c-.7,7.7-3.4,15.1-11.2,17.8l-784.9.2c-3.7-1.8-7.6-3.5-9.8-7.2s-3.1-6.5-3.1-6.9V200.7h10c-2.5.8-4.9,1.5-7.4,1.9l-.6,291.6c.1,7.5,4.2,13.2,11,16l782.5.5c9.9-.9,5.9-7,7.7-8.9s2.2.4,2.9-.7.9-4.5,1-5.8V202.3c-.3-1.6-9.7,1.2-11.6-3l-1.4-64.6H146.4c-.3,0-1.4-1.4-2.5-1l-1,67Z" fill="#d7af03"/><path d="M132.9,178.7c-.7-2.3-2.4-4.6-2-7.5v-80.5s6.5-1,6.5-1h370.1c2.8-.8,3,2.3,3.6,2.8,2,1.2,41.9.9,46.3.3s1.7-3.7,4.9-3.2l372.6.5c2.9,1.1,4.9,3.8,5,7-1.5,30.2,3.7,61.2-4,90.5l-3-7c1,2.9-.8,6.2-1,8v-57.5s-2-3-2-3l-786.5-.5-4.5,1.7c1.6,18.5-2.1,38-1,56.3l-2,2c.3-3.3-2.2-6.4-3-9Z" fill="#d7af03"/><path d="M132.9,178.7c.8,2.6,3.3,5.7,3,9l2-2c.1,2,2,6,1,9h-3s-3-16-3-16Z" fill="#d7af03"/><path d="M931.9,188.7c.2-1.8,2-5.1,1-8l3,7c-.8,2.9,1,8.2-4,7,.1-2-.2-4.1,0-6Z" fill="#d7af03"/><path d="M893.3,424.2c-5.6,4.7-11.2,8-18.9,8.6l-680.8-.3c-18.3-2.5-28.4-21.8-34.9-37.1-19.6-45.6-20.6-97.7-2.6-143.9s17.7-41.7,40.4-43.6h678.6c31.1,2.4,44.4,50.2,49.3,75.9,7.5,39.3,1.3,112.8-31.1,140.4ZM894.9,418.7c6-5,13.8-23,16.8-30.7,16.8-43.6,16.7-93.6-.3-137.2-5.5-14.2-14.5-34.2-30.3-38.7-229.4-2.5-459.5-1.3-689-.6-17.5,4.2-26.7,25-32.7,40.3-15.3,39-16.5,81-5.2,121.2,4.5,16,17.6,52.1,35.6,56.4l686.6.5c6.8-.6,13.6-4.6,17.5-10,.4-.3.7-.7,1-1Z" fill="#110c05"/><path d="M893.9,419.7c-4.6,3.3-12.8,7.5-18.5,8-227.1.2-452,0-679.1,0-6.1-.4-12.2-2.9-16.7-7-7.4-6.8-14.5-22.3-18.3-32-18.5-47.2-17.2-105.6,6.1-150.9,6.3-12.3,13.7-23.4,28.8-25.2l682.6.5c6.8,1.8,8.9,3.3,13.4,7.6,9.8,9.4,17.9,30.2,22,44,3.5,11.5,5.8,23.9,6.5,36-2.9.5-1.6-.6-2.1-2.3-1.9-6.8-2.5-14.6-4.4-21.7-5-19.4-18.3-60.7-43-61-14.3-.2-29.5,1.2-44,1-28.1-.3-59-3.5-87-1.1s-14,3.2-14.5,10.5v188.1c1.8,8.8,6.4,9.9,14.5,10.5,43,3.1,89.6-2.4,133,0,3.3-.4,10.1-3.2,12.8-5s.6-2,.7-2c19-14.5,28.6-54.2,32-77.5.3-1.7-.5-1.7,2-1.5-.3,12.4-3.4,25.6-7,37.5s-6.7,21.2-12.3,28.8l-6.7,13.7c-.3.3-.6.7-1,1ZM342.9,263.7c1.7-1,1-3.8,1-5.5.1-9.5,1.3-25.3,0-33.9s-4.8-7.2-9.9-8.1c-43.2,1.8-90.8-3.9-133.5-.4-7.9.6-16.8,3.4-20.5,11-.4.3-.7.7-1,1-5.2,4.7-6.7,8-9.9,14.6-19.4,41.3-22.5,87.4-9.4,131.1,4.4,14.5,14.2,41.8,28.4,48.6,8,3.8,11.6,2.1,19.6,2,41-.6,82.6.2,123.8-.4,1.7,0,4.4.6,5.5-1,.3,0,.7,0,1,0,2.4-.5,5.5-2.9,6-5.5,0-13,.2-26,0-39,0-1.7.6-4.4-1-5.5,0-2.3,0-4.7,0-7v-98c0-1.3,0-2.7,0-4ZM704.9,417.7c2.3-1.8,4.5-1.4,4-6.5v-181.1c-.6-6.8-5-13.5-12.5-13.5h-321.1c-5.5,0-9.6,2.9-12.9,7.1l-.6,188.5c.2,6,5.3,12.5,11.5,12.5,107.8,0,216.1-2.1,324.1-1,6.4-.6,5.6-1.3,7.5-6Z" fill="#f4ca03"/><path d="M894.9,418.7l6.7-13.7c5.6-7.6,9.5-19.4,12.3-28.8s6.7-25.1,7-37.5c-2.5-.2-1.7-.2-2,1.5-3.5,23.3-13.1,63-32,77.5.3-.2,4.1-4.8,4.8-5.7,33-42.5,32.2-115.4,11.3-163-6.5-14.8-12.5-29.7-30.6-31.4h-135.1c-4.3.6-7.6,4.1-9,8v190.1c1.4,4.6,5.3,6.9,10,7,42.7-2.5,88.8,3.1,131.1,0,6.3-.5,7.7-1.9,12.3-4s4.3-.6,5.2-1.1c0,0,.3,1.4-.7,2-2.7,1.8-9.5,4.6-12.8,5-43.4-2.3-90,3.1-133,0-8.2-.6-12.7-1.7-14.5-10.5v-188.1c.5-7.3,8-9.9,14.5-10.5,28-2.4,58.9.8,87,1.1,14.5.2,29.7-1.2,44-1,24.7.3,38,41.6,43,61,1.8,7.1,2.4,14.9,4.4,21.7.5,1.7-.7,2.8,2.1,2.3-.7-12.1-3.1-24.4-6.5-36-4.1-13.8-12.3-34.5-22-44-4.5-4.4-6.6-5.8-13.4-7.6l-682.6-.5c-15.1,1.8-22.5,12.9-28.8,25.2-23.3,45.2-24.6,103.7-6.1,150.9s10.9,25.2,18.3,32,10.6,6.6,16.7,7c227.1,0,452,.2,679.1,0,5.7-.5,13.8-4.7,18.5-8-3.8,5.5-10.7,9.5-17.5,10l-686.6-.5c-18-4.2-31.2-40.3-35.6-56.4-11.3-40.3-10-82.2,5.2-121.2,6-15.4,15.1-36.1,32.7-40.3,229.5-.7,459.6-1.9,689,.6,15.7,4.5,24.7,24.5,30.3,38.7,16.9,43.6,17.1,93.6.3,137.2-3,7.7-10.7,25.7-16.8,30.7ZM921.9,305.7c-2.8-.6-2.2,1.4-2,3.5.4,3.6.6,7.5,1,11s.8,3,2,1.5l-1-16ZM920.9,336.7v-3h-1v3h1Z" fill="#d7af03"/><path d="M704.9,417.7c.9-2.4,2.2-4.7,2-7.5-3.2-58.7,4.2-121.9,0-180.1s-4.2-11.1-12.5-12.5h-317.1c-9.1.9-14.3,6.4-14.5,15.5v175.1c.2,7.5,4.4,14.3,12.5,14.5h318.1c4.9,0,7.9-2.4,11.5-5.1-1.8,4.7-1.1,5.5-7.5,6-108-1.1-216.2.9-324.1,1-6.3,0-11.4-6.4-11.5-12.5l.6-188.5c3.3-4.1,7.4-7,12.9-7.1h321.1c7.5,0,11.9,6.7,12.5,13.5v181.1c.5,5-1.7,4.7-4.1,6.5Z" fill="#d7af03"/><path d="M178.9,227.7c-2.6,6-6.5,11.4-9.2,17.3-18.7,41.2-21.5,86.2-8.1,129.4s16.2,46.1,36.8,48.2h138.5c-1,1.7-3.8,1-5.5,1-41.3.5-82.8-.2-123.8.4-7.9.1-11.6,1.9-19.6-2-14.2-6.8-24-34.1-28.4-48.6-13.1-43.7-10-89.9,9.4-131.1,3.1-6.6,4.7-9.9,9.9-14.6Z" fill="#d7af03"/><path d="M179.9,226.7c3.7-7.6,12.6-10.3,20.5-11,42.7-3.5,90.4,2.2,133.5.4,5.1,1,9,2.5,9.9,8.1,1.3,8.7.2,24.5,0,33.9s.6,4.4-1,5.5c0-11.1,1.4-27.1,0-37.4s-2.3-7.9-5.6-8.4l-139.8-.2c-7.5.8-12,4.3-17.5,9Z" fill="#d7af03"/><path d="M342.9,365.7c.2-32.6.2-65.4,0-98v98Z" fill="#d7af03"/><path d="M337.9,422.7c1-1.2,2.6-1.7,3.4-3.1,3-4.8,1.5-38.6,1.6-46.9,1.7,1,1,3.8,1,5.5.2,13-.1,26,0,39-.5,2.6-3.5,5-6,5.5Z" fill="#d7af03"/><path d="M921.9,305.7l1,16c-1.2,1.6-1.8,0-2-1.5-.4-3.6-.6-7.4-1-11s-.8-4.1,2-3.5Z" fill="#f4ca03"/><rect x="919.9" y="333.7" width="1" height="3" fill="#f4ca03"/><path d="M197.9,222.7l-12.2,19.3c-28.8,51.6-27.1,109.5,2,160.3,2.1,3.6,8.1,11.2,9.2,13.8,1.6,4.2-6.5-.8-7.5-1.5-18.3-13.8-30.3-64.2-31.6-86.4-1.6-28.3,7.2-66.9,21.9-91.2,4-6.6,9.7-14.2,18.2-14.3Z" fill="#d7af03"/><path d="M704.9,417.7c-3.6,2.7-6.6,5.1-11.5,5h-318.1c-8.1-.2-12.2-7-12.5-14.5v-175.1c.2-9.2,5.4-14.7,14.5-15.5h317.1c8.3,1.4,11.9,4.2,12.5,12.5,4.2,58.2-3.2,121.3,0,180.1.1,2.7-1.1,5-2,7.5ZM374.6,221c-3.8.6-6.6,3.4-8.3,6.7l-.5,181.6c0,5.7,3.4,10.7,9.5,10.5l323.3-.8c4-2.4,6.4-5.9,6.3-10.7v-178.1s-6.1-8.9-6.1-8.9l-324.2-.3Z" fill="#110c05"/><path d="M879.3,416.2c-.4.2,0,1.3-1.9,1.6s-4.3.5-3.5-1.5,5.7-7.8,7.4-10.6c29.2-48.9,33.7-104.1,8.1-155.9l-16.5-28c14.9,4.4,22.1,21.7,27.5,35,11.2,27.8,15.7,58.4,11.3,88.2s-15.2,61.1-32.3,71.2Z" fill="#d7af03"/><path d="M374.6,221l324.2.3,6.1,8.9v178.1c0,4.8-2.3,8.3-6.3,10.7l-323.3.8c-6.1.1-9.5-4.8-9.5-10.5l.5-181.6c1.7-3.3,4.5-6.1,8.3-6.7ZM697.7,223c-4.3-1.7-17.1-1.3-22.2-1.3-69.4.2-139.4.4-209,1-31.2.3-62.4-.7-93.5.5-7.8,5.6-4,15.3-4,23,.2,30.7.2,62.1,0,93s-3,45.7-1.1,68,1.4,7.3,5.1,9.9l320.5.6c8.4.2,9-8,9.5-14.5,2.9-40.6-.5-87.9-1.1-129s1.7-30,0-44.1c-.2-2.1-2.7-6.6-4.3-7.2Z" fill="#d7af03"/><path d="M697.7,223c1.5.6,4,5.2,4.3,7.2,1.7,14-.3,29.8,0,44.1.6,41.1,4,88.4,1.1,129-.5,6.6-1.1,14.8-9.5,14.5l-320.5-.6c-3.7-2.6-4.7-5.5-5.1-9.9-1.9-22.3.9-45.8,1.1-68s.2-62.4,0-93-3.8-17.4,4-23c31.1-1.2,62.4-.2,93.5-.5,69.5-.6,139.5-.8,209-1,5.2,0,17.9-.5,22.2,1.3ZM381.6,229c-3.8,1.1-5.9,4.3-5.8,8.2v167.1c0,3.5,2.3,5.4,5.1,6.9l303.5.6c2.6,0,8.8-1.7,10-4s1.6-11,1.6-12.5c.2-44.5-.4-90.4-1.1-135s1.3-20.5,0-27c-.6-3.4-4.5-4.7-7.4-4.6l-305.8.3Z" fill="#f4ca03"/><path d="M381.6,229l305.8-.3c3,0,6.8,1.2,7.4,4.6,1.2,6.5-.1,19.5,0,27,.7,44.5,1.3,90.4,1.1,135,0,1.5-1.2,11.8-1.6,12.5-1.1,2.4-7.4,4-10,4l-303.5-.6c-2.8-1.6-5.1-3.4-5.1-6.9v-167.1c-.2-3.9,2-7.2,5.7-8.2Z" fill="#f1efd4"/><path d="M886.9,417.7c-.9.4-3.6.3-5.2,1.1-4.6,2.1-6,3.5-12.3,4-42.3,3.1-88.4-2.4-131.1,0-4.7,0-8.6-2.4-10-7v-190.1c1.4-3.9,4.7-7.4,9-8h135.1c18.1,1.6,24.2,16.6,30.6,31.4,20.8,47.6,21.7,120.5-11.3,163-.7.9-4.5,5.5-4.8,5.7ZM879.3,416.2c17.1-10.1,29.5-52.2,32.3-71.2,4.4-29.8,0-60.4-11.3-88.2-5.4-13.4-12.5-30.6-27.5-35l16.5,28c25.6,51.8,21.1,107-8.1,155.9-1.7,2.8-6.6,8.4-7.4,10.6s2.2,1.7,3.5,1.5c1.9-.3,1.5-1.4,1.9-1.6ZM731.9,409.7c0,6.2,1.2,8.4,7.5,9h127c1.6.2,2.4-.5,3.5-1.5,2.4-2.2,11.4-17.7,13.5-21.5,16.8-31.2,23.5-68.1,17-103.1-4.8-25.6-16.9-48.3-31.5-69.5l-135.1.9-.9,5.6c5.4,0,11,1,16.2,2.3,12.5,3.1,26.7,10,35.8,18.2,12.4,11,21.8,23,27.3,38.7,7.1,20.2,6.9,43.6-.8,62.8-12.8,31.8-44.7,56.8-79.5,58ZM731.9,371.7v33.5c0,.6,1.5,1.4,2.4,1.5,2.2.2,17.8-4.1,20.9-5.2,23.8-8.1,42.2-26,51.9-49.1,23.1-55.1-16.1-116.3-75.2-118.7v33c64.8,6.6,65.1,98.8,0,105ZM767.9,292.7c-.2-.3.1-1.9-.6-2.9-8.1-10.9-21.5-19.1-35.4-19.1v6c11.9.3,28.1,9.9,34,20s4.8,11.2,5,12c.4,1.8.7,5.7,1,8s-.2,4.7,0,7c-1.6,1.4-.7,3.5-1,5-.7,3.5-4.1,11-6,14s-4.4,5.9-5.5,7c-1.8,1.8-9.8,6.6-10.2,7.3s0,2.5-.3,2.7c-.3.3-2.3-.8-3.3-.7-3.8.4-8.2,3.5-12.7,3.1l-.9,5.6c2.7.1,5.3,0,8.1-.5,6.9-1.4,21-10.1,25.5-15.5s2.3-4.9,3.5-7,5.9-8.6,6.9-11.8c4.2-13.5.9-28.5-6.2-39.8-.4-.6-1.6-.3-1.7-.4ZM732.9,280.7c0,2.6-.9,4.9-1,7.5-1.5,19.9-.9,48.3,0,68.5,0,.7,0,1.3,0,2,34.2-2.7,49.5-46.2,22.5-69-4-3.4-13.2-8.9-18.2-9.8s-3-.9-3.3.8Z" fill="#110c05"/><path d="M731.9,409.7c34.8-1.2,66.7-26.2,79.5-58,7.7-19.2,7.9-42.5.8-62.8-5.5-15.8-14.9-27.7-27.3-38.7-9.1-8.1-23.3-15.1-35.8-18.2-5.2-1.3-10.9-2.4-16.2-2.3l.9-5.6,135.1-.9c14.6,21.2,26.7,43.9,31.5,69.5,6.5,34.9-.2,71.9-17,103.1-2.1,3.9-11,19.3-13.5,21.5s-1.9,1.7-3.5,1.5h-127c-6.3-.7-7.5-2.8-7.5-9Z" fill="#9e9e97"/><path d="M731.9,371.7c65.1-6.2,64.8-98.4,0-105v-33c59.1,2.4,98.3,63.6,75.2,118.7-9.7,23.1-28.1,41-51.9,49.1-3.1,1.1-18.7,5.3-20.9,5.2s-2.4-.8-2.4-1.5v-33.5Z" fill="#5e605a"/><path d="M732.9,280.7c.2-1.7,2.1-1,3.3-.8,5,.8,14.3,6.4,18.2,9.8,27,22.8,11.7,66.3-22.5,69,0-.7,0-1.3,0-2,3,.6,1.9-1.5,2-3.5.9-21.8.2-45.1,0-67.1,0-1.7.6-4.4-1-5.5Z" fill="#9e9e97"/><path d="M767.9,292.7c0,0,1.3-.2,1.7.4,7.2,11.4,10.4,26.3,6.2,39.8-1,3.2-5.2,8.8-6.9,11.8-.5-1.8-2.3-2.2-4-2,1.9-3,5.3-10.5,6-14h2c1-1.9-1-4.7-1-5-.2-2.3.3-4.8,0-7,3.1-2.3,1.9-5.8,1-9l-2,1c-.2-.8-4.5-11.1-5-12l2-4Z" fill="#9e9e97"/><path d="M767.9,292.7l-2,4c-5.9-10.1-22.1-19.8-33.9-20v-6c13.8,0,27.3,8.2,35.4,19.1s.4,2.6.6,2.9Z" fill="#9e9e97"/><path d="M768.9,344.7c-1.2,2.1-.9,3.9-3.5,7-4.4,5.4-18.5,14.1-25.5,15.5-2.7.5-5.3.6-8.1.5l.9-5.6c4.5.4,8.9-2.7,12.7-3.1,1-.1,3.1,1,3.3.7s-.3-1.8.3-2.7,8.5-5.6,10.2-7.3,4.7-5.7,5.5-7c1.7-.2,3.5.2,4,2Z" fill="#9e9e97"/><path d="M732.9,280.7c1.7,1,1,3.8,1,5.5.2,21.9.8,45.3,0,67.1,0,1.9,1,4-2,3.5-1-20.2-1.5-48.6,0-68.5.2-2.5,1.1-4.9,1-7.5Z" fill="#9e9e97"/><path d="M771.9,316.7c-.3-2.3-.6-6.2-1-8l2-1c1,3.2,2.1,6.7-1,9Z" fill="#9e9e97"/><path d="M771.9,323.7c0,.3,2,3.1,1,5h-2c.3-1.5-.6-3.6,1-5Z" fill="#9e9e97"/><path d="M179.9,226.7c5.5-4.7,10-8.2,17.5-9l139.8.2c3.3.5,5.2,5.4,5.6,8.4,1.5,10.4,0,26.3,0,37.4s0,2.7,0,4c.2,32.6.2,65.4,0,98s0,4.7,0,7c0,8.3,1.4,42.1-1.6,46.9s-2.5,1.9-3.4,3.1c-.3,0-.7,0-1,0h-138.5c-20.6-2.1-31.4-31.1-36.8-48.2-13.4-43.3-10.6-88.2,8.1-129.4s6.6-11.3,9.2-17.3c.3-.3.6-.7,1-1ZM197.9,222.7c-8.4.1-14.2,7.7-18.2,14.3-14.7,24.3-23.5,62.9-21.9,91.2,1.3,22.2,13.3,72.7,31.6,86.4s9.1,5.7,7.5,1.5-7.1-10.3-9.2-13.8c-29.1-50.8-30.8-108.8-2-160.3l12.2-19.3ZM337.9,225.7l-1.7-2.8h-134.2c-6.2,10.5-13.7,20.4-18.9,31.6-25.4,54.8-17.9,116.9,19.7,163.7l128.5.6c4.6-.4,6.5-.8,6.5-6-7-.8-16.5-.8-23.3-2.2-51.5-11.1-78.8-68.4-67.7-118.1.2-1,4.8-8.8,5.5-11.7s-.8-3.3-.5-3.8,2.3-.8,3.4-2.2c4.7-6,7.3-12.9,13-19,16.8-17.9,44.9-30.7,69.5-30ZM337.9,266.7v-36.5c0-.6-1.5-1.4-2.4-1.4-2-.1-12.1,1.7-14.8,2.2-96.3,18.8-98.9,156.4,4.6,176.8,3.6.7,9.6,4.4,12.6,1.4v-36.5c-39.7-2.7-65-42.6-45.5-79s27-26.8,45.5-27ZM289.9,311.7c-1.1,10.6.2,16.5,4,26s1.1,4.3,2.6,6.9c8,14.5,25.1,23.2,41.4,24.1v-6c-2.1,0-4.2.2-6.3-.2-13.9-3.2-24.2-10.2-31.7-22.8s-4.3-7.6-4.9-12.6.2-11.1-.1-16.4c2.7-1.3,2.3-5.7,3.8-8.7,4.8-9.6,13.7-19.2,24-23,3-1.1,15.3-2.6,15.8-3.2.9-1.2.8-4.7-.5-5.6-2.8-2-20.4,5.1-24.1,7-11.9,6.4-22.5,21-24,34.5ZM337.9,279.7c-11.4-.3-22.9,5.8-30,14.5-22,26.9-2.9,62.7,30,65.5v-80Z" fill="#110c05"/><path d="M337.9,225.7c-24.6-.7-52.7,12-69.5,30s-8.3,13-13,19-3.3,2-3.4,2.2c-.3.6.8,2.3.5,3.8-.7,2.9-5.3,10.7-5.5,11.7-11.1,49.7,16.2,106.9,67.7,118.1,6.7,1.5,16.2,1.5,23.3,2.2,0,5.2-1.9,5.7-6.5,6l-128.5-.6c-37.6-46.8-45.1-108.9-19.7-163.7,5.2-11.2,12.6-21.1,18.9-31.6h134.2s1.7,2.8,1.7,2.8Z" fill="#9e9e97"/><path d="M337.9,266.7c-18.5.2-36.8,10.6-45.5,27-19.5,36.4,5.8,76.3,45.5,79v36.5c-3,3-9-.7-12.6-1.4-103.5-20.5-100.9-158-4.6-176.8s12.9-2.3,14.8-2.2,2.4.8,2.4,1.4v36.5Z" fill="#5e605a"/><path d="M337.9,279.7v80c-32.8-2.8-52-38.6-30-65.5,7.1-8.7,18.5-14.8,30-14.5ZM334.9,356.7v-76h-1v76h1Z" fill="#9e9e97"/><path d="M289.9,311.7c1.5-13.6,12.1-28.2,24-34.5,3.7-2,21.3-9,24.1-7s1.4,4.4.5,5.6-12.8,2.1-15.8,3.2c-10.3,3.8-19.2,13.4-24,23s-1.1,7.4-3.8,8.7-3.5.8-5,1Z" fill="#9e9e97"/><path d="M293.9,337.7h1.3c1,2.4,2.2,2.3,4.7,2,7.6,12.5,17.9,19.6,31.7,22.8s4.2.2,6.3.2v6c-16.3-.8-33.4-9.5-41.4-24.1-1.4-2.6-1.6-4.6-2.6-6.9Z" fill="#9e9e97"/><path d="M294.9,310.7c.3,5.3-.5,11.1.1,16.4s2.6,8.8,4.9,12.6c-2.5.3-3.6.4-4.7-2h-1.3c-3.8-9.5-5.1-15.4-4-26,1.5-.2,3.7-.3,5-1Z" fill="#9e9e97"/><rect x="333.9" y="280.7" width="1" height="76" fill="#9e9e97"/><path d="M406.2,339.4c3.3-14.6,8-33.8,12.3-45.7,2.7-6.9,2.6-6.7,2.6-6.7-.2,0-2.7,6.3-4.5,11.5.7-2.6,1.6-5,2.6-7.3.6-2.1,1.5-4.3,1.7-5.2q.2-1.1,0-.7c-.2.3-.4.3-.4.4q-.2,0-.2-.1l.2-.7h-2.5c-3.8,0-11.6.9-12.8,1.1-.1,0-.4.4-.4.4,0,.4-.9.6-1.6.6-1.4,0-2.2-.1-2.5-1,0-.3-.1-.4-.1-.4-.2,0-.2-.3-.2-1s0-.6-.4-.6-.1-.1,0-.4c.4,0,.4-.1.4-.1-.4,0-.4-.4,0-.7.2-.1,0-1.1-.5-1.1s0,0,.1-.6q.7-.6.4-.4t-.4-.1,0-.7c-.4-.1,1.2-.9,3.2-1.7,3.9-1.3,9.2-1.4,18.8-1.4s11.2,0,15.6.7c3.9.7,5.5,1.1,5.8,1.1q.4,0,.4.4h.5c.2,0,.7.1,1.1.1.2.3,1.1.3,2,.6,1,0,1.6.1,1.6.1,0,.3.1.7.4.7.4,0,.4.4,0,.4s-.2,0,.2.1c.1.3.4.6.4,1,0,0,0,.3.1.3.4,0,.4.3-.1.4l-.6.3.4.4c.4,0,.7.1,1,.1q.1.3,0,.7-.2.6,0,.6c.4.4.1,2.7-.2,3.3-.5.9-.9.9-5.9,0-4.7-.9-9.8-1.3-13.4-1.6h-2.3l-.5,1.1c-.5,1-1.6,4.6-2.7,7.6-4.4,11.2-8.7,28.2-10.9,38.4-1.7,6.2-3.6,14-4.1,16.8-.2,1.4-.2,2-.6,2.4-.5.6-1.4.6-1.4.4h-.4s-.2,0-.2.1c-.2,0-.5,0-.5-.6v-.4c-.1,0-.4.4-.4.4,0,.6-.2.6-.2.4q-.1-.4-.1,0c-.6.4-.6,0-.6-1.4s-.1-1.9-.6-.3c0,.6-.2,1.3-.6,1.3-.1.4-.4,0-.4-1.9q-.2-.6-.4.1c0,1-.4,1.3-.6,1q0-.3-.1,0l-.2.3c-.2,0,0-2.9.4-5.2.6-1.4,1-4.2,1.4-6,1.8-8,4.1-17,6.4-25.8-.4,1.7-.9,3.3-1.1,4.7-1.2,4-5.3,22.9-5.3,23.3,0,.7.4-.1,1.2-4.2ZM404.5,278c-1.2.4-2.6,1-2.9,1.3-.7.3-.5.3,1.1-.3,1.4-.6,5.2-1.1,7.6-1.4.9-.3,1.7-.3,2-.3.5,0,3.8-.3,7.3-.3s6.8-.3,6.8-.3c.1,0-13.5.3-14.9.3-3.7.6-5.2.9-6.9,1ZM437.3,278c-10.2-1.3-25.6-1-32.4.9-1.6.4-3.3.9-3.3,1.1,0,.4-.2.4,2.2-.4,5.3-1.1,11.3-1.7,20-1.6,7.6,0,16.2,1,18.8,1.7.6.3,3.2.3,3.1,0-.2,0-5.8-.9-8.4-1.7ZM422.8,279h-5.2c-6.6.3-12.5,1-14.4,1.9-1.2.4-.4.4,1.8,0,2.6-.4,6.6-.9,12-1.1,4.4-.1,6-.4,5.7-.7ZM420.1,292.9c1.8-4.7,2-6,1.5-5.3-.5.6-3.6,8.6-5.3,13.8-3.1,9-10.1,37.5-10.4,41.5q0,.7.4-.7l1.2-4.6c3.2-14,7.9-32.5,12.7-44.7ZM408.3,338.7c-.1.3-.2.9-.2,1q-.2.4,0,.1s.2-.4.2-.7v-.4ZM422.8,289h-.5c-.2.3-4.1,10.6-5.4,14.5-2.7,8-9.1,35.1-8.2,33.9.1-.3.7-1.9,1.1-3.7.6-1.9,2.9-13.6,3.8-15.5,1.7-7.9,4.1-14.6,7.6-24.9,1.4-3.3,1.8-4.3,1.6-4.3ZM416.3,299.3l-1,2.7c-1.1,3.4-2.6,8.6-3.9,13.5,1.6-5.6,3.2-11,4.9-16.2ZM422.8,284.6c-.2,0-.7,1.9-.7,2,0,.3,0,0,.5-.9.2-.4.5-1.1.2-1.1ZM426.3,279c-.2,0-.5.3-.5.6h.2c.2.1.2,0,.4,0q.4-.6-.1-.6ZM427.6,277c.2,0,.2-.3.2-.3h-.5c-.2,0,0,.3.2.3ZM441.3,280.5c-.4-.1-7.5-1-11.6-1.3-1.8-.3-2.3-.3-2.3,0s.2.3,1,.4c1.8,0,9.1.7,10,.9,1.7.3,3.1.3,2.9,0ZM428.9,277l1.5.3h2.2c-.2-.3-1.1-.3-2.2-.3h-1.5Z"/><path d="M427.9,333.8c.7-2.3,1.4-4.7,1.4-4.7,0-.3-.1-.3-.5-.7-.7-.1-1.4-1.4-1.2-1.7.2,0,0-.3-.1-.4-.4-.3-.4-.4,0-.6.4-.7.4-.9,0-1-.5-.3-.5-.4.1-1,.4-.3.5-.4.4-.4h-.6c-.4,0-.4-.1-.2-.6.2,0,.7-.1,1.4-.1h3.1l1.5-4.3c2.3-6.7,4.2-11.2,6.4-16.9,3.2-7.4,3.6-7.9,2.6-6.9-.2.1-.5.7-.5.6,0-.4.5-1.1,1-1.7l.6-.9-.7.6c-.4.4-.6.9-.7.9s1-1.7,1.7-2.1l.5-.4-.4.6q-.1.4.1,0c.5-.4.7-.1.4.4q-.1.4.4,0c.6-.4.9-.4.6,0-.1.4.4.7,1.1.6.2,0,.5,0,.5.1,0,0,0,.3.4.4.5.3,1.1,1,1.4,2,.1.6,0,2.1-.6,3.3-.1.1-.2.9-.5,1.1-.1.4-1,3-1.8,5.2-2.8,6.4-5.9,14.8-6,15.8q-.2.6.6.3c.4,0,1.1-.1,1.6-.1s1.6-.1,2.5-.4l6.4-.4c3.6-.3,4.7-.3,4.7-.6,0,0,.7-1.6,1.4-3.9.9-2,2.5-6.2,3.6-9.2,2.1-5,3.2-8.5,3.2-8.7,0,0-.1,0-.2.3l-.4.3.5-1.1c-.7.6-.5.1.4-1.4.6-1.3,1.6-2.3,1.5-1.7q-.1.4.1.3t.2.1c-.2.7,0,.7.5.1.5-.3.5-.1.6.6,0,.6.2.6.7.3q.2-.3.6.1c.2.1.4.4.5.4.4,0,1.1.7,1.4,1.6.2.4.2.7.2,1.3-.2,1-1.7,5.3-5.8,15.8-.6,2.1-1.4,3.9-1.5,4.3l-.4.6h1.4c.9,0,1.4,0,1.4.3-.1.1.1.3.4.3q.4.3.1.4-.4.3.2.4c.2.1.5.4.1.6q-.1,0,.1.1.2.3,0,.4c-.1.3,0,.4.5.6.7.4.9.6.4.7,0,0,0,.3.4.4.1.4.2.9.2,1.9s0,1.1-.6,1.6c-.4.3-.9.3-3.8.6-2.2,0-3.7.1-3.7.1-.2,0-2.6,7.4-3.3,9.6-1.6,5-3.3,11-3.3,12s.1.4.7.4q.5-.3.5.1c0,1-.9,2.9-1.6,3.7-.2.6-.5.6-1.5.6s-1,0-1-.1c0,0-.2-.3-.4,0-.2,0-.4,0-.4-.3,0,0,0-.1-.1-.1-.4,0-.5-.3-.6-.4-.2-.4-.4-.4-.6-.1q-.5.3-.6-.4c-.4-2.6,2.1-12.3,5.5-22.2.7-2.1.7-2.3.5-2.3-.4,0-.9,1.1-2.8,7.6-2,6.3-3.7,13.2-3.7,15.8s0,.7-.2.7c-.2-.6.6-5.3,1.7-10.3.9-2.6,2-6.2,3.2-9.6.5-1.9,1-3.6,1-3.7.2-.3.2-.4.2-.4-.2,0-.7,1-1.1,2.6-2.5,7.6-4.4,14.5-5.2,18.3-.1,1.4-.4,2.7-.4,2.7-.1.3,0-1.7.2-3.4.9-4,2.8-11.2,5-17.6.2-1.4.6-2.4.6-2.4,0-.1-.6,0-1.1,0-1.2.3-1.6.3-1.2-.1.1,0,.1-.1.1-.1-.1,0,.2,0,.4-.3.7-.1.4-.1-2.7-.1s-4.1.1-5.4.4c-1,0-2.7.1-3.4.1h-1.8c0,.1-.4,1.6-.4,1.6l-3.1,10.2c-.6,2.6-.6,3.3-.4,3.2,1.7-.6,2-.1.2,2.7-1.1,1.7-2.3,2.1-4.1,1.6-.1-.1-.5-.4-.5-.4-.2,0-.4-.1-.5-.3q-.2-.4-.5-.3c-1.6,1.6-.2-5.4,2.7-15,.7-2.4.7-2.6.5-2.6-.4,0-.7,1.1-1.8,5.2-1.6,5.4-2.1,7.6-2.5,10.2q-.1,1.3-.1.6c-.1-1.7,1-6.2,2.8-12.3.6-2,1.1-3.7.9-3.7-.2-.4-4.1,13.9-4.1,16s-.1.4-.1.4c-.4-.9.5-4.7,2.3-11.5ZM430.5,332.1c-1.8,6.3-3.2,12.3-3.1,13.2.1.3.4.1.5-.9l.5-2.7c.5-2,1.6-5.7,2.8-9.6.9-3,.9-3.3.5-3.2-.1,0-.5.6-1.2,3.2ZM431.6,323.4c.1,0,.4-.1.4-.1,0-.1-.2-.1-.2-.1,0,0-.1,0-.1.1h0ZM431.9,322.4c0,.7.4-.7,1.1-3.3,2-5.2,4.8-12.5,7-17.6,1.1-2.7,2-5,2-5,0-1-4.2,9.3-7.4,17.8-1.2,3.6-2.7,7.9-2.7,8.2ZM432.5,323.1h-.2q0,.1.1.1c.1,0,.1-.1.1-.1ZM437,309.9c-1.7,3.7-4.5,11.7-4.5,12.2s.4.3.5-.1c.1,0,.4-.6.4-.9,1.5-4.4,4.7-12.7,7.3-18.6,1.7-4.7,2.3-5.9,1.7-5.4-.2.3-3.9,9-5.3,12.9ZM433.9,323.1q0-.4-.1-.4c-.1,0-.4,0-.4.4,0,0,.2.1.4.1s.1-.1.1-.1ZM433.9,320.9l-.2,1.1h.5c.1-.1.5-.6.9-1.7.2-1,.9-2.1,1-2.9,2.5-6.9,3.7-10.2,5.5-14.3,2-4.9,2.3-5.4,2-5.4s-7.1,16.2-9.6,23.2ZM453.8,322.1c-.1-.1-15.5,1.3-15.6,1.7q-.2.3,2.3-.1c1.4,0,2.8-.3,3.2-.3s2.7-.1,5.3-.3c4.2-.4,5.2-.6,4.8-1ZM438.4,322.4c0,.1.7,0,3.6-.3.9,0,2.2-.1,3.2-.1,1.7-.3,2.9-.4,7.3-.6,1.4-.3,1.8-.3,1.8-.4.1-.3-1-.4-3.8-.1.1,0,.1-.3.1-.3q0-.1-.1-.1s-.2,0-.2.1l.2.3c-1.2.1-2.6.4-4.4.6-5.4.3-7.6.7-7.6,1ZM454.3,328.2c-.4,0-.5.1-2.3,5.9-2.7,8.6-4.7,17-4.2,17.8.1.1.5-.7,1-3.2.5-3.3,2.2-9.6,4.5-16.6.6-2,1.2-3.7,1.2-3.7q0-.1-.2-.1ZM451,320.4c-.2.1,3.2,0,3.3,0,.2-.3-.4-.3-1.5-.3s-1.8.3-1.8.3ZM454.3,322.1c-.1,0-.4.6-.1.6s.1-.1.4-.3c0-.3,0-.4-.2-.3ZM454.8,321.4c.1,0,.1-.3.4-.4h0c-.2-.1-.4-.1-.4,0v.4ZM455.2,322.1c-.2,0-.4,0-.4.3s.5.3.5,0,0-.3-.1-.3ZM455.8,320.5c-.1,0-.2.3-.2.3-.2.3.2.3.5,0,0-.3,0-.4-.2-.3ZM455.5,319.5l1.1-2.6,3.4-9.3c2.5-6.4,2.9-8,2.8-7.7-.1,0-1.7,4.3-4.1,10.2-3.1,7.7-3.6,9.7-3.3,9.5ZM455.8,319.5s.2.3.4.3,1.4-3.2,3.1-8.2c1.8-4.3,3.3-8.5,3.7-9.2.5-1.6.6-2.6.4-2.1-.2.4-7.5,19-7.5,19.2ZM456.9,322.1q0-.1-.2-.1c-.1,0-.6.1-.6.6s.9-.1.9-.4ZM457.4,320.8c.1-.4-.5-.4-.7,0,0,.1,0,.3.4.1.1,0,.4-.1.4-.1ZM460.2,311.5q-3.2,8.3-2.7,8c.1,0,.5-.6,1.2-2.6l3.4-8.9c1.2-3.4,2.2-6.6,2.2-6.7,0-.4-1.1,2.6-4.2,10.2ZM461.7,320.5c0,.3.2.3.4.3s.4-.3.4-.3h-.7ZM463,320.8c-.1.1,0,.1.5,0q.4-.3,0-.3c-.2,0-.5,0-.5.3ZM463.3,296.4c0,.1.1.1.2-.3-.1,0-.2.3-.2.3Z"/><path d="M484.3,343.9c-1.6-3.2-2.9-7.2-4.8-13.6,0-.3-1.5,5.3-2.2,8.5-.2,1-.5,2.7-.7,4.4-.1,1.3-.4,2.4-.6,2.7-.5,1.4-.6,2.7-.6,3,.4.1.1,1.1-.2,1.7-.5.3-1.1.6-1.6.3-.7,0-.7-.3-.9-2-.5-3.4-.2-7.7.9-11.9.2-1.1.5-2.3.2-2,0,0-.5,1-.7,2-1.1,5.6-1.5,9.2-.9,11.6.5,2.6.5,2.3,0,2-.6-.7-1.4-5.2-.9-8,.2-2.6.6-5.3.9-5.6,0-.3.2-.7.2-1.1s.2-1.4.2-1.4c.1-.3.1-.4.1-1,.2-.6.2-1.1.5-1.4.2-.6,2.2-8.3,2.2-8.9s.2-.6.5-.9c.2-.3.2-.6.2-.6,0-.6,3.1-9.6,4.9-15.3,1.2-2.9,1.7-5,1.7-5.3-.1-.3-.4.6-1.2,2.7-1.2,3-4.5,13.2-5.4,16.8-.7,1.7-1.1,3.2-1.1,3.4-.5,1.3-2.5,8.9-3.4,13-1,5.3-1.2,7.6-.9,10.7.2,1.1-.4-1-.6-2.3l-.2-1,.2,1.1c0,.9,0,2,.2,2.1q0,.6-.2,0c-.5-.7-.5-2.6-.2-4.4.2-.7.2-1.9.2-2.1q0-.4.2-.4s.2-1,.4-2c0-.9.2-2,.2-2,.2,0,.2-.7.5-1.4.4-1.6,1.5-6.3,2.5-9.2.2-1.3.5-2.4.5-2.7s.1-.6.1-.6c.2-.1.7-1.7,1.1-3.3.9-3.7,3.3-11,4.7-14.8.5-1.6,1-2.9,1-3.2s-1.1.3-1.8.7l-2.5,1.1c-1.4.6-1.7.6-2.2.3-.2-.3-.4-.6-.4-.6l-.5-.6c-.2-.6-.5-.6-.2-.7q.2-.3,0-.3c-.2,0-.5-.3-.5-.3q-.2-.6.2-1l.7-.7-.7.3c-.9.1-1.1,0-.5-.9l.7-.9h-.7q-.6.3-.2-.3t-.1-.3l-.5.3.5-.4c.6-.9,4.2-2.3,8.7-3.7.5-.3,1.1-.3,1.4-.3s.6-.3,1.1-1.7c.5-.6.6-1,.9-1.6l.5-.3.5.3.5.6.4-.6c.4-.6.6-.6.6.6v.7l.5-.7c.6-.6.9-.6.9,0s.2.1.5.1c.2-.1.7,0,1.2.6l.7.4h4.9c2.8,0,4.9.3,5.4.3q.5.3-.5.3c-2.6-.3-9.1-.3-9.6.3l.2.3h8.2c1.4,0,2.1,0,2.1.1,0,0,.1,0,.1-.1.1,0,.4.1.4,0,.2,0,.2-.3.2-.3-.2,0,0-.3,0-.3,0,0,.2.3.2.6.2,0,.7,0,1.8.1,1.1.3,2,.3,2.5.3s.5.3.2.3c0,.3.9.6,1.1.3,0,0,.2,0,.2.3,0,0,.5.3.9.6.6.4,2.3,1.7,2.3,2s.1.6.1.6c1.6,2.1,2,2.9,2.5,5.2.2,1.4.5,2.1.5,3.7-.2,1.9-.2,2.4-1,3.6-1.2,3.7-5,7.9-11.4,11.5-2.8,2-5.8,3.4-8.1,4.2-1.7.6-5.2,1.1-7.3,1.1h-1.2l.2.4c0,.1.4,1.9.7,3.7,1.6,5.4,3.3,9.5,5.8,13.8l1.2,1.9.2-.6c0-.4.1-.7.2-.7.2,0,1,1.6,1,2.1,0,1.6-1.2,2.6-4.2,2.7-1.2.3-1.7-.1-2.9-1.4-2.3-3.7-5.2-10.7-7.1-18.3-.7-2.4-1.1-3.2-1.1-2.1s2.1,7.7,3.1,10.3c1.2,3,1.8,4.7,3.4,8,.6,1.3,1.4,2.4,1.1,2.4s-.7-1.1-1.7-3.3c-1.8-3.6-3.8-8.6-5-13.6-.5-1.4-.9-2.7-1.1-2.7-.7-1.1,2.6,9.2,4.1,12.7.2.9,1.1,2.9,2.1,4.2.6,1.6,1.2,2.7,1,2.7,0,.1-1.7-3-2.6-5ZM476.4,324.5c0-.3-.7,2.4-2,7-.7,2.9-1,4.3-.2,1.9.2-.9.9-2.9,1.2-5,.7-2,1.1-3.9,1-3.9ZM482.3,294.3c-1.2.3-4.8,1.6-5.3,1.9h-.5c0,.1.5.1.5.1.2,0,1.2-.1,2.2-.4,1-.3,2.1-.7,2.6-1,1-.3,1.2-.9.5-.6ZM484.3,301.6c.1-.3.1-.9.1-.9,0-.1-.6.3-.6.3-3.4,9.5-7,20.9-6.8,21.5q.2.1,1-2.1c.6-2.6,4.7-14.6,6.3-18.8ZM477.3,315.2l-.2.3q0,.6.2.3v-.6ZM482.1,301.3l-.2.3c-.5.7-2.3,6.6-3.4,9.6-.4,1.7-.9,2.9-.9,3.2.4-.7,1.2-3.2,2.2-6.2,1.4-3.7,2.3-6.9,2.3-6.9ZM482.3,296.2s-.5,0-1.7.1c-2.8,1.1-2.6,1.3.2.6.7-.3,1.5-.6,1.5-.7ZM484.9,337.8c-.6-1.9-2.8-8.3-3.3-10.7-.2-.4-.5-1-.5-1-.2,0,0,.9.2,1.4v.6c-.2.3,2.5,8.9,3.8,12.3,1.1,2.9,2.9,6.3,4.3,7.9q.5.6,0-.6c-.2-.1-.7-1.3-1.4-2.3-1.2-2.3-2.2-5-3.2-7.6ZM484.9,312.9c-2.5,6.6-2.6,7.9-2.5,8.2q.2.3.2,0c.1-.3,1.6.3,1.7.9.1.3.4.6.6.6-.1.1-.1.3-.1.3,0,.3,1,.3,2.9-.3,1.1-.3,1.6-.6,1.8-.9.5-.9,2.7-1.9,3.9-1.9l.2-.3c.2-.3.4-.3.5-.3.5-.3,5-2.9,7.1-4.3,2-1.4,4.2-3.4,5.5-5,1.1-1,3.1-3.6,2.8-3.9,0,0-.6.6-1,1.3-1.6,2.3-4.8,5-9,7.9-1.5.9-2.5,1.7-2.5,1.4,0,0,0-.3.5-.3.5-.3,4.8-3.4,6.4-4.9,2-1.9,4.1-3.6,4.3-4.2,0-.3.2-.7.6-1.3,1.4-1.6,1.8-3.2,1.1-4-.5-.4-2.5-1.4-3.8-1.7-3.1-1.3-8.8-1.6-13.9-1-1.7.3-3.2.6-3.2.6,0,0-1.8,4.6-4.5,13ZM484,293s.2-.3.2-.9c.1-.3.1-.4.1-.4l-.4.4c0,.6-.2.9,0,.9ZM484.4,295.6v.3q.2,0,.5-.3c.2-.3,0-.4-.5,0ZM485.2,292.1c0-.3.2-.4,0-.7,0,0,0,.3-.2.7-.2.9,0,.9.2,0ZM485.6,322.5c0-.3.5-.3.6-.6q.4,0,0,.3c-.4.3-.9.4-.6.3ZM486.6,321.9s0-.3.2-.3c0-.3.2,0,.2,0,0,.6-.2.6-.5.3ZM487.9,321.4h-.5l.5-.3c.4-.3.9-.6.6,0-.2,0-.4.3-.6.3ZM489,320.8c.2-.4,2.2-1.3,2.5-1.3,0,.3-1.5,1-2.2,1.3q-.5.3-.2,0ZM490.7,321.4q0-.3-.2-.3-.1.3,0,.3h.2ZM493.1,320.1l-2.2,1c0,.3,2-.6,2.2-.7v-.3ZM492.9,294.6c1-.3,1.5-.3,1.7-.3,0-.3-3.2,0-3.4,0-.2.3.2.3,1.7.3ZM491.7,319.8v-.3c.2-.3,2.2-1.3,2.5-1.1l-1,.6c-.7.3-1.2.9-1.5.9ZM509.9,308.9c0-.1-.7.4-1.7,1.3-3.1,3.3-6.4,5.9-11.4,8.7-1.4.9-2.3,1.6-2.3,1.6,0,0,.7-.1,1-.4h.5c.2,0,4.2-2.3,6.1-3.7,2.3-1.7,4.8-3.7,6.4-5.6.9-1.1,1.5-1.9,1.5-1.9ZM494.4,318.2q0-.1.2-.1h0c0,.1-.2.1-.2.1ZM494.9,317.8h.2c.2-.3.5-.3.2,0,0,.3-.5.3-.5,0ZM496.1,316.9h.4q.2.3-.2.3s-.1,0-.1-.3ZM499,314.9c-1.6,1.3-2.3,1.7-2.3,1.7,0-.3,1-.9,2.2-1.7h.1ZM499,314.9c.1,0,.2-.1.4-.3-.1.1-.2.3-.4.3ZM500,314.2c-.1.1-.2.1-.2.1h.2ZM500,314.2l.4-.3c-.1.1-.2.3-.4.3ZM501.6,293.2h-.6c-1,0-.7.3.2.6.5,0,.6,0,.5-.3-.2,0-.2-.1-.1-.3ZM501,313.5c2.5-1.9,5.2-4.3,6.9-6.2,1-1,1.2-1.3.7-.7-1.1,2.1-3.8,4.4-7.6,6.9ZM502.2,293.7c.5.3.7.3,1.2,0,.2,0,0-.3-.5-.3s-.7.3-.7.3ZM504,294s.1.3.4.3c1,0,1.2,0,1.2.3.1.3.5,0,.7-.3h-.2c-.1,0-.4,0-.5-.3-.7-.3-1.6-.3-1.6,0Z"/><path d="M542.1,298.6c.4.7.4,2.6,0,3.3-.2.6-.9,1-2.6,2.1-3.7,2.9-8.5,6.4-10.7,8.3l-2.1,1.7-1.2,3.6c-4.1,11.5-7.7,22.2-7.7,22.9h2.6c1.8,0,3.1.3,4.9.4,4.2.7,5.7,1.4,5.7,2s.1.4.4.7c.4.1.4.4.4.4-.1.3,0,1,.5,1s.1.3.1.4c-.1.6,0,.7,0,.7.5,0,.9,1,.9,2.1s-.2,1.3-.6,1.7-.6.7-2.2.7c-2.7,0-11.6-1.1-11.9-1.7,0,0,0-.1.1-.4q.2-.3-.1-.3c-.2-.1-.9-.1-1.5-.1s-.9.1-.6.1c.4,0,.4.3.1,1.3-.4.4-1.2,1.1-1.8.9,0,0-.5,0-.9-.1-.6,0-1.1-.6-1.2-.7q-1.2-.7-4.8-.7t-3.7-.3c-.4-.4-.9-1-1-1.7-.2-.7-.5-1.1-.6-1.1v-.4c.1,0,.1-.6.1-1,0-.7,0-1-.1-1q-.5,0,0-.4.1-.6,0-.7-.2-.3,0-.6c.4-.1.4-.4,0-.1-.9.1,0-.6,1.4-1.4,1.7-1,2.5-1,1.1,0-.6.1-1.1.4-1.1.7,0,0,.5-.3,1.1-.6.4-.1,1-.4,1.2-.7.4,0,.1.3-.5.6-.6.1-1,.7-1,.7,0,0,.6,0,1.5-.3,1.2-.4,1.5-.4,1.8,0l.2.3c-.9,0,.4.4,1.2.4h1l.4-1.7,1.8-6c.6-2.3,1.2-4.4,1.2-4.6,0-.3.2-1.3.7-2,.5-.7,1.5-3.3,2.3-5.9,3.7-9.9,4.7-12.7,6.5-17.9.6-1.4.9-2.1.9-2.7-.2-.4,0-.9,0-1.1q.2-.3-3.1-.4c-2.8,0-3.4-.3-4.1-.6-1.1-.4-1.7-2.1-1.4-3.9.2-.7,0-.7-.1-.7-.5,0-.2-.1.1-.7q.5-.1,0-.1c-.4-.3-.1-.6.2-.7h.4l-.4-.3-.6-.3h.6c.6-.4,2.5-.1,2.3.3,0,.3,1,.4,5,.4s3.9-.1,4.2-.1q.2-.3.2,0,.1.1.4,0,.2-.3.2,0s1.2.1,2.6.4c3,.4,5.4,1,7.3,1.7,1.2.1,2.9,1.4,2.8,2.1,0,0,.1.4.4.7.2.3.4.7.4.7,0,.3,0,.4.2.7ZM504.2,341.3s-.2,0-.5.3h.2c.2,0,.2-.3.2-.3ZM509.7,343.9c0-.1-1-.1-1,0-.2.3,0,.6.4.3h.4q.2,0,.2-.3ZM510.1,342.3c-.1-.3-1.4,0-1.4.1,0,.3,1.2.3,1.2,0h.1ZM510.6,343.7l-.2-.3c-.2,0-.2.3-.2.4,0,0,0,.3.2.3,0-.3.2-.3.2-.4ZM510.6,342.4h.1c0-.1-.1-.4-.1-.1-.2,0-.2.1-.2.1q0,.3.2,0ZM510.7,341s.6-1.1,1.1-2.9c.6-2.4,1.6-5.6,3.6-10.9.2-.4.2-1,.2-1-.2,0-3.1,7.4-4.3,12.2-.7,2.9-.7,2.6-.6,2.6ZM511.2,343.7s0-.3-.2-.3-.2.3-.2.3q0,.1.2.1.2,0,.2-.1ZM511.6,342s0-.3-.2,0q-.1,0-.4.3,0,.1.2.1c.1,0,.4-.1.4-.4ZM516.9,324.7c-.6.7-3.4,8.6-4.9,13.5-.6,2.1-.7,2.9-.4,2.9,0,0,.4-1.1,1.2-3.3.4-2,1.7-5.7,2.8-8.6,1.5-4.3,1.6-5,1.2-4.4ZM512.6,343.7c0-.3-.1-.6-.4-.6s-.2.3-.2.6.5.1.6,0ZM513.1,342.3c0-.6-.6-.6-.9,0q0,.1.2.1c.1,0,.4-.1.6-.1ZM513.1,341.3h-.5c-.1,0-.1.3,0,.3.2,0,.5-.3.5-.3ZM519.9,321.1l-.6.7c-.6.7-.9,1.1-3.3,8.3-1.6,4.9-3.4,10-3.4,10.5s.2.3.5.3.1,0,.1-.3c0-.7,3.4-10.7,5.9-17.2l.9-2.3ZM516.9,322.5c0,.4.9-1.7,3.4-9.2l3.6-9.5c.6-1.4,1-2.4.6-2.1-.2.1-7.6,20.2-7.6,20.8ZM525.2,343.4c-.1-.3-4.4-.4-6.5-.4s-1.5,0-1.6.1c-.2.3.4.3,3.8.3,2.5.3,4.3.3,4.5.3l-.2-.3ZM517.2,341.7c0,.3.5.3,3.9.3s5.8.3,5.9.4h.2c-.2-.4-2.7-.9-6.1-.9-3.4-.3-3.9-.3-3.9.1ZM524.5,303.3c-.9,2-5.4,14.6-6.1,16.8l-.2.7.4-.6c.2-.4.6-1.1.9-2.1.4-.7,1.5-3.3,2.2-5.7.9-2.1,1.8-5.4,2.5-7,1.2-2.9,1.5-4.6.5-2ZM525.2,293h-3.2l-2.5.3h5.3q1.6,0,.4-.3ZM521.5,315.2c-.4.6-1,2-1,2,0,0,.4-.3.9-1,.6-1,.7-1.4.1-1ZM521.2,294.4c0-.1-.2-.1-.2,0h.2ZM526.1,302.9c-.2,0-.4.7-.9,1.9l-2.2,6c-.9,1.9-1.5,3.7-1.5,3.7,0,0,.2,0,.5-.1.4-.6,1-2,1.6-3.6,2.7-7.6,2.7-7.9,2.5-7.9ZM523.3,294.4h1.6c-.4-.1-1.2-.1-1.6,0ZM526.1,343.7c0-.3-.2-.3-.2,0h.2ZM527.8,342.4q.1,0,.1-.1h-.4q0,.1.2.1ZM537.9,300.5c-.2-.4-7.5,5-8.5,6.4-.6.9-.2.7,1-.3.6-.9,2.3-2.3,3.7-3.3,1.2-1.1,2.7-2.1,3.1-2.3.5-.3.9-.6.7-.6ZM530.6,304.8c.4-.4,1.8-1.6,3.3-2.9,1.4-1.1,2.5-1.9,2.2-1.9s-2.7,1.9-4.5,3.3c-.6.6-1,.7-1,.7-.2-.1,1-1.4,2.5-2.1.6-.4,1.2-.9,1.2-1.1,0,0-1.5,1-2.5,1.7-1,.9-1.2.9-.9.4.2-.4,1.2-1.1,2.3-1.9q2-1.7,0-1.7h-1.5l-.6,1.9c-.4,1-.6,2-.6,2.1,0,0,0,.3-.2.3v.7c-.1.3-.4.4-.4.7-.2.3,0,.3.6-.3ZM530.9,293.3l.7.3c.6,0,1.1.1,1.1.1.1,0,.1-.1,0-.1,0-.3-.5-.3-1.1-.3h-.7Z"/><path d="M582.4,348.3c0,3.2.2,2.9-5.8,3.2-4.1,0-12.8-.7-14.4-.3h-.6q0-.4.4-.4v-.3s.2-.4.5-.4q.7-.1.2-.1t0-.3-.5-.1c-.1.1-.5.4-.5.6-.5.3-1.1.3-1.4,0h-.5q-.4.4-.4,0h-.2c-.1,0-.4-.1-.4-.4-.1-.3-.2-.4-.4-.4h-.1c-.1,0-.2.1-.4.4-.2.4-.7.9-.7.3,0,0,0-.3-.2-.6v-.3h-.1l-.2.6-.2-.6h-8l-.2.6c-.6.4-2,.9-2.2.4h-.5q-.4.4-.4,0h-.1c-.2,0-.5-.1-.5-.4-.4-.6-.6-.6-.9,0-.2.4-.7.9-.7.3,0,0,0-.3-.2-.6v-.6.6c-.1,0-.4.3-.4.3l-.4-.6v-.9l-.2.9c0-.3-.2-.3-1.1-.3s-1.2-.6-1.8-.6c-.6-.3-1.1-1.1-1.1-1.7-.2,0-.2-.3-.5-.6q-.2-.4.2-1.1c.5-.3.5-.4-.2-.4h-.5l.5-.3.7-1.1c.5,0,.2-.4-.5-.4h-.5c0-.3,1.2-.6,2.7-.6s2.1-.1,2.7-.1h1.1l.7-3c.6-1.9,1-3.2,1-4s.4-.6.4-.6q.2,0,.2.3c0,.3-.2,1.4-.6,2.1-.1,1-.4,2.6-.6,3.6-.4.7-.4,1.6-.4,1.6,0,.1.4,0,.9-2,.1-.7.5-1.9.5-1.9,0-.3,1.1-4,2.5-8.5,2.8-10.6,3.9-13.8,8.5-26.8,2.2-6.4,3-8.9,3-9.2-.2,0-.4.3-1.2,2.7-.2,1.3-1.1,2.9-1.4,3.9-2.7,7.2-6.3,17.5-7.7,22.9-.2.9-.2,1.4-.2,1.1-.4-.6,3.9-13.5,8.2-25.4,1.4-4,2-6,1.4-5,0,0-.2,1-.7,1.7-.4,1-1.5,4.3-2.6,7.2-2.8,8.3-4.5,13.3-6.6,20.9-.5,1.7-.9,2.7-.9,3-.2.6-.5,1.4-.5,1.1,0-.6,1.7-6.4,3.2-11.7l6.5-18.6c1.6-4.3,1.8-5.4,1.4-5.2-.9.6-.5-.3.2-1.7.6-.9.6-1.1,0-.6-.7,1-.7.6-.2-.3l.5-.9-.7.9q-.9.9-.6.3c.4-.3.6-.7.9-1.1.5-.7.9-1,.9-.7q.1.4.1,0c.2-.3.6-.3.6,0v.4c.2,0,.5-.4.5-.4.2,0,.5,0,.5.7s0,.6.7.4q.1-.4.5,0c0,.1.2.1.5.1.5-.1,1.5.9,2.1,2.1.9,2,.5,3.7-3.1,13.9-2.8,7.9-5.3,14.8-7,20.9-1.1,4.3-3.9,13.9-4.2,14.9l-.2.6h7.7l.9-3.2c.5-1.7.9-3.2.9-3.9s.4-.6.4-.6q.2,0,.2.3c0,.3-.2,1.3-.6,2.1-.2,1-.4,2.6-.6,3.6-.2.6-.2,1.6-.2,1.6.1-.1.4-.6.6-2,.2-.7.6-1.9.6-1.9,0-.3,1.1-4,2.5-8.5,3-10.6,4.1-13.8,8.6-26.8,2.2-6.6,2.8-9,2.8-9.3-.2,0-.4.3-1.2,2.7-.2,1.4-1.1,2.9-1.4,4-2.6,7-6.3,17.3-7.7,22.9-.2.9-.2,1.4-.2,1.1-.2-.6,3.9-13.5,8.2-25.5,1.5-3.9,2-5.9,1.5-5,0,0-.4,1.1-.9,1.9-.4.9-1.4,4.3-2.6,7.2-2.8,8.3-4.5,13.3-6.5,20.9-.6,1.6-1,2.7-1,3-.4.6-.5,1.4-.5,1s1.7-6.3,3.2-11.6l6.5-18.6c1.7-4.3,2-5.4,1.4-5.2-.9.6-.5-.3.4-1.7.5-.9.5-1.1,0-.6-.9.9-.9.6-.4-.3l.6-1-.9,1q-.9.9-.6.3c.4-.3.6-.7.9-1.3.6-.6.9-.9.9-.6q.1.3.1,0c.2-.3.6-.3.6,0v.3c.2,0,.5-.3.5-.3.2,0,.6,0,.6.6s0,.7.6.6q.1-.6.4,0c0,.1.4.1.6.1.6-.1,1.5.9,2.1,2,1,2,.6,3.9-3.1,14-2.7,7.9-5.2,14.6-7,20.9-1.1,4.2-3.9,13.9-4.2,14.8l-.2.7h.2c1.4,0,8.4,0,9.6.1,1.7.3,3.3.3,3.9.3.4-.3.9-.3.9,0l.4.3.6.4-.4.4c.4,0,1,.7,1,1,.1,0,.1.1,0,.1-.6.7-.4,1.7.5,2,.2,0,.6,0,.6.3q-.4.6,0,.7c.4,0,.4.4.6.9ZM550.5,324.1l1.4-3.7c.9-2.4,3.6-10.6,5.2-15,2.1-6.3,3.2-9.9,3.2-10.2.2-.7-.2-.4-.5.6-.4.7-1.1,3-1.8,5-4.9,13.2-8.2,24.1-11.1,35.5-.9,2.7-1.4,5.2-1.4,5.2v.3c.2-.3.7-2,1.4-3.9,1.1-3.7,3.2-11.9,3.7-13.8ZM545.7,333.4q0-.4.2-.9c-.2,0-.2-1,0-1.3q.2,0,0,.3c0,.3,0,.6.2.6v-.9c0-.6,0-.7.4-.7q-.4-.3,0-.3s.2-.6.2-.9c.5-1.4.5-.9.2.9-.2.4-.5,1.6-.9,2.3-.2,1-.2,1.3-.5.9ZM547.6,327.1c0-.3.9-2.7.9-2.3,0,0,0,.6-.2,1.4-.2.6-.6,1.4-.6.9ZM550.5,342.1h-.2s0,.3.2.3v-.3ZM552.3,342.1c-.9-.3-1.5-.3-1.5,0,0,0,.6.3.9.3q.9,0,.6-.3ZM554.8,342.4h2.2s0-.1.1-.3h-4.4c0,.3.9.3,2.1.3ZM559.9,341.7c.2-.3.9-2,1.4-3.9,1.1-3.7,3.2-11.9,3.7-13.8.4-.6.9-2.3,1.5-3.7.7-2.4,3.4-10.7,5-15,2.1-6.4,3.2-9.9,3.2-10.2.2-.7-.2-.4-.5.6-.4.6-1,2.9-1.8,5-4.8,13.2-8.1,24.1-11.1,35.5-.9,2.7-1.4,5.2-1.4,5.2v.3ZM576.5,342.9s-1.7-.4-3.2-.4-8-.1-8.8-.1c0,.1-.1.4-.1.6,2,0,9.1.3,9.1.3,0,.3,3.1.1,3.1-.3Z"/><path d="M587.3,341.3c.2-.7,2.8-7.9,5.3-13.5.9-2.3,1.7-4.3,1.7-4.3,0,0-.5,0-.6-.3-1,0-1.8-1-1.6-1.4,0-.3,0-.6-.2-.6v-.4c.2-.3.2-.6,0-.9-.1-.3-.4-.4-.4-.4,0,0,.6-.3,1.1-.3.9-.3,1.5-.6,2.3-.3,1.1,0,1.4,0,1.4-.3,0,0-.6-.1-2-.1h-2.5q-.4-.3.2-.9c.6-.3,1.4-.3,2.8-.3s2,0,2.2-.1c0,0-.6-.3-2.6-.3s-2.5,0-2.2-.3q-.5-.3-.2-.3c.2-.1,1.6-.1,2.8-.1s2.6-.3,2.6-.3c.2-.3,1-1.9,1.6-3.3.6-1.6,2.2-4.6,3.1-6.6.9-2.1,2-4.2,2-4.6q.4-1.6,0-1.1t-.2.3c0-.4-.2-.7-1.1-.7s-1.7-.7-1.7-1.3c-.2-.3-.2-.6-.5-.6v-.4c0-.6,0-.7-.1-.7-.7-.6-.5-.9.1-1.1.9-.4.9-.7-.1-1h-1l.7-.4.6-.9h-.9c0-.1-.6-.7-.6-.7l.9-.4c.9-.6,1.1-.6,2.3-.3,2.2.3,5.3,0,5.8-.3h.1c0,.3.5.3.7.3.1-.3,1.7-.3,3.2-.3s3.3-.3,3.8-.3h12.4c3.9,0,4.3.3,4.8.6l.4.4-.4.3h-.5l.7.3h.4c-.2.3,0,.4.5.4l.4.3-.6.6-.5.4h.5c.9.3,1.4.6,1.1,1,0,.6,0,.9.2.9q.4,0,.1.4c0,.6,0,.9.2.9s.2,1.4,0,2c0,0-.4.3-.9.4-.6.3-1.7.6-8.1.6-6.3.3-11.9.6-14.4,1q-.6.3-1.5,2.6c-.7,1.3-2.2,4.6-3.3,7.2-1.5,3.3-2,4.6-1.7,4.6s.9.1,1.5.1c2.7,0,8.4.9,8.4,1.3,0,0,0,.3.2.3s.4,0,.6.3q.4.3.2.4c-.2,0-.2.3,0,.3,0,0,.1.3.4.6q.5.1,0,.4c-.2.3-.4.6,0,.6s.5.3.5.4l.4.9q.2,0,0,.1c0,.3,0,.6.2.9.2,0,.2.3,0,.4v.9c0,.4-.2,1-.4,1.3-.2.4-.5.4-2,.4-3.1-.3-7-.4-7.3-1-.2-.3-1.1-.3-4.8-.6h-2c0-.1-2.5,5.4-2.5,5.4-1.2,3.3-2.6,6.3-2.8,7.3-.4.9-.6,1.9-.9,2-.2.3-.4,1.1-.6,1.6l-.5,1h7.3c8.1-.3,15.7.3,15.7.9,0,0,0,.1.2.1q.4.3-.2.6l-.7.3h1c.4,0,.6.1.4.1q0,.3.2.3s.2.3,0,.3q0,.3.2.6h-.2q-.2.4.2,1c.1,0,.6.1.6.1.2,0,.2.3.2.3q0,.3-.2.3v.6c.2.1.5,1,.5,1.7s0,1.3-.5,1.7c-.5.6-.6.6-1.7.6h-1.4c-.2-.3-12.7-1-20-1.3-10.3-.3-11.2-.4-12-2.6-.2-.4-.2-1-.2-1q0-.3-.2-.3-.1-.1,0-.4,0-.3-.1-.3s0-.3.1-.4l.5-.6-.5-.3-.6-.3.5-.4q.6-.7.1-.7-.4,0-.4-.3c.2,0,0-.3,0-.3-.2-.3,0-.6.6-.7q.9-.3,1.6.1c1,.6,1.2.6,1.5,0ZM587.3,341.9c0,.6.9-1.3,2.5-5.3l3.4-8.9c1.1-2.3,1.7-4.2,1.7-4.2h-.2s-.9,1.9-3.2,7.6c-1.7,4.4-4.2,10.7-4.2,10.7ZM592.3,331c-3.3,8-4.4,10.9-3.9,10.9,0,0,.2-.6.4-.7l2-4.9c1-2.3,2-5.2,2.7-6.6,1.2-3.3,2.3-5.9,2.3-5.9h-.1c-.5,0-.7.4-3.3,7.2ZM594.7,328.1c-3.7,9.2-5.2,13.8-4.1,12,.1-.3.9-1.6,1.2-2.6.5-1.3,1.6-3.6,2.2-5.3,1.4-3.6,3.3-8.2,3.3-8.5h-.2c-.5,0-.6.4-2.5,4.3ZM601.1,344.1c-6.8,0-8.7.3-5.3.6,3.1.1,15.1,0,15.5-.3,1-.3-3.2-.6-10.2-.3ZM594.5,342.9c0,.3,20.9.6,21.1,0h-.5c-.4.3-.9,0-1,0-.2-.3-2.2-.3-7.5-.4-7.3,0-12.2.1-12.2.4ZM597.4,316.4h-.5c-.9,0-.9.3-.2.3s.7,0,.7-.3ZM596.6,318.6c0,.3.2.3.2.3,0,0,.2,0,.2-.3h-.2c0-.1-.2,0-.2,0ZM597.4,317.6c.1,0,.4-.3.4-.3,0-.1,0-.4-.2-.4-.1.3-.4.7-.1.7ZM597.7,318.5c-.2,0-.2.1-.4.1q0,.3.1.3c.2,0,.5,0,.5-.3,0,0,0-.1-.2-.1ZM597.7,342.1c0-.3-.2-.3-.4,0h.4ZM598,316.2c.2-.3,1.1-2.1,2.2-4.4,1.1-2.3,2.6-5.3,3.1-6.6l1.1-2.6c-.2-.1-1.4,2.1-3.6,6.9-.6,1.6-1.5,3.6-2.2,4.6l-.6,2.1ZM598.6,317.2c.2,0,0-.3-.1-.3-.2,0-.5.3-.5.3,0,.1.2.1.2.1.2,0,.4,0,.4-.1ZM603.3,306.2c-.9,1.6-1.8,3.6-2.2,4.6l-2.5,5.2c0,.3.2.3.5,0,.2-.3,5.4-11.5,5.7-12.2v-.6c-.2,0-.9,1.3-1.5,3ZM599.7,318.6s-.2-.1-.4-.1c-.2,0-.5.1-.5.1,0,.3.2.3.2.3.2,0,.4,0,.6-.3ZM614,342.4h1.5l-1.2-.3c-1.6-.3-13.8-.3-14.9-.3-.7.3,5.4.3,14.6.6ZM600.4,317.2s-.2-.3-.5-.3c-.2.3-.5.3-.5.4-.1.3,0,.3.2.3s.5-.3.7-.4ZM606.1,304.5c0-.3,0-.6-.2-.6s-1.1,1.9-2,3.6l-2.6,5.9c-1.1,2.3-1.1,2.9-.7,2.6.2,0,1.4-2.6,2.8-5.6,1.6-3.2,2.7-5.9,2.7-5.9ZM614.2,319.9c0-.4-.7-.4-4.2-.7-5-.6-5.5-.6-5.5-.3-.1.3,0,.3,0,.3.7,0,8.4.7,8.6.7.4.3,1.1,0,1.1,0ZM605.2,317.2c-.2.4.1.4,2.8.7,1.2,0,3.4.3,4.3.6,2.7.1,3.6.4,3.6,0l-.2-.3s-.9,0-2-.3c-2.6-.3-8.4-.7-8.5-.7ZM605.4,293c.7.3,1.6.3,1.8-.3h-.9c-.4,0-.7.3-1,.3ZM607.2,316.9q.4,0,.1-.3h-1.2c.2.3.6.3,1.1.3ZM609.2,316.9c0-.3-.2-.3-.5,0h.5ZM610.4,292.7c-.1,0,1.1.3,1.4.3,0,0,3.1-.3,6.5-.3h8.1l1.4-.3h-1.4c-1.4-.1-15.7,0-16,.3ZM611.3,317.2c-.1-.3-.6-.3-.9,0h.9ZM612.6,317.4q.2,0,.2-.1h-.5c-.1.1,0,.1.2.1ZM613.2,344.4h-.4q0,.3.2.3.1,0,.1-.3ZM615.7,344.7h-.9c-.2,0,0,.1.4.1s.7-.1.5-.1ZM621.8,294h-.9c-.5.3-.2.3.4.3s.6,0,.5-.3Z"/><path d="M651.2,343.9c-1.6-3.2-3-7.2-4.8-13.6,0-.3-1.5,5.3-2.2,8.5-.2,1-.5,2.7-.7,4.4-.1,1.3-.4,2.4-.6,2.7-.5,1.4-.6,2.7-.6,3,.4.1.1,1.1-.2,1.7-.5.3-1.1.6-1.6.3-.7,0-.7-.3-.9-2-.5-3.4-.2-7.7.9-11.9.2-1.1.5-2.3.2-2,0,0-.5,1-.7,2-1.1,5.6-1.5,9.2-.9,11.6.5,2.6.5,2.3,0,2-.6-.7-1.4-5.2-.9-8,.2-2.6.6-5.3.9-5.6,0-.3.2-.7.2-1.1s.2-1.4.2-1.4c.1-.3.1-.4.1-1,.2-.6.2-1.1.5-1.4.2-.6,2.2-8.3,2.2-8.9s.2-.6.5-.9c.2-.3.2-.6.2-.6,0-.6,3.1-9.6,4.9-15.3,1.2-2.9,1.7-5,1.7-5.3-.1-.3-.4.6-1.2,2.7-1.2,3-4.5,13.2-5.4,16.8-.7,1.7-1.1,3.2-1.1,3.4-.5,1.3-2.5,8.9-3.4,13-1,5.3-1.2,7.6-.9,10.7.2,1.1-.4-1-.6-2.3l-.2-1,.2,1.1c0,.9,0,2,.2,2.1q0,.6-.2,0c-.5-.7-.5-2.6-.2-4.4.2-.7.2-1.9.2-2.1q0-.4.2-.4s.2-1,.4-2c0-.9.2-2,.2-2,.2,0,.2-.7.5-1.4.4-1.6,1.5-6.3,2.5-9.2.2-1.3.5-2.4.5-2.7s.1-.6.1-.6c.2-.1.7-1.7,1.1-3.3.9-3.7,3.3-11,4.7-14.8.5-1.6,1-2.9,1-3.2s-1.1.3-1.8.7l-2.5,1.1c-1.4.6-1.7.6-2.2.3-.2-.3-.4-.6-.4-.6l-.5-.6c-.2-.6-.5-.6-.2-.7q.2-.3,0-.3c-.2,0-.5-.3-.5-.3q-.2-.6.2-1l.7-.7-.7.3c-.9.1-1.1,0-.5-.9l.7-.9h-.7q-.6.3-.2-.3t-.1-.3l-.5.3.5-.4c.6-.9,4.2-2.3,8.7-3.7.5-.3,1.1-.3,1.4-.3s.6-.3,1.1-1.7c.5-.6.6-1,.9-1.6l.5-.3.5.3.5.6.4-.6c.4-.6.6-.6.6.6v.7l.5-.7c.6-.6.9-.6.9,0s.2.1.5.1c.2-.1.7,0,1.2.6l.7.4h4.9c2.8,0,4.9.3,5.4.3q.5.3-.5.3c-2.6-.3-9.1-.3-9.6.3l.2.3h8.2c1.4,0,2.1,0,2.1.1,0,0,.1,0,.1-.1.1,0,.4.1.4,0,.2,0,.2-.3.2-.3-.2,0,0-.3,0-.3,0,0,.2.3.2.6.2,0,.7,0,1.8.1,1.1.3,2,.3,2.5.3s.5.3.2.3c0,.3.9.6,1.1.3,0,0,.2,0,.2.3,0,0,.5.3.9.6.6.4,2.3,1.7,2.3,2s.1.6.1.6c1.6,2.1,2,2.9,2.5,5.2.2,1.4.5,2.1.5,3.7-.2,1.9-.2,2.4-1,3.6-1.2,3.7-5,7.9-11.4,11.5-2.8,2-5.8,3.4-8.1,4.2-1.7.6-5.2,1.1-7.3,1.1h-1.2l.2.4c0,.1.4,1.9.7,3.7,1.6,5.4,3.3,9.5,5.8,13.8l1.2,1.9.2-.6c0-.4.1-.7.2-.7.2,0,1,1.6,1,2.1,0,1.6-1.2,2.6-4.2,2.7-1.2.3-1.7-.1-3-1.4-2.3-3.7-5.2-10.7-7.1-18.3-.7-2.4-1.1-3.2-1.1-2.1s2.1,7.7,3.1,10.3c1.2,3,1.8,4.7,3.4,8,.6,1.3,1.4,2.4,1.1,2.4s-.7-1.1-1.7-3.3c-1.8-3.6-3.8-8.6-5-13.6-.5-1.4-.9-2.7-1.1-2.7-.7-1.1,2.6,9.2,4.1,12.7.2.9,1.1,2.9,2.1,4.2.6,1.6,1.2,2.7,1,2.7,0,.1-1.7-3-2.6-5ZM643.3,324.5c0-.3-.7,2.4-2,7-.7,2.9-1,4.3-.2,1.9.2-.9.9-2.9,1.2-5,.7-2,1.1-3.9,1-3.9ZM649.2,294.3c-1.2.3-4.8,1.6-5.3,1.9h-.5c0,.1.5.1.5.1.2,0,1.2-.1,2.2-.4s2.1-.7,2.6-1c1-.3,1.2-.9.5-.6ZM651.2,301.6c.1-.3.1-.9.1-.9,0-.1-.6.3-.6.3-3.4,9.5-7,20.9-6.8,21.5q.2.1,1-2.1c.6-2.6,4.7-14.6,6.3-18.8ZM644.2,315.2l-.2.3q0,.6.2.3v-.6ZM649,301.3l-.2.3c-.5.7-2.3,6.6-3.4,9.6-.4,1.7-.9,2.9-.9,3.2.4-.7,1.2-3.2,2.2-6.2,1.4-3.7,2.3-6.9,2.3-6.9ZM649.2,296.2s-.5,0-1.7.1c-2.8,1.1-2.6,1.3.2.6.7-.3,1.5-.6,1.5-.7ZM651.8,337.8c-.6-1.9-2.8-8.3-3.3-10.7-.2-.4-.5-1-.5-1-.2,0,0,.9.2,1.4v.6c-.2.3,2.5,8.9,3.8,12.3,1.1,2.9,3,6.3,4.3,7.9q.5.6,0-.6c-.2-.1-.7-1.3-1.4-2.3-1.2-2.3-2.2-5-3.2-7.6ZM651.8,312.9c-2.5,6.6-2.6,7.9-2.5,8.2q.2.3.2,0c.1-.3,1.6.3,1.7.9.1.3.4.6.6.6-.1.1-.1.3-.1.3,0,.3,1,.3,3-.3,1.1-.3,1.6-.6,1.8-.9.5-.9,2.7-1.9,3.9-1.9l.2-.3c.2-.3.4-.3.5-.3.5-.3,5-2.9,7.1-4.3,2-1.4,4.2-3.4,5.5-5,1.1-1,3.1-3.6,2.8-3.9,0,0-.6.6-1,1.3-1.6,2.3-4.8,5-9,7.9-1.5.9-2.5,1.7-2.5,1.4,0,0,0-.3.5-.3.5-.3,4.8-3.4,6.4-4.9,2-1.9,4.1-3.6,4.3-4.2,0-.3.2-.7.6-1.3,1.4-1.6,1.8-3.2,1.1-4-.5-.4-2.5-1.4-3.8-1.7-3.1-1.3-8.8-1.6-13.9-1-1.7.3-3.2.6-3.2.6,0,0-1.8,4.6-4.5,13ZM651,293s.2-.3.2-.9c.1-.3.1-.4.1-.4l-.4.4c0,.6-.2.9,0,.9ZM651.3,295.6v.3q.2,0,.5-.3c.2-.3,0-.4-.5,0ZM652.1,292.1c0-.3.2-.4,0-.7,0,0,0,.3-.2.7-.2.9,0,.9.2,0ZM652.5,322.5c0-.3.5-.3.6-.6q.4,0,0,.3c-.4.3-.9.4-.6.3ZM653.5,321.9s0-.3.2-.3c0-.3.2,0,.2,0,0,.6-.2.6-.5.3ZM654.8,321.4h-.5l.5-.3c.4-.3.9-.6.6,0-.2,0-.4.3-.6.3ZM655.9,320.8c.2-.4,2.2-1.3,2.5-1.3,0,.3-1.5,1-2.2,1.3q-.5.3-.2,0ZM657.6,321.4q0-.3-.2-.3-.1.3,0,.3h.2ZM660,320.1l-2.2,1c0,.3,2-.6,2.2-.7v-.3ZM659.8,294.6c1-.3,1.5-.3,1.7-.3,0-.3-3.2,0-3.4,0-.2.3.2.3,1.7.3ZM658.6,319.8v-.3c.2-.3,2.2-1.3,2.5-1.1l-1,.6c-.7.3-1.2.9-1.5.9ZM676.8,308.9c0-.1-.7.4-1.7,1.3-3.1,3.3-6.4,5.9-11.4,8.7-1.4.9-2.3,1.6-2.3,1.6,0,0,.7-.1,1-.4h.5c.2,0,4.2-2.3,6.1-3.7,2.3-1.7,4.8-3.7,6.4-5.6.9-1.1,1.5-1.9,1.5-1.9ZM661.3,318.2q0-.1.2-.1h0c0,.1-.2.1-.2.1ZM661.8,317.8h.2c.2-.3.5-.3.2,0,0,.3-.5.3-.5,0ZM663,316.9h.4q.2.3-.2.3s-.1,0-.1-.3ZM665.9,314.9c-1.6,1.3-2.3,1.7-2.3,1.7,0-.3,1-.9,2.2-1.7h.1ZM665.9,314.9c.1,0,.2-.1.4-.3-.1.1-.2.3-.4.3ZM666.9,314.2c-.1.1-.2.1-.2.1h.2ZM666.9,314.2l.4-.3c-.1.1-.2.3-.4.3ZM668.5,293.2h-.6c-1,0-.7.3.2.6.5,0,.6,0,.5-.3-.2,0-.2-.1-.1-.3ZM667.9,313.5c2.5-1.9,5.2-4.3,6.9-6.2,1-1,1.2-1.3.7-.7-1.1,2.1-3.8,4.4-7.6,6.9ZM669.1,293.7c.5.3.7.3,1.2,0,.2,0,0-.3-.5-.3s-.7.3-.7.3ZM670.9,294s.1.3.4.3c1,0,1.2,0,1.2.3.1.3.5,0,.7-.3h-.2c-.1,0-.4,0-.5-.3-.7-.3-1.6-.3-1.6,0Z"/></svg>