<?xml version="1.0" encoding="UTF-8"?><svg id="a" xmlns="http://www.w3.org/2000/svg" width="1088.6" height="641.9" viewBox="0 0 1088.6 641.9"><path d="M521.9,90.9c1.4,1.3,33.5-.7,38.4.2l3.5-3.5c122-.3,244.4-1.4,366.5-.4,5.6,0,8.9-1.7,15,.9s6.1,6.9,6.5,11.5c1.7,19.3,1.5,54.6,0,74.1-.6,7.6-3.4,15.5-5.1,22.9,0,1,6.1,1.4,5.1,5v297c-4.5,19.4-20.4,34.9-30,52.1l-11.5,4.5H176.2c-5.2-.2-10.2-3-13.4-6.8-6.8-8.1-19.3-26.6-24.9-35.9s-4.7-8.7-5.2-12.8V201.5c-1.1-4.3,4.9-3,5-4-.5-7.7-4.4-15.4-5.1-22.9-1.6-19.2-1.7-55.9,0-75.1s2-9.8,7.3-11.7c123.6-2.2,247.6.3,371.3-.7,3.1,0,7.1-2,9.5.5s.8,3,1.1,3.3ZM144.8,195v-62.5c0-.3,1.3-1.5,1-2.5h791.5c.2,0,2.5,2.3,2.5,2.5v63.5c2.8.5,1.7-.6,2.3-2.2,1.7-4.6,4.3-15.5,4.7-20.3,1.6-17.9,1.7-54.1,0-72-.4-3.9-.9-7.5-5-9l-372.6-.5c-2.6.3-.9,3.5-6.9,4.1-13.1,1.4-28.6-1.1-42,0l-5-4.1H144.3c-4.7.9-6.1,4.3-6.6,8.6-1.9,17.2-1.4,53.3,0,71s2.9,15.5,4.8,21.3-.4,2.6,2.3,2.2ZM933.8,135H151.3l-1.5,1.5v65c-1.4,3.1-11.8.3-12,2.1v293c.2,10.6,7.9,18.3,18.5,18.5,249.7-1.5,499.4,1.9,749.1,0,7.8,0,16,.8,23.9,0,11-1.1,16.6-7.6,17.5-18.5V203c-4.1-.5-12,2.1-13-3.5s0-16.7,0-23c0-8.8-.2-18,0-27s2.4-9.4,0-14.5ZM934.8,520H151.8c-.3,1.5.4,2.3.9,3.6,1.8,3.7,12.7,19.5,15.5,22.5s4.6,3.6,9,4l735.6-.5c2-.6,3.8-1.1,5.4-2.6,3.1-3,12.7-18.9,15.4-23.6s1.5-1.8,1.2-3.3Z" fill="#140808"/><path d="M933.8,135c2.4,5.1,0,9.7,0,14.5-.2,9,0,18.2,0,27,0,6.3-1,17.5,0,23s8.9,3,13,3.5v293.5c-.9,10.8-6.5,17.4-17.5,18.5-8,.8-16.1-.1-23.9,0-249.7,2-499.4-1.4-749.1,0-10.6-.2-18.3-7.9-18.5-18.5V203.6c.3-1.7,10.6,1,12-2.1v-65l1.5-1.5h782.5ZM200.5,210.3c-14.6,2.6-21.5,11.6-28.3,23.7-28.6,51.5-28.9,120.8-2,173,6.7,13,14,24.1,29.3,27.7l683.8.2c20.7-2,31.5-25.5,38.3-42.7,18.2-46.6,17.5-100-2.6-145.9-6.6-15.2-15.8-33.4-33.9-36.1H200.5Z" fill="#FFD800"/><path d="M144.8,195c-2.7.4-1.7-.5-2.3-2.2-1.8-5.8-4.3-15.3-4.8-21.3-1.3-17.7-1.9-53.8,0-71s1.8-7.7,6.6-8.4h371c0-.1,5,3.9,5,3.9,13.4-1,28.9,1.4,42,0,6-.6,4.3-3.8,6.9-4.1l372.6.5c4.1,1.5,4.6,5.1,5,9,1.7,17.9,1.6,54.1,0,72-.4,4.8-3.1,15.7-4.7,20.3-.6,1.6.5,2.7-2.3,2.2v-63.5c0-.2-2.3-2.5-2.5-2.5H145.8c.3,1-1,2.2-1,2.5v62.5Z" fill="#CCAD00"/><path d="M934.8,520c.3,1.5-.5,2.2-1.2,3.3-2.7,4.7-12.2,20.6-15.4,23.6s-3.4,2-5.4,2.6l-735.6.5c-4.4-.4-5.9-.9-9-4s-13.8-18.7-15.5-22.5-1.3-2-.9-3.6h783Z" fill="#CCAD00"/><path d="M200.5,210.3h684.5c18.2,2.6,27.3,20.9,33.9,36.1,20,45.9,20.7,99.4,2.6,145.9-6.7,17.2-17.6,40.7-38.3,42.7l-683.8-.2c-15.3-3.6-22.5-14.7-29.3-27.7-26.9-52.2-26.6-121.6,2-173s13.6-21.1,28.3-23.7ZM189.2,427.6c2,1.2,4.2,2.1,6.3,3.3,230.7,2,461.9,2,692.6,0,18.4-4,32.3-43.1,36.6-59.4,10.7-40.2,7.7-84.1-8.5-122.4-5.8-13.8-13.9-33.1-31-35l-687.8.2c-13.6,3.3-20.6,16.1-26.2,27.8-22.3,46.7-23.4,103.1-4,150.9s12.7,29,21.9,34.6Z" fill="#140808"/><path d="M189.2,427.6c-9.2-5.6-17.8-24.5-21.9-34.6-19.4-47.8-18.3-104.3,4-150.9,5.6-11.7,12.7-24.4,26.2-27.8l687.8-.2c17,1.9,25.1,21.2,31,35,16.2,38.2,19.2,82.2,8.5,122.4-4.3,16.3-18.3,55.4-36.6,59.4-230.7,2-461.9,2-692.6,0-2-1.1-4.3-2.1-6.3-3.3ZM201.5,220.3c-12.8,2.2-21.1,18.4-25.9,29.1-20.9,46.3-21.2,102.4,1,148.3,16.3,33.7,26.5,27.7,59.6,27.3,32.8-.4,72.3,3,104.1,0,4.3-.4,6.5-1.6,8.7-5.3l.8-190.3c.2-3.9-2.1-6.8-5.3-8.7l-143-.5ZM369.8,228c-.1.3,0,.7,0,1-2,1.3-1.9,3.4-2,5.5-3.5,57.1,2.8,117.6,0,175.1-1.1,2.7,2,4.2,2.1,4.4.5,1.6.3,3.3,1.2,5.3,3.1,6.2,10.3,5.7,16.2,6.8h313.1c9.8-.9,13.7-6,14.5-15.5v-176.1c-.2-7.4-4.4-14.3-12.5-14.5h-318.1c-2.2,0-4.4.3-6.5,1.1l-.5-1h-2.4c0,0-5.1,8-5.1,8ZM741.5,220.2c-3.6,1.2-6.6,4.4-6.7,8.3v187.1c-.3,3.9,2.1,6.8,5.3,8.7l139.3.8c18.7-1.2,28.3-24.5,34.2-39.8,15.4-39.8,15.2-86.4-.3-126.3-5.4-13.9-15-37.1-32-39l-139.8.2Z" fill="#FFD800"/><path d="M369.8,414v-185c0-.3-.1-.7,0-1,.7-1.7,5.9-6.3,8-7s4.3-1.1,6.5-1h318.1c8.1.2,12.3,7.1,12.5,14.5v176.1c-.8,9.5-4.7,14.6-14.5,15.5h-313.1c-5.9-1.1-13.1-.5-16.2-6.8s-.7-3.7-1.2-5.3ZM380.5,223.3c-4.7,2.3-7.9,5.6-7.8,11.2v176.1c.1,6.5,4.9,11.4,11.5,11.5h316.1c4.6-.2,9.6-2.7,10.4-7.6s.9-12.2,1-16c.7-55-2.4-110.7-.9-165.9.3-4.5-2.6-6.9-6.1-8.9l-324.2-.3Z" fill="#140808"/><path d="M369.8,414c0-.3-3.1-1.7-2.1-4.4,2.8-57.4-3.5-118,0-175.1s0-4.2,2-5.5v185Z" fill="#CCAD00"/><path d="M377.8,221c-2.1.7-7.3,5.3-8,7l5.1-7.9h2.4c0,0,.5.9.5.9Z" fill="#CCAD00"/><path d="M204.8,225c-41.3,55.4-44.1,123.9-8.4,182.9,1.7,2.7,6.6,8.5,7.4,10.6s-.2,1.7-1.5,1.5c-12-1.8-23.9-30.1-27.5-40.5-14.3-41.2-12.8-84,3.8-124.2s11.6-28.8,26.2-30.3Z" fill="#CCAD00"/><path d="M201.5,220.3l143,.5c3.2,1.8,5.5,4.8,5.3,8.7l-.8,190.3c-2.2,3.7-4.4,4.9-8.7,5.3-31.8,2.9-71.3-.5-104.1,0-33.1.4-43.4,6.4-59.6-27.3-22.2-46-21.9-102-1-148.3,4.8-10.7,13.1-26.9,25.9-29.1ZM344.8,226c-2.7-.9-4.4-1.8-7.4-2.1-23.1-2.1-54.1.9-78,1.1s-33.6-.4-50.3.2c-24.8,33.1-38.1,73.5-33.1,115.1,3.6,29.7,15.8,56.1,32.8,80.2l134.5-1.6,1.5-4c-67.9-.6-113.8-70.7-84.9-133.4s44.1-49.5,77.4-53.6c.8,0,10.1.8,7.5-2ZM204.8,225c-14.6,1.5-21.3,18.4-26.2,30.3-16.6,40.2-18.2,83-3.8,124.2,3.6,10.4,15.5,38.7,27.5,40.5,1.3.2,2-.1,1.5-1.5-.8-2.1-5.7-7.9-7.4-10.6-35.7-59-32.9-127.5,8.4-182.9ZM344.8,231c-64,1.9-108.4,64.8-82.9,125.4s47,54.8,82.9,55.6v-38c-18.2.8-37.7-11.7-45.8-27.7-18.2-35.8,6.4-75.9,45.8-77.3v-38ZM345.8,273c-37.3-1.2-61.1,39-43.5,72,7.9,14.8,24.4,24.9,41,26,2.9.2,1-4.1,1.5-6-56.1-3.5-56.2-83.4,0-86.4l.9-5.6ZM344.8,282c-51.8,3.2-51.7,75.4,0,80v-80Z" fill="#140808"/><path d="M344.8,226c2.7,2.8-6.7,1.9-7.5,2-33.2,4.1-63.1,22.8-77.4,53.6-29,62.6,17,132.8,84.9,133.4l-1.5,4-134.5,1.6c-17-24.1-29.3-50.5-32.8-80.2-5-41.7,8.3-82,33.1-115.1,16.8-.5,33.6,0,50.3-.2,23.9-.2,54.9-3.2,78-1.1,3,.3,4.7,1.2,7.4,2.1Z" fill="#9c9c9c"/><path d="M344.8,231v38c-39.4,1.4-64,41.5-45.8,77.3,8.1,16,27.6,28.4,45.8,27.7v38c-35.9-.9-68.9-22.5-82.9-55.6-25.6-60.6,18.9-123.4,82.9-125.4Z" fill="#5e5e5e"/><path d="M344.8,282v80c-51.7-4.6-51.8-76.8,0-80Z" fill="#9c9c9c"/><path d="M345.8,273l-.9,5.6c-56.3,3-56.2,82.9,0,86.4-.5,1.9,1.4,6.2-1.5,6-16.6-1.1-33.1-11.2-41-26-17.5-33,6.2-73.2,43.5-72Z" fill="#9c9c9c"/><path d="M880.8,420l14.5-24c28.7-55.8,22.6-121-15.5-170.5,12.3-.6,19.6,15,24.2,24.8,20.8,44.7,21.3,97.3,1,142.4-4.9,10.9-11.8,24.1-24.2,27.3Z" fill="#CCAD00"/><path d="M380.5,223.3l324.2.3c3.5,2,6.4,4.4,6.1,8.9-1.6,55.2,1.5,110.9.9,165.9,0,3.8-.4,12.6-1,16s-5.8,7.4-10.4,7.6h-316.1c-6.6-.1-11.4-5-11.5-11.5v-176.1c-.1-5.6,3.1-8.9,7.8-11.2ZM388.8,230c-4.2,1.9-8,4.9-7,10-3-.6-1.9,1.5-2,3.5-1.8,53.6,1.4,107.5,0,161.1-.3,1.9,2,1.3,2.1,1.4,1.4,1.7.5,6.2,6,9s1.7,1.5,3.4,1.1h303.2c1.6.6,2.5-.7,3.4-1.1,5-2,4.7-3.4,5-8,2.7,1.8,1.9,1,2-1.5,2.2-54.5-1.7-110.4,0-165.1.5-1.5-.8-2.6-1.1-3.4s-.5-1.3-1-2c-1.8-2.4-3.5-3.6-6-5h-308Z" fill="#FFD800"/><polygon points="702.8 238 702.8 237 703.8 237 702.8 238" fill="#FFD800"/><path d="M703.8,237h-1v-2c.5.7.7,1.1,1,2Z" fill="#CCAD00"/><path d="M703.8,237c.3.8,1.6,1.8,1.1,3.4-1.8,54.7,2.1,110.6,0,165.1,0,2.5.7,3.3-2,1.5,1.7-29.5,0-62.2,0-92,1.6-1,1.6-5.1,0-6v-71l1-1Z" fill="#CCAD00"/><path d="M696.8,230c2.5,1.4,4.2,2.6,6,5v80c0,29.8,1.7,62.5,0,92-.3,4.6,0,6-5,8h-310c-5.5-2.8-4.6-7.3-6-9v-166c-1-5.1,2.8-8.1,7-10h308Z" fill="#f2eedf"/><path d="M381.8,240v166c0-.1-2.4.5-2.1-1.4,1.5-53.6-1.7-107.5,0-161.1,0-1.9-1-4,2-3.5Z" fill="#CCAD00"/><path d="M697.8,415c-.9.3-1.8,1.6-3.4,1.1h-303.2c-1.7.5-2.4-.5-3.4-1.1h310Z" fill="#CCAD00"/><path d="M702.8,315v-6c1.6.9,1.6,5,0,6Z" fill="#FFD800"/><path d="M741.5,220.2l139.8-.2c17,1.9,26.6,25.1,32,39,15.5,39.8,15.7,86.4.3,126.3-5.9,15.3-15.5,38.6-34.2,39.8l-139.3-.8c-3.2-1.8-5.5-4.8-5.3-8.7v-187.1c.2-3.9,3.2-7.1,6.8-8.3ZM883.4,235.4c-.4-.6-1.8-1-2.5-2-2-2.7-3.5-5.8-5.6-8.5h-131.1c-4.2.1-4.9,3.4-4.5,7.1,62.3,4.2,102.6,69.3,76.5,127-13.3,29.4-45,51.6-77.5,53l2.4,7.1,132.2,1.8c3.2-.2,6-6.3,7.8-8.6,19.5-25.1,30.6-66.8,28.7-98.9-1.5-24.5-12.7-57.8-26.4-78.1ZM880.8,420c12.4-3.2,19.3-16.4,24.2-27.3,20.3-45,19.8-97.6-1-142.4-4.5-9.8-11.9-25.4-24.2-24.8,38.1,49.6,44.2,114.7,15.5,170.5l-14.5,24ZM739.8,409c38.7-4.2,72.2-32.2,79.5-71,9.8-51.7-27.7-97.9-79-103.1l-1.1,34.1c63.9,7.8,64.5,98.1-.3,105l.9,34.9ZM738.8,370c11.5.7,25.5-7,33-15.5,27.3-30.7,7.5-79.1-33-81.5v6c51.9,5.4,52.2,78.8.9,85.5l-.9,5.6ZM738.8,361c48.1-4.7,48.1-73.8,0-79v79Z" fill="#140808"/><path d="M883.4,235.4c13.7,20.3,24.9,53.7,26.4,78.1,1.9,32.1-9.2,73.7-28.7,98.9-1.8,2.3-4.6,8.4-7.8,8.6l-132.2-1.8-2.4-7.1c32.5-1.4,64.2-23.7,77.5-53,26.1-57.7-14.1-122.8-76.5-127-.4-3.6.2-7,4.5-7h131.1c2.1,2.6,3.6,5.7,5.6,8.4s2.1,1.4,2.5,2Z" fill="#9c9c9c"/><path d="M739.8,409l-.9-34.9c64.8-6.9,64.2-97.2.3-105l1.1-34.1c51.3,5.1,88.8,51.4,79,103.1-7.3,38.7-40.9,66.8-79.5,71Z" fill="#5e5e5e"/><path d="M738.8,361v-79c48.1,5.2,48.1,74.3,0,79Z" fill="#9c9c9c"/><path d="M738.8,370l.9-5.6c51.3-6.7,51-80.1-.9-85.5v-6c40.5,2.4,60.3,50.8,33,81.5-7.5,8.5-21.5,16.2-33,15.5Z" fill="#9c9c9c"/><path d="M414,337.6l-3.4,6.9c-.5.9-.7,2-.7,3,0,1.7,0,1.9,1.1,3.6h-14.1c3-3.8,3.9-5.2,5.7-9l18.2-38.1-2.2-2.8h22.5l17.8,43.1c1.1,2.6,2.7,5,4.4,6.9h-25c.9-1.9,1.1-2.2,1.1-3.3s-.2-2.7-.7-3.7l-2.7-6.4h-21.9ZM432.6,329.4l-7.1-16.8-7.6,16.8h14.7Z" fill="#FFD800"/><path d="M482.8,340.1c0,2.7,1.2,3.7,4.2,3.7h9c6.1,0,7.6-.8,9.8-1.8l-1.3,9h-28.5c-8.4,0-11.5-4.7-11.5-11.4v-13.9c0-6.7,3.1-11.4,11.5-11.4h28.6l1.6,9.1c-1.4-1.3-4.2-2-8.7-2h-10.5c-3,0-4.1,1.1-4.2,3.7v14.8Z" fill="#FFD800"/><path d="M515.5,306.9l18.4-.5v8h14.7v7.2h-14.7v19.3c0,2.3.4,3,3.7,3h6.5c3.6,0,5.8-1,6.6-1.4l-1.2,8.6h-23.1c-5.9,0-10.9-2.3-10.9-11.5v-18h-7.9v-7.2h7.9v-7.5Z" fill="#FFD800"/><path d="M556,322.8c0-5.1-.9-6.6-2-8.4h20.4v28.2c0,5.1.9,6.6,2,8.4h-22.5c1.1-1.9,2-3.4,2-8.4v-19.8ZM574.3,301.1v9.7h-18.1v-9.7h18.1Z" fill="#FFD800"/><path d="M631.4,340c0,7.6-2.3,11.1-10.6,11.1h-28.7c-8.3,0-10.6-3.4-10.6-11.1v-14.5c0-7.6,2.3-11.1,10.6-11.1h28.7c8.3,0,10.6,3.4,10.6,11.1v14.5ZM599.8,340.9c0,2.1.6,3,2.7,3h7.6c2.2,0,2.8-.9,2.8-3v-16.4c0-2.1-.6-3-2.8-3h-7.6c-2,0-2.7.9-2.7,3v16.4Z" fill="#FFD800"/><path d="M654.2,314.4l.5,3.8h.2c.9-1.9,2-3.8,4.8-3.8h14.9c8.7,0,12.2,5.1,12.2,13.3v14.9c0,5.1.9,6.6,2,8.4h-22.5c1.1-1.9,2-3.4,2-8.4v-18c0-2.3-.8-3-3-3h-6.7c-2.3,0-3,.8-3,3v18c0,5.1.9,6.6,2,8.4h-22.5c1.1-1.9,2-3.4,2-8.4v-19.8c0-5.1-.9-6.6-2-8.4h19Z" fill="#FFD800"/></svg>