<?xml version="1.0" encoding="UTF-8"?><svg id="a" xmlns="http://www.w3.org/2000/svg" width="1088.6" height="641.9" viewBox="0 0 1088.6 641.9"><path d="M518.1,96.2l40.3.2,1.5-3.6h380.1c5.5,1.9,7.5,6.6,8,12,1.8,18.8,1.5,55.1,0,74.1s-4,16-5.1,23.9l4.1,1,1,3v297c-5,18.9-20,35.2-30,52-1.4,1.2-3.9,2.9-5.8,3.2-5.7,1.2-11.4.1-16.7.2-137.8,1.1-276.3,1.2-414,1.1-95.7,0-190.6.2-286-1.1-10.1-.1-26.9,4.1-34.6-3.4-3.6-3.5-29-41.3-30.5-45.5s-1.2-4.3-1.5-6.5V206.8c-1.1-4.3,4.9-3,5-4-.6-8.2-4.4-15.8-5.1-23.9-1.5-19.5-1.4-52.5,0-72.1s1.3-11.4,7.3-13.7l380.8-.3,1.1,3.4ZM141,202.4v-65.5l1.5-1.5h792l1.5,1.5v65.5c3.1.5,1.6-.9,2-2.5,8.8-31.2,3.7-63,5-95.1-.1-3.1-2-5.8-4.7-7.3l-372.8-.3-5,4.1c-13.4-1-28.9,1.4-42,0s-4.3-3.8-6.9-4.1l-371.8.3c-3.3.9-5.6,3.8-5.7,7.3,1.3,32.2-3.8,63.9,5,95.1s-1.1,3,2,2.5ZM930,140.4H147l-1.1,66.4c-1,3.1-9.1,1.1-11.9,1.6v294.5c.8,9.8,6.8,16.1,16.5,17.5h774c12.1-.4,17.6-8,18.5-19.5V208.9c-.2-1.4-13,.9-13-3.1v-65.5ZM932,524.4l-786,.5c7.2,9.5,12.4,20.7,21,29h745c5.4-1.6,15.6-24.2,19.9-29.5Z" fill="#050505"/><path d="M930,140.4v65.5c0,4,12.8,1.6,13,3.1v292c-.9,11.5-6.3,19-18.5,19.5H150.5c-9.7-1.4-15.7-7.7-16.5-17.5V208.4c2.8-.5,10.9,1.4,11.9-1.6l1.1-66.4h783ZM197.7,215.6c-16.6,2-23.8,12.3-31,26-25.5,48.9-26.8,111.7-4.7,162,7,15.8,16.3,34.5,35.6,36.4l681.7.3c17.2-2.2,25.7-16.1,32.7-30.3,24.2-49.5,24.5-110.2,2-160.4-6.6-14.8-15.1-31.4-32.9-34.1H197.7Z" fill="#282828"/><path d="M141,202.4c-3.1.5-1.6-.9-2-2.5-8.8-31.2-3.7-62.9-5-95.1,0-3.5,2.4-6.4,5.7-7.3l371.8-.3c2.6.3.9,3.5,6.9,4.1,13.1,1.4,28.6-1.1,42,0l5-4.1,372.8.3c2.7,1.4,4.6,4.2,4.7,7.3-1.3,32.1,3.8,63.9-5,95.1-.4,1.6,1.1,3-2,2.5v-65.5l-1.5-1.5H142.5l-1.5,1.5v65.5Z" fill="#282828"/><path d="M932,524.4c-4.4,5.3-14.5,27.8-19.9,29.5H167c-8.6-8.4-13.8-19.6-21-29.1l786-.5Z" fill="#282828"/><path d="M197.7,215.6h683.5c17.8,2.6,26.3,19.3,32.9,34,22.5,50.2,22.2,110.9-2,160.4-7,14.3-15.5,28.1-32.7,30.3l-681.7-.3c-19.4-1.9-28.7-20.5-35.6-36.4-22.1-50.3-20.8-113.1,4.7-162s14.4-24.1,31-26ZM193.7,219.6c-19,3.2-32.1,39.9-36.7,56.3-11.6,41.4-9.3,85.6,7.7,125.1,5.6,12.9,14.5,32.5,29.9,35.1l686.8.2c15-1.7,24.5-20.7,30-33,21.9-49.2,20.9-109.6-3.1-157.8-5.7-11.5-11.4-22.7-25.1-25.9H193.7Z" fill="#050505"/><path d="M193.7,219.6h689.5c13.7,3.2,19.4,14.4,25.1,25.9,24,48.2,25,108.7,3.1,157.8-5.5,12.3-15,31.4-30,33l-686.8-.2c-15.4-2.6-24.3-22.2-29.9-35.1-17-39.5-19.3-83.7-7.7-125.1s17.6-53.1,36.7-56.3ZM204.8,224.7c-20.4,2-26.5,14.9-34,32-19.8,44.9-19.7,98.9.7,143.6s15.3,29.4,36,31c40.9,3.1,85.7-2.4,127,0,3.7-.2,9.2-1.7,10.7-5.3l.8-192.3c.2-6.9-5.6-9-11.5-9.5-41.9,2.8-88.4-3.7-129.7.3ZM739.7,224.6c-5.8,1.1-9.1,4.4-9.4,10.4-1.4,26.9.7,56.6.7,83.8,0,30.4-1.5,60.9,0,91.1s-3.5,20.2,11.5,21.5c41.4-2.4,86,3,127.1,0,16.8-1.2,22.6-6.4,30.6-20.4,25.8-45.1,27.3-104.2,7.3-151.6s-14.3-32.3-28.9-34.1c-12-1.5-27.7-.8-40.1-1-32.5-.5-65.9.3-98.7.3ZM375.7,225.6c-6.6,2.1-9.2,6.5-9.8,13.2v178.1c.4,10,7.4,13.7,16.5,14.5h312.1c9.5-.8,15.6-4.4,16.5-14.5v-177.1c-.7-8.3-3.5-13.6-12.5-14.5l-322.8.3Z" fill="#282828"/><path d="M375.7,225.6l322.8-.3c9,.9,11.8,6.2,12.5,14.5v177.1c-.9,10.1-7,13.7-16.5,14.5h-312.1c-9.2-.8-16.1-4.5-16.5-14.5v-178.1c.6-6.8,3.2-11.1,9.8-13.2ZM376.7,228.6c-4.8,1.8-7.8,6.1-7.7,11.3v176.1c0,4.8,2.3,8.3,6.3,10.7h326.5c3.7-2.2,6.2-6.3,6.3-10.7v-176.1c0-4.8-2.3-8.3-6.3-10.7l-325-.5Z" fill="#050505"/><path d="M201,230.4c-13.4,18.3-23.5,38.4-28.9,60.6-11.3,46.2-.6,95.2,27.9,132.9,1.7,4.5-7.8-2-8.5-2.5-6.3-5-11-14.4-14.4-21.6-20.9-44.2-20.9-94-2.3-139,4.9-11.9,11.6-28.8,26.2-30.3Z" fill="#282828"/><path d="M204.8,224.7c41.3-4,87.9,2.4,129.7-.3,5.9.5,11.7,2.6,11.5,9.5l-.8,192.3c-1.5,3.6-7,5.1-10.7,5.3-41.3-2.4-86.1,3.1-127,0-20.6-1.6-28-13.6-36-31-20.4-44.7-20.5-98.7-.7-143.6,7.5-17.1,13.5-30,34-32ZM201,230.4c-14.6,1.5-21.3,18.4-26.2,30.3-18.6,45-18.6,94.8,2.3,139,3.4,7.3,8.1,16.6,14.4,21.6s10.2,7,8.5,2.5c-28.5-37.8-39.2-86.7-27.9-132.9s15.6-42.2,28.9-60.6ZM341,233.3l-4.4-3h-129.1c-1.3-.1-2,.3-2.9,1.1s-7.5,10.8-8.9,13.1c-36,56.9-32.1,129.3,10.4,181.4h132c1.9-1.4,3.4-3,3-5.5-67.6-.6-113.9-71-84.9-133.4,14.9-32,49.4-53.7,84.9-53.7ZM341,236.4c-66.3,1.6-111.2,69.9-80.4,130.9,15.1,29.9,46.7,49.8,80.4,50.1v-38c-17.4.3-34.8-10-43.8-24.7-21.8-35.7,3.2-78.6,43.8-80.3v-38ZM342,278.4c-16.4-1.3-32.9,8.1-41.6,21.9-16.5,26.1-6.2,60,22.3,72,3.1,1.3,17,6.1,18.9,3.2l.4-5.1c-56.5-2.7-57.9-82.9-.9-86.4l.9-5.6ZM342,287.4c-51.8,1.2-53.8,74.3-2.5,80l2.5-1.5v-78.5Z" fill="#050505"/><path d="M341,233.3c-35.4,0-70,21.7-84.9,53.7-29,62.4,17.2,132.8,84.9,133.4.4,2.5-1.1,4.1-3,5.5h-132c-42.5-52.1-46.4-124.5-10.4-181.4s7.6-12,8.9-13.1,1.7-1.2,2.9-1.1h129.1s4.4,3.1,4.4,3.1Z" fill="#9e9e9e"/><path d="M341,236.4v38c-40.6,1.7-65.6,44.6-43.8,80.3,9,14.7,26.4,25,43.8,24.7v38c-33.7-.3-65.2-20.2-80.4-50.1-30.9-61,14.1-129.3,80.4-130.9Z" fill="#282828"/><path d="M342,287.4v78.5l-2.5,1.5c-51.3-5.8-49.4-78.8,2.5-80Z" fill="#9e9e9e"/><path d="M342,278.4l-.9,5.6c-57,3.5-55.6,83.7.9,86.4l-.4,5.1c-2,2.9-15.8-1.9-18.9-3.2-28.5-12-38.8-45.9-22.3-72,8.7-13.7,25.2-23.1,41.6-21.9Z" fill="#9e9e9e"/><path d="M877,425.4l14.5-24c28.8-55.6,22.6-121.2-15.5-170.5,12.2-.6,19.6,15,24.2,24.8,20.1,43.4,21.2,93.1,3,137.3-5,12.1-12.4,29-26.2,32.3Z" fill="#282828"/><path d="M376.7,228.6l325,.5c4,2.4,6.4,5.9,6.3,10.7v176.1c0,4.4-2.6,8.5-6.3,10.7h-326.5c-4-2.4-6.4-5.9-6.3-10.7v-176.1c0-5.2,2.9-9.5,7.7-11.3ZM384,235.4c-3.3.7-6,5-7,8s-1.7,1.8-1.1,3.4v164.2c-.4,2,2,1.3,2.1,1.4,1.3,2,2.1,6,5,8s1.1,1.4,2.4,1.1h305.2c1.3.3,1.7-.6,2.4-1.1,2.2-1.6,6.3-5.5,6-8.5l-.9-172.1-5.1-4.4h-309Z" fill="#282828"/><path d="M693,235.4l5.1,4.4.9,172.1c.3,3-3.8,6.9-6,8.5h-310c-2.9-2-3.7-6-5-8l-1-169c1-3,3.7-7.3,7-8h309Z" fill="#f2efe2"/><path d="M378,412.4c0-.1-2.5.6-2.1-1.4v-164.2c-.6-1.6.8-2.6,1.1-3.4l1,169Z" fill="#050505"/><path d="M693,420.4c-.7.5-1.1,1.4-2.4,1.1h-305.2c-1.3.3-1.7-.6-2.4-1.1h310Z" fill="#050505"/><path d="M739.7,224.6c32.8,0,66.2-.8,98.7-.3,12.4.2,28.1-.4,40.1,1,14.7,1.8,23.9,22.2,28.9,34.1,20,47.5,18.5,106.5-7.3,151.6-8,14-13.8,19.1-30.6,20.4-41,3-85.7-2.4-127.1,0-15-1.3-10.9-10.2-11.5-21.5-1.5-30.1,0-60.6,0-91.1,0-27.2-2-56.9-.7-83.8.3-6,3.6-9.3,9.4-10.4ZM871.7,426.1c42.1-54,46.8-130.8,6-187.1-1.6-2.2-5.3-8.3-7.3-8.7-41,0-82,0-123.1,0-6.1,0-11.9-3.1-11.5,6.9,59.9,3.8,100.5,65.4,78.5,122-12.7,32.5-44.5,56-79.5,58,0,5,1.7,9.6,7.5,9l129.3-.3ZM877,425.4c13.8-3.3,21.2-20.2,26.2-32.3,18.2-44.3,17.1-93.9-3-137.3s-11.9-25.4-24.2-24.8c38.1,49.3,44.3,114.9,15.5,170.5l-14.5,24ZM735.1,379.5l.8,34.5c53.7-4,92.6-56.6,78.3-109.4-8.1-30-33.3-54.2-63.3-61.7-2.7-.7-11.3-2.7-13.5-2.5-4.4.3-1.5,5.6-1.4,8.5,0,8.6-2.2,17-.6,25.6,64.2,8.3,64,97.6-.3,105ZM734.9,375.4c14.8.5,30-9.4,37.8-21.7,20.1-31.4-.8-73.4-37.8-75.3v6c51.9,5.3,52.1,78.8.9,85.4l-.9,5.6ZM735,366.4c48.3-4.6,48-73.9,0-79v79Z" fill="#050505"/><path d="M871.7,426.1l-129.3.3c-5.8.5-7.5-4.1-7.5-9,35-2,66.8-25.5,79.5-58,22-56.6-18.6-118.2-78.5-122-.5-10.1,5.3-6.9,11.5-6.9,41,0,82,0,123.1,0,2,.4,5.7,6.5,7.3,8.7,40.7,56.3,36.1,133-6,187.1Z" fill="#9e9e9e"/><path d="M735.1,379.5c64.3-7.5,64.5-96.7.3-105-1.6-8.6.6-17,.6-25.6s-2.9-8.2,1.4-8.5,10.8,1.8,13.5,2.5c30,7.6,55.2,31.8,63.3,61.7,14.3,52.8-24.6,105.4-78.3,109.4l-.8-34.5Z" fill="#282828"/><path d="M735,366.4v-79c48,5.1,48.3,74.4,0,79Z" fill="#9e9e9e"/><path d="M734.9,375.4l.9-5.6c51.2-6.6,50.9-80.2-.9-85.4v-6c37,2,57.9,43.9,37.8,75.3-7.8,12.3-23,22.2-37.8,21.7Z" fill="#9e9e9e"/><path d="M439.4,359.5c-.3-.5-.5-1.1-.5-1.7,0-1.1,0-1.8-.2-2.2-.3-1-.4-1.7-.4-2.3s-.1-1.1-.3-1.5c-.2-.4-.7-.9-1.6-1.4-1.1-.5-2.4-.7-3.9-.7s-1.1.5-1.4,1.6c-.2,1.4-.4,2.3-.6,2.8-.2.5-.5.7-.9.7s-.8-.1-.9-.4c-.2-.2-.2-1.6-.2-4-.4-2.3-.6-4.5-.6-6.8s0-1.7.1-2.5c0-.8.1-1.7.1-2.6s0-2.4-.1-3.6c0-1.2-.1-2.4-.1-3.7v-1.8c0-1.1-.3-2.1-1-3-.7-.9-1.7-1.4-3-1.4s-2.4.5-2.7,1.5c-.2.7-.4,1.4-.4,2.2,0,.7-.1,1.3-.3,1.8-.2.5-.5.7-.9.7s-.7-.1-.8-.5c-.1-.3-.2-.8-.2-1.5s0-1.4-.1-1.9c0-.6-.3-1.1-.7-1.6-.5.4-.8.9-.9,1.4,0,.5-.1,1.1-.1,2,0,3.7,0,6.8-.3,9.4-.2,2.8-.8,7.6-1.5,14.4-.1,1.9-.2,2.9-.3,3.2,0,.3-.4.4-.9.5-.4,0-.7-.3-.8-.8-.1-.5-.2-1.2-.3-2-.1-1.2-.4-2.3-.7-3.4-.4-1.1-1.3-1.6-2.7-1.6h-1.6c-.7,0-1.4,0-2.2-.5-.2-.1-.4-.2-.5-.2-.3,0-.5.2-.6.7l-.5,2.7c-.4,1.3-.6,2.7-.6,4.1s-.2,1.2-.5,1.6c-.3.4-.7.6-1,.6-.7,0-1.1-.6-1.1-1.8v-1.5c0-1.2,0-2.4,0-3.6-.1-1.2-.2-2.4-.2-3.6s0-2,.3-3.1c.3-2,.6-4.9.9-8.8.1-2,.2-4.3.2-6.9-.1-1.2-.2-2.7-.2-4.5s0-5,.1-7.6c0-2.7.1-5.2.1-7.4s-.1-5.2-.4-6.8c-.1.4-.3.9-.4,1.3-.2.5-.2.9-.3,1.3,0,.4-.2.7-.4.9s-.5.3-.8.3c-.5,0-.8-.3-.9-1,0-.7-.1-2.2-.1-4.7-.2-.9-.3-2.2-.3-3.8s.3-2.9.8-4.4c.5-1.5,1.7-2.9,3.4-4.4.7-.5,1.5-.7,2.4-.7s1.1,0,1.6,0c.5,0,1,0,1.5,0s1,0,1.5-.1c.4,0,.9-.1,1.3-.1,1.4,0,2.7.2,3.8.6,1.2.4,1.8,1.2,1.8,2.5s0,2.3.3,3.2c.1.7.2,2.7.3,6v6.6c0,1.7.2,2.9.7,3.3.5.5,1.8.7,3.9.7h3.3c2.1-.1,3.1-1,3.1-2.5s0-1-.2-1.6c-.1-.6-.2-1.3-.2-2v-3.6c0,0,0-.3,0-.3,0-.3,0-.5,0-.5-.6-.4-.9-.9-.9-1.4s0-.8.2-1.3c.2-1,.4-2.7.4-5.2s.2-1.9.6-2.4c.4-.5,1.1-1,2.1-1.3,1.6-.5,3.2-.8,4.9-.8l3.9.2c1.1,0,1.9.4,2.6,1.3.7.9,1,1.8,1,2.9s0,1.4,0,2c-.2,1.1-.3,2.7-.3,4.6,0,3.2.3,7.4,1,12.7.2,1.1.3,1.9.3,2.2-.1,1-.3,1.5-.5,1.6-.2,0-.4.2-.6.2-.5,0-.7.2-.7.7.1,13.4.2,20.3.3,20.7,0,4.4.3,7.8.7,10.4.1.4.2.9.2,1.4s-.1,1.8-.4,3.5c0,2.8,0,4.5-.1,5.2,0,.7-.3,1.6-.5,2.7-.2.7-.6,1.1-1,1.1s-.7-.2-1-.7Z" fill="#282828"/><path d="M484.9,371.2c-1-.1-1.5-2.5-1.5-7.1v-6.5c0-2.5,0-4.6-.3-6.4-.3-1.8-.9-2.7-2-2.7s-1.1.3-1.8.9c-.7.6-1.7,1.1-3,1.5-1.3.4-3.5.6-6.6.6-3.9-.3-6.7-.9-8.3-1.8-.9-.5-1.6-.8-2.2-.8s-1.2.7-1.4,2.2l-.4,2.2c-.5,1.7-.7,3.5-.7,5.3v.7c0,1.2-.5,1.8-1.3,1.8s-.9-.3-1.4-.9c-.4-.6-.7-1.5-.7-2.8v-1.4c0-4.6-.7-10.4-2.3-17.6l-.9-4c-.4-2.2-.7-3.7-.8-4.6-.1-.9-.2-1.4-.3-1.6,0-.1-.2-.2-.3-.2-1.3,0-2-1-2-2.9s.3-3.2.8-5.4c.5-2.2,1.1-4.5,1.8-7.1.7-2.5,1.4-5.2,2-7.9.2-.6.6-1.6,1.2-3,.6-1.4,1.3-2.9,2.1-4.5.8-1.6,1.7-2.8,2.6-3.9,2.8-3.1,5.4-5,7.8-5.6,2.4-.6,4.6-.9,6.8-.9h3.2c1.6,0,3.4.7,5.6,2.1,2.2,1.4,3.8,2.8,5,4.2,2.1,2.5,3.8,6,5.2,10.6,1.4,4.5,2.1,9.7,2.1,15.4s-.6,9.7-1.8,14.9c0,.4,0,1.1,0,1.9s0,1.8,0,2.7c0,.9-.2,1.7-.4,2.3-.2.7-.6,1-1.1,1s-.4,0-.6-.1c-.2,0-.4-.2-.6-.2-.1,0-.2,0-.3.1,0,0,0,.2,0,.3s0,.2,0,.2c-.7,2.4-1,4.4-1,5.9,0,3.2-.2,6.2-.3,9-.1,2.8-.2,5.5-.2,8.2v3.9c0,1.3-.3,2-1,2h-.2ZM473.8,335.2c2.6-2.8,3.9-9.1,3.9-18.7s-.5-8.5-1.4-11.7c-.2-.5-1-1.2-2.2-2-.5-.3-1-.5-1.4-.5-1.9.5-3,1.6-3.4,3.2-.4,1.6-.6,3.2-.6,4.7v1.7c0,.7,0,1.3,0,1.8-.1.8-.5,1.2-1.1,1.2s-1-.3-1.2-.9c-.2-.6-.3-1.2-.3-1.9,0-1.1-.3-2-.6-2.9l-.5,4.6c-.1.7-.2,1.3-.2,2s0,1.5,0,2.4c0,.9,0,2.1,0,3.4l.4,3.8c0,.6,0,1.1-.3,1.6-.2.5-.3.9-.3,1.3,0,.7.2,1.3.7,1.8.2.4.5.9.8,1.5.3.6.4,1.4.4,2.4s.3,1.9,1,2.5c.7.7,1.4,1,2.2,1,1.3,0,2.7-.8,4.1-2.3Z" fill="#282828"/><path d="M497.6,366.5l.2-1.7c.1-.7.2-1.7.2-2.8,0-2.3-.2-4.5-.6-6.5-.4-2-.6-4.3-.6-6.8v-2.7c.2-1.3.3-2.7.3-4.1v-8.2c.1-3.3.3-5.5.5-6.6.1-.7.2-1.6.3-3,0-.2,0-.4-.3-.5-.8-.5-1.2-1.3-1.2-2.3s.1-1.9.4-3.1c.4-1.5.5-3,.5-4.6s0-1.2,0-1.7c0-.5,0-1.1,0-1.7,0-2.1,0-3.8.3-5,.2-1.2.3-2.7.5-4.5,0-.7,0-1.1,0-1.4,0-.3,0-.6,0-1.1,0-1.1.3-3.3.8-6.7.2-1.3.7-2.2,1.5-2.5s1.7-.5,2.7-.5c.8,0,1.5-.2,2.2-.4,1.1-.3,2.2-.5,3.2-.5s1.5,0,2.4,0c.9,0,1.9,0,3.2,0h4.1c2.7,0,5.9.6,9.5,2l1.5.5c1.1.2,2.2.7,3.2,1.4,5.2,3.8,7.7,8.8,7.7,14.8s-.2,4.3-.7,6.4c-.5,2.1-1,4.2-1.6,6.2-1.2,4.2-1.8,7.2-1.8,9.1v1.1c0,.6-.3.9-.9.9s-.8-.3-.9-.9c-.2-2-.5-3.4-.9-4.1-.3-.8-.8-1.2-1.4-1.2s-1.3.2-2,.7c-.7.4-1,1-1,1.8s.1,1.2.4,2c.3.8.6,1.5,1,2,1.7,2.5,3.6,7.3,5.7,14.4.2.7.4,1.3.5,1.7.7,2.2,1.1,3.6,1.1,4.2s0,.5-.2.6c-.4.5-.7,1-.8,1.4-.1.5-.2,1-.3,1.7,0,1.1-.3,2.9-.8,5.4-.2.7-.6,1.1-1.2,1.1-.8,0-1.2-.6-1.2-1.9s.1-1.8.3-2.4c.2-.6.3-1.2.3-1.8,0-2.5-1.1-3.8-3.2-3.8s-1,0-1.5,0c-.5,0-.9,0-1.2,0h-.6c-.3,0-.5.1-.5.6,0,.8-.2,1.6-.4,2.3-.2.8-.3,1.7-.3,2.6v1.3c0,.6-.3.9-.9.9-.3,0-.5-.2-.5-.3,0-.2-.1-.6-.2-1.4-.1-4.6-1-8.7-2.6-12.2l-.3-.6c-.2-1-.8-1.6-1.7-1.6-.4,0-.7-.6-1-1.7l-.2-.9c-.2-2-1.2-4.6-2.8-7.8-.7-1.4-1.3-2.4-2-3,.1.4.2,1.1.2,1.9,0,1.8-.2,4.2-.4,7.1-.3,2.9-.5,5.4-.5,7.5v1.5c0,1-.1,1.9-.4,2.9-.3,1-.4,1.9-.5,2.9,0,.5-.1.9-.4,1.2-.3.3-.6.5-.9.5-.5,0-1-.5-1.3-1.4-.3-.9-.9-1.4-1.8-1.4l-1.9.2c-.6,0-1.2-.1-1.8-.3-.6-.2-1.1-.3-1.5-.3-1,0-1.5.8-1.5,2.2-.3,2.6-.5,4.8-.5,6.8v4.7c0,1.1,0,1.9-.1,2.4-.2.5-.5.8-1,.8-1,0-1.4-.8-1.4-2.2ZM519.1,313.9h2.3c.6,0,1.1,0,1.5-.2.4-.2.9-.8,1.4-1.9.8-1.9,1.3-3.3,1.3-4.2s-.2-1.7-.5-2.8c0,0,0,.1-.1.2,0,0-.1.2-.1.3v.6c0,.8,0,1.7-.3,2.5l-.3,1.3c-.3,1.3-.8,1.9-1.4,1.9s-.6-.1-.9-.5c-.3-.3-.4-.7-.4-1.3v-1.9c0-2.6-.1-4.2-.5-4.8-.4-.6-1-1.1-1.8-1.4s-1.5-.5-2-.5c-.9.2-1.7.7-2.4,1.6s-1.1,1.7-1.1,2.5l-.2,6.8c0,.9,0,1.5.1,1.8s.3.4.6.4c2.5-.4,4.1-.6,4.9-.6Z" fill="#282828"/><path d="M544.7,366.5l.2-1.7c.1-.7.2-1.7.2-2.8,0-2.3-.2-4.5-.6-6.5-.4-2-.6-4.3-.6-6.8v-2.7c.2-1.3.3-2.7.3-4.1v-8.2c.1-3.3.3-5.5.5-6.6.1-.7.2-1.6.3-3,0-.2,0-.4-.3-.5-.8-.5-1.2-1.3-1.2-2.3s.1-1.9.4-3.1c.4-1.5.5-3,.5-4.6s0-1.2,0-1.7c0-.5,0-1.1,0-1.7,0-2.1,0-3.8.3-5,.2-1.2.3-2.7.5-4.5,0-.7,0-1.1,0-1.4,0-.3,0-.6,0-1.1,0-1.1.3-3.3.8-6.7.2-1.3.7-2.2,1.5-2.5.8-.4,1.7-.5,2.7-.5.8,0,1.5-.2,2.2-.4,1.1-.3,2.2-.5,3.2-.5s1.5,0,2.4,0c.9,0,1.9,0,3.2,0h4c2.7,0,5.9.6,9.5,2l1.5.5c1.1.2,2.2.7,3.2,1.4,5.2,3.8,7.7,8.8,7.7,14.8s-.2,4.3-.7,6.4c-.5,2.1-1,4.2-1.6,6.2-1.2,4.2-1.8,7.2-1.8,9.1v1.1c0,.6-.3.9-.9.9s-.8-.3-.9-.9c-.2-2-.5-3.4-.9-4.1-.3-.8-.8-1.2-1.4-1.2s-1.3.2-2,.7c-.7.4-1,1-1,1.8s.1,1.2.4,2c.3.8.6,1.5,1,2,1.7,2.5,3.6,7.3,5.7,14.4.2.7.4,1.3.5,1.7.7,2.2,1.1,3.6,1.1,4.2s0,.5-.2.6c-.4.5-.7,1-.8,1.4-.1.5-.2,1-.3,1.7,0,1.1-.3,2.9-.8,5.4-.2.7-.6,1.1-1.2,1.1-.8,0-1.2-.6-1.2-1.9s.1-1.8.3-2.4c.2-.6.3-1.2.3-1.8,0-2.5-1.1-3.8-3.2-3.8s-1,0-1.5,0c-.5,0-.9,0-1.2,0h-.6c-.3,0-.5.1-.5.6,0,.8-.2,1.6-.4,2.3-.2.8-.3,1.7-.3,2.6v1.3c0,.6-.3.9-.9.9-.3,0-.5-.2-.5-.3,0-.2-.1-.6-.2-1.4-.1-4.6-1-8.7-2.6-12.2l-.3-.6c-.2-1-.8-1.6-1.7-1.6-.4,0-.7-.6-1-1.7l-.2-.9c-.2-2-1.2-4.6-2.8-7.8-.7-1.4-1.3-2.4-2-3,.1.4.2,1.1.2,1.9,0,1.8-.2,4.2-.5,7.1-.3,2.9-.5,5.4-.5,7.5v1.5c0,1-.1,1.9-.4,2.9-.3,1-.4,1.9-.5,2.9,0,.5-.1.9-.4,1.2-.3.3-.6.5-.9.5-.5,0-1-.5-1.3-1.4-.3-.9-.9-1.4-1.8-1.4l-1.9.2c-.6,0-1.2-.1-1.8-.3-.6-.2-1.1-.3-1.5-.3-1,0-1.5.8-1.5,2.2-.3,2.6-.5,4.8-.5,6.8v4.7c0,1.1,0,1.9-.1,2.4-.2.5-.5.8-1,.8-1,0-1.4-.8-1.4-2.2ZM566.1,313.9h2.3c.6,0,1.1,0,1.5-.2.4-.2.9-.8,1.3-1.9.8-1.9,1.3-3.3,1.3-4.2s-.2-1.7-.5-2.8c0,0,0,.1-.1.2,0,0-.1.2-.1.3v.6c0,.8,0,1.7-.3,2.5l-.3,1.3c-.3,1.3-.8,1.9-1.4,1.9s-.6-.1-.9-.5c-.3-.3-.4-.7-.4-1.3v-1.9c0-2.6-.1-4.2-.5-4.8-.4-.6-1-1.1-1.8-1.4-.8-.4-1.5-.5-2-.5-.9.2-1.7.7-2.4,1.6s-1.1,1.7-1.1,2.5l-.2,6.8c0,.9,0,1.5.1,1.8s.3.4.6.4c2.5-.4,4.1-.6,4.9-.6Z" fill="#282828"/><path d="M628.6,371.2c-1-.1-1.5-2.5-1.5-7.1v-6.5c0-2.5,0-4.6-.3-6.4-.3-1.8-.9-2.7-2-2.7s-1.1.3-1.8.9-1.7,1.1-3,1.5c-1.3.4-3.5.6-6.6.6-3.9-.3-6.7-.9-8.3-1.8-.9-.5-1.6-.8-2.2-.8s-1.2.7-1.4,2.2l-.4,2.2c-.5,1.7-.7,3.5-.7,5.3v.7c0,1.2-.5,1.8-1.3,1.8s-.9-.3-1.4-.9c-.5-.6-.7-1.5-.7-2.8v-1.4c0-4.6-.7-10.4-2.3-17.6l-.9-4c-.4-2.2-.7-3.7-.8-4.6-.1-.9-.2-1.4-.3-1.6,0-.1-.2-.2-.3-.2-1.3,0-2-1-2-2.9s.3-3.2.8-5.4c.5-2.2,1.1-4.5,1.8-7.1.7-2.5,1.4-5.2,2-7.9.2-.6.6-1.6,1.2-3,.6-1.4,1.3-2.9,2.1-4.5.8-1.6,1.7-2.8,2.6-3.9,2.8-3.1,5.4-5,7.8-5.6,2.4-.6,4.6-.9,6.8-.9h3.1c1.6,0,3.4.7,5.6,2.1,2.2,1.4,3.8,2.8,5,4.2,2.1,2.5,3.8,6,5.2,10.6,1.4,4.5,2.1,9.7,2.1,15.4s-.6,9.7-1.8,14.9c0,.4,0,1.1,0,1.9s0,1.8,0,2.7-.2,1.7-.4,2.3c-.2.7-.6,1-1.1,1s-.5,0-.6-.1c-.2,0-.4-.2-.6-.2-.1,0-.2,0-.3.1,0,0,0,.2,0,.3s0,.2,0,.2c-.7,2.4-1,4.4-1,5.9,0,3.2-.2,6.2-.3,9-.1,2.8-.2,5.5-.2,8.2v3.9c0,1.3-.3,2-1,2h-.2ZM617.5,335.2c2.6-2.8,3.9-9.1,3.9-18.7s-.5-8.5-1.4-11.7c-.2-.5-1-1.2-2.2-2-.5-.3-1-.5-1.4-.5-1.9.5-3,1.6-3.4,3.2-.4,1.6-.6,3.2-.6,4.7v1.7c0,.7,0,1.3,0,1.8-.1.8-.5,1.2-1.1,1.2s-1-.3-1.2-.9c-.2-.6-.3-1.2-.3-1.9,0-1.1-.3-2-.6-2.9l-.5,4.6c-.1.7-.2,1.3-.2,2s0,1.5,0,2.4c0,.9,0,2.1,0,3.4l.4,3.8c0,.6,0,1.1-.3,1.6-.2.5-.3.9-.3,1.3,0,.7.2,1.3.7,1.8.2.4.5.9.8,1.5.3.6.4,1.4.4,2.4s.3,1.9,1,2.5c.7.7,1.4,1,2.2,1,1.3,0,2.7-.8,4.1-2.3Z" fill="#282828"/><path d="M641.4,366.5l.2-1.7c.1-.7.2-1.7.2-2.8,0-2.3-.2-4.5-.6-6.5-.4-2-.6-4.3-.6-6.8v-2.7c.2-1.3.3-2.7.3-4.1v-8.2c.1-3.3.3-5.5.5-6.6.1-.7.2-1.6.3-3,0-.2,0-.4-.3-.5-.8-.5-1.2-1.3-1.2-2.3s.1-1.9.4-3.1c.4-1.5.5-3,.5-4.6s0-1.2,0-1.7c0-.5,0-1.1,0-1.7,0-2.1,0-3.8.3-5,.2-1.2.3-2.7.5-4.5,0-.7,0-1.1,0-1.4,0-.3,0-.6,0-1.1,0-1.1.3-3.3.8-6.7.2-1.3.7-2.2,1.5-2.5.8-.4,1.7-.5,2.7-.5.8,0,1.5-.2,2.2-.4,1.1-.3,2.2-.5,3.2-.5s1.5,0,2.4,0c.9,0,1.9,0,3.2,0h4c2.7,0,5.9.6,9.5,2l1.5.5c1.1.2,2.2.7,3.2,1.4,5.2,3.8,7.7,8.8,7.7,14.8s-.2,4.3-.7,6.4c-.5,2.1-1,4.2-1.6,6.2-1.2,4.2-1.8,7.2-1.8,9.1v1.1c0,.6-.3.9-.9.9s-.8-.3-.9-.9c-.2-2-.5-3.4-.9-4.1-.3-.8-.8-1.2-1.4-1.2s-1.3.2-2,.7c-.7.4-1,1-1,1.8s.1,1.2.4,2c.3.8.6,1.5,1,2,1.7,2.5,3.6,7.3,5.7,14.4.2.7.4,1.3.5,1.7.7,2.2,1.1,3.6,1.1,4.2s0,.5-.2.6c-.4.5-.7,1-.8,1.4-.1.5-.2,1-.3,1.7,0,1.1-.3,2.9-.8,5.4-.2.7-.6,1.1-1.2,1.1-.8,0-1.2-.6-1.2-1.9s.1-1.8.3-2.4c.2-.6.3-1.2.3-1.8,0-2.5-1.1-3.8-3.2-3.8s-1,0-1.5,0c-.5,0-.9,0-1.2,0h-.6c-.3,0-.5.1-.5.6,0,.8-.2,1.6-.4,2.3-.2.8-.3,1.7-.3,2.6v1.3c0,.6-.3.9-.9.9-.3,0-.5-.2-.5-.3,0-.2-.1-.6-.2-1.4-.1-4.6-1-8.7-2.6-12.2l-.3-.6c-.2-1-.8-1.6-1.7-1.6-.4,0-.7-.6-1-1.7l-.2-.9c-.2-2-1.2-4.6-2.8-7.8-.7-1.4-1.3-2.4-2-3,.1.4.2,1.1.2,1.9,0,1.8-.2,4.2-.5,7.1-.3,2.9-.5,5.4-.5,7.5v1.5c0,1-.1,1.9-.4,2.9-.3,1-.4,1.9-.5,2.9,0,.5-.1.9-.4,1.2-.3.3-.6.5-.9.5-.5,0-1-.5-1.3-1.4-.3-.9-.9-1.4-1.8-1.4l-1.9.2c-.6,0-1.2-.1-1.8-.3-.6-.2-1.1-.3-1.5-.3-1,0-1.5.8-1.5,2.2-.3,2.6-.5,4.8-.5,6.8v4.7c0,1.1,0,1.9-.1,2.4-.2.5-.5.8-1,.8-1,0-1.4-.8-1.4-2.2ZM662.8,313.9h2.3c.6,0,1.1,0,1.5-.2.4-.2.9-.8,1.3-1.9.8-1.9,1.3-3.3,1.3-4.2s-.2-1.7-.5-2.8c0,0,0,.1-.1.2,0,0-.1.2-.1.3v.6c0,.8,0,1.7-.3,2.5l-.3,1.3c-.3,1.3-.8,1.9-1.4,1.9s-.6-.1-.9-.5c-.3-.3-.4-.7-.4-1.3v-1.9c0-2.6-.1-4.2-.5-4.8-.4-.6-1-1.1-1.8-1.4-.8-.4-1.5-.5-2-.5-.9.2-1.7.7-2.4,1.6s-1.1,1.7-1.1,2.5l-.2,6.8c0,.9,0,1.5.1,1.8s.3.4.6.4c2.5-.4,4.1-.6,4.9-.6Z" fill="#282828"/></svg>