<?xml version="1.0" encoding="UTF-8"?><svg id="a" xmlns="http://www.w3.org/2000/svg" width="1088.6" height="641.9" viewBox="0 0 1088.6 641.9"><path d="M517.3,100l38.4.2,3.5-3.5,380.7.3c4.9,3,6.8,7.1,7.3,12.7,1.7,18.9,1.5,54,0,73.1-.6,8-4,16-5.1,23.9l3.9.6c.5,2.1,1,4.2,1.1,6.4,2.5,35.3-2.1,73.8,0,109-3.7,59.3,4.8,124.4,0,183-.2,2.3-.8,6.4-1.4,8.6-1.5,5.5-20.7,36-25.1,41.9-4.9,6.5-9,7.6-16.9,8.1H173.6c-4.9-.2-10.5-1.5-14-5-9.6-17.4-26.5-32.3-31.5-51.5V210.6c-1.1-4.3,4.9-3,5-4-.6-8.2-4.4-15.8-5.1-23.9-1.5-19-1.8-55.3,0-74.1s2.3-9.7,7.3-11.7l380.8-.3,1.1,3.4ZM140.2,206.2v-63.5c0-.4,2.3-3.5,2.5-3.5h790l1.5,1.5v65.5h3c.7-6,1.7-12.4,3.1-18.3s2.2-.7,2-2.2v-79.1s-5.8-5.2-5.8-5.2l-371.8-.3-5,4.1c-3.8.7-43.1.3-45.3-.7s-1.6-3.2-3.7-3.4l-371.8.3c-3.3.9-5.6,3.8-5.7,7.3,1.8,31.4-4.4,64.9,4.9,95.2s-.8,2.8,2.1,2.3ZM147.2,145.2c-.6.2-2-.6-2,.6v64.8c-1.1,3.1-9.2,1.1-12,1.6v294.5c-.2,5.1,2.4,7.9,5,11.5s1.2,1.3,2,2-.6,1.2,1.2,2.3,5.2,1.9,7.8,1.7c129,0,258,0,387,0,1,0,2,0,3,0,4.7,0,9.3,0,14,0,3,0,6,0,9,0s3.3,0,5,0,3.3,0,5,0c19.3,0,38.7,0,58,0,1.8,0,1.9-1,2-1,97.2,0,195.1,2.1,292.5,1,11.1-.4,16.6-8,17.5-18.5V212.2c-.4-.4-7.7.3-9.6,0s-1.9-1.6-2.5-2l-.9-65.6c-1.6-.8-3.4-.3-5.1-.4-4.9-.3-10,0-15,0s-12,0-18,0-16.7,0-25,0h-2c-.7,0-1.3,0-2,0-1,0-2,0-3,0s-2.7,0-4,0h-43c-1.7,0-3.3,0-5,0s-2.7,0-4,0h-11c-14.3,0-28.7,0-43,0-1.3,0-2.7,0-4,0-11.3,0-22.7,0-34,0h-31c-2.7,0-5.3,0-8,0s-5.3,0-8,0h-34c-2,0-4,0-6,0s-2,0-3,0c-4.7,0-9.3,0-14,0s-2.7,0-4,0h-62c-2.3,0-4.7,0-7,0s-4,0-6,0c-3.7,0-7.3,0-11,0-12,0-24,0-36,0h-8c-2.7,0-5.3,0-8,0s-3.3,0-5,0-3.3,0-5,0c-5.7,0-11.3,0-17,0s-4.7,0-7,0h-8c-10,0-20,0-30,0s-14.7,0-22,0c-11,0-22,0-33,0h-10c-1.7,0-3.3,0-5,0s-1.3,0-2,0h-15c-50,2.3-102.9-3.1-152.5,0-2.4.1-4.2.3-6.5,1ZM930.7,528.2v1c.6-.3.6-.7,0-1ZM929.2,529.2H146.2c5.4,7.7,10.9,18.5,17,25.5,2,2.3,4.1,4.5,7.5,4.5l738.6-.5c1.6-1,3.7-1.9,5-3.3,2.5-2.8,12.7-19.1,14.2-22.5s1-2.3.8-3.7Z" fill="#050711"/><path d="M306.2,144.2v2s2.5,0,2.5,0l.5-2h7v2s4.4,0,4.4,0l.6-2c.7,0,1.3,0,2,0v2s4.4,0,4.4,0l.6-2h4v2s5.4,0,5.4,0l.6-2c11,0,22,0,33,0-.6,3,1.5,1.9,3.5,2,4.9.2,10.2.2,15.1,0s4,1,3.5-2c10,0,20,0,30,0v2s3.4,0,3.4,0l.6-2h4v2s6.4,0,6.4,0l.6-2c5.7,0,11.3,0,17,0v2s4.4,0,4.4,0l.6-2c1.7,0,3.3,0,5,0v2s7.4,0,7.4,0l.6-2h2v2s5.4,0,5.4,0l.6-2c12,0,24,0,36,0v2s10.4,0,10.4,0l.6-2c2,0,4,0,6,0v2s6.4,0,6.4,0l.6-2h42v2s8.4,0,8.4,0l.6-2h11v2s3.4,0,3.4,0l.6-2c4.7,0,9.3,0,14,0v2s2.5,0,2.5,0l.5-2c2,0,4,0,6,0v2s5.4,0,5.4,0l.6-2h28v2s7.4,0,7.4,0l.6-2c2.7,0,5.3,0,8,0v2s4.4,0,4.4,0l.6-2h18v2s7.4,0,7.4,0l.6-2c11.3,0,22.7,0,34,0v2s3.4,0,3.4,0l.6-2c14.3,0,28.7,0,43,0v2s10.4,0,10.4,0l.6-2c1.3,0,2.7,0,4,0v2s4.4,0,4.4,0l.6-2h36v2s6.4,0,6.4,0l.6-2c1.3,0,2.7,0,4,0v2s2.5,0,2.5,0l.5-2c.7,0,1.3,0,2,0v2s1.5,0,1.5,0l.5-2c8.3,0,16.7,0,25,0-.6,3,1.5,1.9,3.5,2,3.6.1,7.4.1,11.1,0s4,1,3.5-2c5,0,10.1-.3,15,0l4,2,.2,63.9c.4.5,1.6,0,1.8.1.6.4.4,1.6,2.5,2s9.1-.4,9.5,0v293.5c-.9,10.5-6.4,18.1-17.5,18.5-97.5,1.1-195.3-1.1-292.5-1l-2,1c-19.3,0-38.7,0-58,0-.7-1.6-4.3-1.6-5,0-1.7,0-3.3,0-5,0-1.9-1.7-7.1-1.7-9,0-4.7,0-9.3,0-14,0-.1-1.5-2.9-1.5-3,0-129,0-258,0-387,0v-2c-3.4.5-5.9-1.2-9-2-.8-.7-1.2-.9-2-2l-3-10.5V213.2c3.7-.1,11.2,1.2,12-3.5v-64.5c2.3-.7,4.1-.9,6.5-1,49.7-3.1,102.5,2.4,152.5,0ZM893.6,437.6c10.3-7.6,15.6-18,20.8-29.7,21-47.9,21-105.3-.3-153-6.9-15.4-15.7-33.5-34.6-35.4l-681.7-.3c-17.5,1.7-25.8,14.7-33,29-24.9,49.1-25.1,109.2-3.3,159.4,6.9,16,15,32.3,33.6,36.4l682.8.3c7.9-.7,10-2.4,15.9-6.6Z" fill="#385ea9"/><path d="M929.2,529.2c.3,1.5-.3,2.5-.8,3.7-1.4,3.4-11.7,19.7-14.2,22.5s-3.4,2.3-5,3.3l-738.6.5c-3.3,0-5.4-2.3-7.5-4.5-6.2-6.9-11.6-17.8-17-25.5h783Z" fill="#2c4c8d"/><path d="M147.2,145.2v64.5c-.9,4.7-8.4,3.4-12,3.5v294.6s3,10.5,3,10.5c-2.6-3.6-5.2-6.4-5-11.5V212.2c2.8-.5,10.9,1.4,11.9-1.6v-64.8c.1-1.2,1.5-.4,2.1-.6Z" fill="#2c4c8d"/><path d="M393.2,144.2c.6,3-1.5,1.9-3.5,2-4.9.2-10.2.2-15.1,0s-4,1-3.5-2c7.3,0,14.7,0,22,0Z" fill="#2c4c8d"/><path d="M909.2,144.2c.6,3-1.5,1.9-3.5,2-3.6.1-7.4.1-11.1,0s-4,1-3.5-2c6,0,12,0,18,0Z" fill="#2c4c8d"/><path d="M528.2,144.2l-.6,2h-10.4s0-2,0-2c3.7,0,7.3,0,11,0Z" fill="#2c4c8d"/><polygon points="803.2 144.2 802.6 146.2 792.2 146.2 792.2 144.2 803.2 144.2" fill="#2c4c8d"/><polygon points="592.2 144.2 591.6 146.2 583.2 146.2 583.2 144.2 592.2 144.2" fill="#2c4c8d"/><path d="M140.2,520.2c3.1.8,5.6,2.6,9,2v2c-2.6.3-5.6-.3-7.8-1.7s-1.1-2.2-1.2-2.3Z" fill="#2c4c8d"/><polygon points="711.2 144.2 710.6 146.2 703.2 146.2 703.2 144.2 711.2 144.2" fill="#2c4c8d"/><path d="M473.2,144.2l-.6,2h-7.4s0-2,0-2c2.7,0,5.3,0,8,0Z" fill="#2c4c8d"/><path d="M672.2,144.2l-.6,2h-7.4s0-2,0-2c2.7,0,5.3,0,8,0Z" fill="#2c4c8d"/><path d="M438.2,144.2l-.6,2h-6.4s0-2,0-2c2.3,0,4.7,0,7,0Z" fill="#2c4c8d"/><path d="M541.2,144.2l-.6,2h-6.4s0-2,0-2c2.3,0,4.7,0,7,0Z" fill="#2c4c8d"/><polygon points="855.2 144.2 854.6 146.2 848.2 146.2 848.2 144.2 855.2 144.2" fill="#2c4c8d"/><polygon points="338.2 144.2 337.6 146.2 332.2 146.2 332.2 144.2 338.2 144.2" fill="#2c4c8d"/><polygon points="481.2 144.2 480.6 146.2 475.2 146.2 475.2 144.2 481.2 144.2" fill="#2c4c8d"/><polygon points="636.2 144.2 635.6 146.2 630.2 146.2 630.2 144.2 636.2 144.2" fill="#2c4c8d"/><path d="M328.2,144.2l-.6,2h-4.4s0-2,0-2c1.7,0,3.3,0,5,0Z" fill="#2c4c8d"/><polygon points="685.2 144.2 684.6 146.2 680.2 146.2 680.2 144.2 685.2 144.2" fill="#2c4c8d"/><path d="M460.2,144.2l-.6,2h-4.4s0-2,0-2c1.7,0,3.3,0,5,0Z" fill="#2c4c8d"/><polygon points="321.2 144.2 320.6 146.2 316.2 146.2 316.2 144.2 321.2 144.2" fill="#2c4c8d"/><path d="M812.2,144.2l-.6,2h-4.4s0-2,0-2c1.7,0,3.3,0,5,0Z" fill="#2c4c8d"/><path d="M562.2,524.2c-3,0-6,0-9,0,1.9-1.7,7.1-1.7,9,0Z" fill="#2c4c8d"/><polygon points="427.2 144.2 426.6 146.2 423.2 146.2 423.2 144.2 427.2 144.2" fill="#2c4c8d"/><path d="M749.2,144.2l-.6,2h-3.4s0-2,0-2c1.3,0,2.7,0,4,0Z" fill="#2c4c8d"/><path d="M607.2,144.2l-.6,2h-3.4s0-2,0-2c1.3,0,2.7,0,4,0Z" fill="#2c4c8d"/><polygon points="309.2 144.2 308.7 146.2 306.2 146.2 306.2 144.2 309.2 144.2" fill="#2c4c8d"/><path d="M624.2,144.2l-.5,2h-2.5s0-2,0-2c1,0,2,0,3,0Z" fill="#2c4c8d"/><path d="M862.2,144.2l-.5,2h-2.5s0-2,0-2c1,0,2,0,3,0Z" fill="#2c4c8d"/><path d="M572.2,524.2c-1.7,0-3.3,0-5,0,.7-1.6,4.3-1.6,5,0Z" fill="#2c4c8d"/><polygon points="866.2 144.2 865.7 146.2 864.2 146.2 864.2 144.2 866.2 144.2" fill="#2c4c8d"/><path d="M539.2,524.2c-1,0-2,0-3,0,.1-1.5,2.9-1.5,3,0Z" fill="#2c4c8d"/><path d="M632.2,523.2c-.1,0-.2,1-2,1l2-1Z" fill="#2c4c8d"/><path d="M930.7,528.2c.6.3.6.7,0,1v-1Z" fill="#2c4c8d"/><path d="M893.6,437.6c-5.8,4.3-8,6-15.9,6.6l-682.8-.3c-18.6-4.1-26.7-20.4-33.6-36.4-21.8-50.2-21.5-110.3,3.3-159.4,7.2-14.3,15.5-27.2,33-29l681.7.3c18.9,1.9,27.8,20,34.6,35.4,21.3,47.8,21.3,105.2.3,153-5.1,11.7-10.4,22.2-20.8,29.7ZM198,222.4c-17.8,1.6-26.1,17.9-32.6,32.4-16.6,36.9-20.3,78.9-11.7,118.4s18.4,62.1,39.2,66.8c230,2.1,460.6,2.1,690.5,0,13.2-3,22.5-21.9,27.6-33.4,20.9-47.3,20.3-107.2-1.7-154-5.7-12.1-12.9-25.6-26.9-29.1-225.3-.9-449.1.3-673.8-.2-3.8,0-6.3-1.2-10.7-.8Z" fill="#050711"/><path d="M198,222.4c4.3-.4,6.8.8,10.7.8,224.7.5,448.6-.8,673.8.2,14,3.5,21.3,17,26.9,29.1,22,46.9,22.6,106.7,1.7,154-5.1,11.5-14.4,30.4-27.6,33.4-229.9,2.1-460.6,2.1-690.5,0-20.8-4.7-35.1-48-39.2-66.8-8.6-39.5-5-81.5,11.7-118.4,6.5-14.4,14.9-30.8,32.6-32.4ZM369.2,232.2c.2-.2,0-1.8.9-2.6,2.4-2.2,5.9-2.6,9.1-2.5l-1.7-2.8-46.3-.2c0,4.5,5.2,2.5,8.3,3.2s7.6,6.3,7.8,10.2v189c-.3,4.1-4.2,9.5-8.5,9.5h-32.5c-.2,2.5-.3,1.7,1.5,2,15.1,2.2,33.5,1.1,49,1.1,21.5,0,43.6-.6,64.9-1.1s11.3.7,16.1,0,1.6.3,1.5-2h-62.5c-1.2,0-5.1-1.9-6.9-1.9-1.2-.8-.3-2.5-.6-3.1,3,1.7,6.9,3.2,10.5,3h317.1c3.1,0,6.8-1.6,9.5-3-.3.5-.1,1.7-.9,2.6-1.9,2.1-6.4.7-6.1,4.4,3-.6,5.7.8,8.5,1,12.5,1,52.4,1.7,63.1-1,1.7-.4,2.9,1,2.4-2h-36.5c-2.2,0-8.9-5.4-8.6-8.4l.3-192.8c1.8-4,4.8-6.6,9.1-7.7l.6-3.1h-62c-.5,3,.8,1.6,2.4,2,8.6,2.2,21.5-1.5,28.1,4s5.2,10.7,5.5,16.5c3.6,56.3-2.8,116.4,0,173.1-.8,6.7-.2,8.2-6,11.5,6.6-11.2,2.8-45.3,3-59.5.4-40.3,4.2-87.2,1.1-127-.5-6.7-1.9-11.6-8.3-14.7l-323.3-.8c-2,0-8.3,1.9-9.5,3s-4.4,8.1-4,10.5c3.3,57.4-4.2,119.3,0,176.1.5,6.5,1.8,7.2,4,12.5-4.2-2.3-5.6-6.7-6-11.5v-177.1c0-2.8,1.6-6.5,3.2-8.9s2.7-1.4,2.9-1.6ZM196.9,229.4c-13.7,3.3-20.5,17.3-25.9,29.1-20.7,45.4-21.1,101,0,146.3,5.6,12,14,27.7,28.7,29.3l140.5-.5,4.3-4.7.8-190.3c.2-4.9-3.7-9.1-8.5-9.5l-139.8.3ZM736.9,229.4c-3.6,1.2-6.6,4.4-6.7,8.3v187.1c-.3,3.9,2.1,6.8,5.3,8.7l139.3.8c19-1.4,28.2-24.2,34.2-39.8,16.2-42.2,15.1-90.4-2.6-131.9-5.4-12.8-14-31.6-29.7-33.3l-139.8.2Z" fill="#2c4c8d"/><path d="M369.2,431.2c.3.6-.6,2.3.6,3.1,1.8,0,5.7,1.9,6.9,1.9h62.5c.1,2.3.3,1.8-1.5,2-4.8.6-11-.2-16.1,0-21.3.5-43.4,1-64.9,1.1-15.5,0-34,1.1-49-1.1-1.8-.3-1.7.5-1.5-2h32.5c4.3,0,8.2-5.4,8.5-9.5v-189c-.2-4-4-9.3-7.8-10.2s-8.3,1.3-8.3-3.2l46.3.2,1.7,2.8c-3.2-.1-6.7.3-9.1,2.5s-.7,2.3-.9,2.6-1.7-.2-2.9,1.6-3.1,6.1-3.2,8.9v177.1c.5,4.8,1.8,9.1,6.1,11.5Z" fill="#385ea9"/><path d="M706.2,431.2c5.9-3.3,5.2-4.7,6-11.5-2.8-56.7,3.6-116.8,0-173.1-.4-5.7-.9-12.6-5.5-16.5s-19.5-1.8-28.1-4-2.9,1-2.4-2h62l-.6,3.1c-4.3,1.1-7.3,3.6-9.1,7.7l-.3,192.8c-.3,3,6.3,8.4,8.6,8.4h36.5c.5,3-.8,1.6-2.4,2-10.7,2.7-50.6,1.9-63.1,1s-5.5-1.5-8.5-1c-.3-3.7,4.2-2.4,6.1-4.4s.6-2,.9-2.6Z" fill="#385ea9"/><path d="M706.2,431.2c-2.6,1.5-6.3,3-9.5,3h-317.1c-3.5.2-7.4-1.4-10.5-3-2.2-5.2-3.6-6-4-12.5-4.2-56.8,3.3-118.7,0-176.1-.3-2.3,2.7-9.2,4-10.5s7.4-3.1,9.5-3l323.3.8c6.4,3,7.8,8,8.3,14.7,3.1,39.8-.7,86.7-1.1,127-.1,14.3,3.6,48.3-3,59.5ZM375.9,232.4c-4.8,1.8-7.8,6.1-7.7,11.3v176.1c0,4.8,2.3,8.3,6.3,10.7h326.5c5.2-2.1,5.9-9.8,6.3-14.7,1.9-26.3-1-53.8-1.1-80,0-29.6,3.4-60.5,1.1-90.1-.4-5.4-1.1-10-6.3-12.7l-325-.5Z" fill="#050711"/><path d="M200.2,234.2c-43.3,56.6-44.5,136.7-1,193.5.2,1.5,0,1.7-1.5,1.5-12.4-1.8-24.4-31.3-28-42.1-14-41.8-12.2-84.2,5.3-124.6,4.8-11.1,11.4-27.3,25.2-28.3Z" fill="#2c4c8d"/><path d="M196.9,229.4l139.8-.3c4.8.3,8.7,4.6,8.5,9.5l-.8,190.3-4.3,4.7-140.5.5c-14.6-1.7-23.1-17.3-28.7-29.3-21.1-45.4-20.7-101,0-146.3,5.4-11.8,12.3-25.7,25.9-29.1ZM200.2,234.2c-13.8,1-20.4,17.2-25.2,28.3-17.5,40.4-19.2,82.8-5.3,124.6s15.6,40.2,28,42.1c1.5.2,1.7,0,1.5-1.5-43.5-56.8-42.2-136.9,1-193.5ZM339.2,237.2l-1.7-2.8h-133.1c-24.6,33.1-38.1,73.7-33.1,115.2s15.3,56.4,32.8,79.2l131.6.6c2.8.2,4.4-2.5,4.4-5.1-66.9-.2-113-69.2-85.9-131.4,14.2-32.6,49.1-55.7,84.9-55.6ZM340.2,240.2c-64,2.2-108.4,64.5-82.9,125.4,9.8,23.4,31.5,43.6,55.9,51.1,5.1,1.6,20.1,5.2,24.9,5.1,1.2,0,1.3,0,2-1.1v-37.5c-68.7-2.9-69-101.7,0-105v-38ZM341.2,282.2c-36.1-1.2-59.9,36.6-44.9,69.4,7.5,16.3,24.5,27.4,42.4,28.7s1-4.1,1.5-6c-56.2-3.4-56.3-83.4,0-86.4l.9-5.6ZM340.2,291.2c-51.9,3.7-51.7,74.9,0,80v-80Z" fill="#050711"/><path d="M339.2,237.2c-35.8,0-70.6,23.1-84.9,55.6-27.2,62.1,19,131.2,85.9,131.4,0,2.6-1.6,5.3-4.4,5.1l-131.6-.6c-17.6-22.8-29.3-50.4-32.8-79.2-5-41.5,8.5-82.1,33.1-115.1h133.1s1.7,2.8,1.7,2.8Z" fill="#a1a19f"/><path d="M340.2,240.2v38c-69,3.3-68.7,102.1,0,105v37.5c-.7,1-.9,1.1-2,1.1-4.8,0-19.8-3.6-24.9-5.1-24.4-7.5-46.1-27.7-55.9-51.1-25.5-60.8,18.8-123.2,82.9-125.4Z" fill="#5f5f5f"/><path d="M340.2,291.2v80c-51.7-5.1-51.9-76.3,0-80Z" fill="#a1a19f"/><path d="M341.2,282.2l-.9,5.6c-56.4,3-56.3,83.1,0,86.4-.5,1.9,1.4,6.2-1.5,6-17.9-1.2-34.9-12.3-42.4-28.7-15-32.8,8.7-70.5,44.9-69.4Z" fill="#a1a19f"/><path d="M891.8,416.8c-2.5,3.3-9.3,10.5-13.2,11.4-4.1.9,2.6-5.8,3.2-6.8,31.8-52.5,37.3-109.7,7.5-164.8l-14.2-22.3c17.2,2.9,27.1,30.3,32,45.5,12.8,39.5,10.7,103.1-15.4,137.1Z" fill="#2c4c8d"/><path d="M736.9,229.4l139.8-.2c15.7,1.8,24.2,20.6,29.7,33.3,17.7,41.6,18.8,89.8,2.6,131.9-6,15.5-15.2,38.4-34.2,39.8l-139.3-.8c-3.2-1.8-5.5-4.8-5.3-8.7v-187.1c.2-3.9,3.2-7.1,6.8-8.3ZM735.2,421.2c-.3,3.8-.4,7.9,4.5,8l131.5-.6c11.7-14.2,20.9-31.8,26.5-49.5,8.3-26.2,9.9-51.2,4.3-78.2-5.1-24.2-16.3-46.4-30.8-66.2l-135.1.9-.9,5.6c55.3,3.5,94.3,55.6,82.3,109.8-8.4,37.7-43.7,67.9-82.3,70.2ZM891.8,416.8c26.1-34.1,28.2-97.6,15.4-137.1-4.9-15.1-14.8-42.5-32-45.5l14.2,22.3c29.7,55.1,24.2,112.3-7.5,164.8-.6,1-7.3,7.7-3.2,6.8,3.8-.8,10.7-8.1,13.2-11.4ZM735.2,417.2c31.5-1.3,60.1-22.1,73-50.5,25.5-56.1-12.9-116.4-72.5-122.5-.5,11.3-2.5,22.6-.4,33.9,63.7,8.8,63.3,98.4-1.1,105.2l.9,34ZM768.5,300.8c-1.4-1.8-1.7-3.6-3.8-5.7-7.1-7.2-20.4-13.1-30.5-13v6c52.2,5.6,52.3,78.6.9,85.5l-.9,5.6c22.1-.3,40.8-18.4,44.9-39.6,3-15.3-1.4-27.1-10.5-38.7ZM734.2,370.2c48-4.7,47.9-73.7,0-79v79Z" fill="#050711"/><path d="M735.2,421.2c38.6-2.3,74-32.4,82.3-70.2,12-54.2-27.1-106.4-82.3-109.8l.9-5.6,135.1-.9c14.5,19.8,25.7,42,30.8,66.2,5.6,27,4.1,52-4.3,78.2-5.6,17.7-14.8,35.3-26.5,49.5l-131.5.6c-4.8-.1-4.8-4.2-4.5-8Z" fill="#a1a19f"/><path d="M735.2,417.2l-.9-34c64.4-6.7,64.8-96.4,1.1-105.2-2.2-11.3,0-22.5.4-33.9,59.6,6.1,98,66.4,72.5,122.5-12.9,28.4-41.5,49.2-73,50.5Z" fill="#5f5f5f"/><path d="M734.2,370.2v-79c47.9,5.3,48,74.3,0,79Z" fill="#a1a19f"/><path d="M768.5,300.8c9.1,11.6,13.5,23.4,10.5,38.7-4.1,21.2-22.8,39.3-44.9,39.6l.9-5.6c51.3-6.9,51.2-79.9-.9-85.5v-6c10.1-.2,23.4,5.8,30.5,13s2.4,3.9,3.8,5.7Z" fill="#a1a19f"/><path d="M375.9,232.4l325,.5c5.2,2.7,5.9,7.3,6.3,12.7,2.3,29.6-1.1,60.4-1.1,90.1,0,26.2,3,53.7,1.1,80s-1.1,12.6-6.3,14.7h-326.5c-4-2.4-6.4-5.9-6.3-10.7v-176.1c0-5.2,2.9-9.5,7.7-11.3ZM383.2,239.2c-5.8,1.2-4.9,6.7-6,8s-2.4-.5-2.1,1.4c2.1,54.5-2.5,110.8,0,165.1.1,2.5-.7,3.3,2,1.5-.4,4.6,1.9,7.4,6,9s1.8,1.6,3.4,1.1h302.2c1.7.5,2.4-.6,3.4-1.1s4.7-2.7,5-3c1-.9,1.8-1.9,2.5-3l.6-168.5c-.1-1.5-.4-4.7-1-5.8s-1.9-.6-2-.7c-1.6-1.5-2.5-3.2-5-4h-309Z" fill="#385ea9"/><path d="M692.2,239.2c2.5.8,3.4,2.5,5,4v178c-.3.3-4.4,2.7-5,3h-309c-4.1-1.6-6.4-4.4-6-9v-168c1.1-1.3.2-6.8,6-8h309Z" fill="#f1efdd"/><path d="M697.2,243.2c.2.1,1.3-.5,2,.7s.9,4.3,1,5.8l-.6,168.5c-.7,1.1-1.5,2.2-2.5,3v-178Z" fill="#2c4c8d"/><path d="M377.2,247.2v168c-2.7,1.8-1.9,1-2-1.5-2.6-54.3,2-110.6,0-165.1-.3-1.9,2-1.3,2.1-1.4Z" fill="#2c4c8d"/><path d="M692.2,424.2c-1,.5-1.7,1.6-3.4,1.1h-302.2c-1.6.5-2.5-.7-3.4-1.1h309Z" fill="#2c4c8d"/><path d="M140.2,206.2c-2.9.5-1.6-.7-2.1-2.3-9.3-30.2-3.1-63.8-4.9-95.2,0-3.5,2.4-6.4,5.7-7.3l371.8-.3c2.1.1,1.8,2.5,3.7,3.4s41.5,1.4,45.3.7l5-4.1,371.8.3,5.8,5.2v79.1c.2,1.5-1.8,1.3-2,2.2-1.4,5.9-2.4,12.2-3.1,18.3h-3v-65.5l-1.5-1.5H142.7c-.2,0-2.5,3.1-2.5,3.5v63.5Z" fill="#2c4c8d"/><path d="M930.2,210.2c-.2-.1-1.4.3-1.8-.1l-.2-63.9-4-2c1.7,0,3.4-.4,5.1.4l.9,65.6Z" fill="#2c4c8d"/><path d="M413.5,299.8c-1.1-.1-2.2-.2-3.1-.5-7.9-1.4-9.3-10.9-2.3-14.7,3.8-1.9,14.1-2.7,24.2-2.7s18.9.8,21.3,1.8c5.7,2.7,5.5,11.1,0,13.6-2.5,1.1-4.8,1.4-8.1,1.4s-8.2-.3-15.4-.3c-.5,5.4.5,10.4.6,15.6,11.2,0,11.2.3,12.5.8,9.2,3.1,7.4,14.9-2.1,15.5-6.4.2-9.6-1.6-8.8,3.6,2.1,12.7,3.5,18.5,2.6,22-.9,3.6-4,5.8-7.2,5.8s-3.8-.7-5.4-2.2c-7.2-6.5-7.4-47.9-9-59.7Z" fill="#385ea9"/><path d="M495,350.4c-.3,8.9-13,11.3-20.6,11.3s-1.8,0-2.6-.1c-23.6-1.7-25.6-32.4-4-37.6,4.3-1,5.6-1.1,10-2.3-.3-1-1.3-1.4-2.7-1.4-3.3,0-9,2.1-13.8,2.1s-2.9-.2-4-.7c-5.1-2.3-6.2-8.8-2.1-12.5,2.3-2.1,8-3.4,14.5-3.4s18.5,2.6,22.3,9.9c5.2,9.6,3.3,24.6,3,34.8ZM478.9,338.3c-3.3.2-10.1,1.3-9.8,4.4.3,3.2,4.8,2.6,8.5,2.4,1.6,0,1.3-2.9,1.3-6.8Z" fill="#385ea9"/><path d="M576,356.1c-.9,3.6-4.1,5.6-7.3,5.6s-4.9-1.1-6.4-3.6c-3.5-6-3.4-28.7-5.5-29.2-8.1,13.7-6.6,23.9-9.7,29-1.6,2.6-4.2,3.9-6.8,3.9s-5.9-1.6-7.2-4.8c-2.3-5.4-1.6-28.6-3.8-29.1-7.4,14.8-9.8,24.5-12.2,29.1-1.8,3.2-4.8,4.8-7.6,4.8s-7.1-2.4-8.2-7c-.5-2.1-2.2-38.1-.6-43.2,1.1-3.6,4.3-5.5,7.5-5.5,5.8,0,7.8,5.9,8.5,10.7,3.4-3,4.8-6.7,10.5-9.3,2.1-.9,3.9-1.4,5.5-1.4,5.4,0,9.1,4.4,12.3,10.5,4.2-3.8,5.6-6.2,7.9-7.9,2.4-1.8,4.9-2.6,7.3-2.6,4.7,0,8.8,3.3,10.8,8.9,2.1,5.4,6.4,35.7,4.9,41.2Z" fill="#385ea9"/><path d="M596.9,355.6c-.8,4.1-4.3,6.4-7.9,6.4s-5.7-1.5-7.2-4.7c-1.9-4.3-2.1-40.8-.6-45.7,1.1-3.6,4.2-5.5,7.3-5.5s5.9,1.6,7.2,5c1.6,4.2,1.1,44.3,1.1,44.5ZM588.4,302.8c-2.6,0-5.1-1.4-6.6-4-2.2-3.6-1.6-8.8,1.3-11.9,1.6-1.8,3.6-2.6,5.7-2.6s5.6,1.6,7,4.6c1.7,3.9,1.1,7.6-1.1,10.7-1.6,2.2-3.9,3.2-6.2,3.2Z" fill="#385ea9"/><path d="M617.6,357.4c-1.4,2.9-4.1,4.3-6.8,4.3s-5.5-1.5-6.7-4.3c-2.7-6.2-1.4-65.2-.2-68.1,1.4-3.4,4.2-5,7.1-5s6.5,2.1,7.5,6c.1.3,1.6,61.8-.8,67Z" fill="#385ea9"/><path d="M661.6,380.5c-4.1,7.9-11.4,12.3-19.8,12.3s-3-.1-4.6-.5c-10.3-1.8-10.4-13.5-2.4-15.6,2.3-.7,7.1-.1,8.5-.7,3.9-1.1,7.8-13.8,6.7-14.7-1.7.2-3.6.5-5.8.5-4.6,0-9.7-1.4-14.1-8-8.9-13.6-6.6-39-5.5-42.5,1.4-3.6,4.3-5.5,7.3-5.5s5.4,1.4,6.7,4.1c4.2,8.2-1.9,21,3.8,32.7.9,1.8,2.2,2.5,3.5,2.5,3.2,0,7-4.1,6.8-7.2-.1-2.2-1.1-21.1-.8-23.4,1-5.9,4.6-8.7,8-8.7s7.9,3.4,8.1,9.9c1.3,28.5,3,45.9-6.5,64.6Z" fill="#385ea9"/></svg>