<?xml version="1.0" encoding="UTF-8"?><svg id="a" xmlns="http://www.w3.org/2000/svg" width="1088.6" height="641.9" viewBox="0 0 1088.6 641.9"><path d="M525.5,113.7l41.2.2,2.7-3.5h379.1c5.9,1.5,7.5,7.5,8,13,1.7,18.8,1.4,53.1,0,72.1-.6,8.7-4.1,16.9-5,25.5h4c2.5,8.6.1,17.2,0,25.5-1.4,87.6.1,175.5,0,263.1,0,6.2,1.6,11.8-.5,18.4-1.7,5.6-20.8,36.1-25.1,41.9-2.2,2.9-4.9,5.3-8.4,6.6l-743.6.5c-4.2,0-7.9-2.5-10.4-5.6-6-7.2-13.1-20.1-18.6-28.4s-10.4-11.5-11.4-21.6V224.3c-1.1-4.3,4.9-3,5-4-.6-8.2-4.4-15.8-5.1-23.9-1.5-19.2-1.6-53.9,0-73.1s2-9.4,7.3-12.7l379.8-.3,1.1,3.4ZM149.3,219.9v-63.5c0-.3,1.6-2.7,2-3h790c.5.2,2,1.8,2,2v64.5l3.1-.6c1.2-7,4.4-14.9,4.9-21.9,2.1-24.3-1.7-51.5,0-76.1,0-3.2-3-5.3-5.8-6.2l-371.9-.3c-2.8-.7-3,2.4-3.6,2.8-2,1.2-41.9.9-46.3.3s-1.7-3.7-4.9-3.2l-370.9.3c-3.3.9-5.6,3.8-5.7,7.3,1.5,31.8-3.9,64.3,4.9,95.2.5,1.7-.8,2.8,2.1,2.3ZM154.3,224.9c-.4.2-.7.9-1,1h-11s0,294.5,0,294.5l2,5.5c0,.3,0,.7,0,1,.9,5.6,6.2,8.7,11.2,10.3h785.5c6.2-2.1,10-11.6,10.3-17.8V226.5c-.3-1.9-11.6,1.7-12.9-3.3l.8-62.9-1.5-2.4H155.8l-1.6,3.4v63.6ZM940.3,541.9H154.3c3.8,6.5,8.6,12.4,12.8,18.7s3.2,8.9,8.2,11.8l738.5.6c4.6.1,7.7-2.1,10.4-5.6l16-25.5Z" fill="#140608"/><path d="M154.3,224.9c.3-.2,1.8.6,2-.6v-62.4c24.6-.2,48.7-1.7,73.4-1,73.1,2.3,147.7-.8,220,0s20.5-1.3,29.1-1.1.9,1.9,2.9,2.2c18.2,2.3,52.6.6,72.1,0,5.7-.2,21.9-3,25.8-2,10.3,2.5,21.8,2,33.1,2,92,.2,183.6-1.5,275.1,0h47.5c0,0,0,59.4,0,59.4,1.4,8,10.7,4.9,12.5,8.5s1.4,9.6,1.6,11.5-.8,3.7-.7,5.2c2.6,70.6-.4,141.5-.5,211.8,0,19.9,3.5,42.1,1.1,62-.7,6.2-3.9,13.4-10.6,14.4-22.6,3.2-48.1-.3-70.9,1.1-238.5-.8-477.7,1.3-715.8-1l-7.7-8c0-.3,0-.7,0-1,0-70.2,0-141,0-210.5v-86.9c2.9-1.6,5.8-1.3,9-2.6s.6-.8,1-1ZM902.3,237.9c-1.8-5.5-9.4-6.2-14.5-7-198.4.2-397.3-.1-595.1,0-19.5,0-39.3-.3-59,0-10.2.2-24.2-.6-33.9,1.1s-20.8,15-24.4,21.6c-5.1,9.5-12.4,25.8-14.7,35.3s.7,2.8.4,3.8-3.6,2.1-3.7,3c-.7,3.4.7,5.5.8,7.8s-1.7.3-1.9,1.1c-8.6,36.7-1.8,88.7,14,121.9,7.2,15.2,16.8,32.3,35.5,33.5h682c13.2-1.4,26.2-15.1,31.1-25.4.4-.9,2.6-2.8.4-3.6.3-.6.7-1.3,1-2,2.5-1.9,2.8-4.8,4-7.3,2.1-4.2,2.5-5.7,4-10.7s0-.7,0-1c6.9-2.1,4.2-7.1,5.3-12.2,8.9-45.3,12.8-78.5-6.2-121.5-1.7-3.9-.8-10-6.1-12.2-.1-.3.1-.7,0-1-.5-1.5-.2-3.5-1.2-5.3s-4.7-5-5.8-6.7c-.1-.3.1-.7,0-1,0-2.5-2.9-7.9-6-7-.5-.5-1.4-1.4-2-2-1.1-1-1.1-1.9-3-3s-.7.1-1,0Z" fill="#e34f89"/><path d="M149.3,219.9c-2.9.5-1.7-.6-2.1-2.3-8.8-30.9-3.4-63.4-4.9-95.2,0-3.5,2.4-6.4,5.7-7.3l370.9-.3c3.2-.5,2.5,2.9,4.9,3.2,4.5.6,44.4.9,46.3-.3s.9-3.6,3.6-2.8l371.9.3c2.8,1,5.7,3,5.8,6.2-1.7,24.6,2,51.8,0,76.1-.6,7-3.7,14.8-4.9,21.9l-3.1.6v-64.5c0-.2-1.5-1.8-2-2H151.3c-.4.3-2,2.7-2,3v63.5Z" fill="#b43c6c"/><path d="M940.3,541.9l-16,25.5c-2.7,3.4-5.9,5.7-10.4,5.6l-738.5-.6c-5-2.9-5.6-7.9-8.2-11.8-4.2-6.2-9-12.2-12.8-18.7h786Z" fill="#b43c6c"/><path d="M154.3,224.9v-63.6c0,0,1.5-3.4,1.5-3.4h782l1.5,2.4-.8,62.9c1.3,5,12.6,1.4,12.9,3.3v293c-.3,6.2-4.1,15.7-10.3,17.7H155.5c-5-1.5-10.3-4.7-11.2-10.2l7.7,8c238.2,2.3,477.3.3,715.8,1,22.8-1.4,48.2,2,70.9-1.1,6.7-.9,9.9-8.2,10.6-14.4,2.4-19.9-1.1-42.1-1.1-62,0-70.3,3-141.2.5-211.8,0-1.5.8-3.3.7-5.2s-1.1-10.6-1.6-11.5c-1.8-3.6-11-.5-12.5-8.5v-59.5s-47.5,0-47.5,0c-91.5-1.5-183.1.2-275.1,0-11.3,0-22.8.5-33.1-2-3.9-.9-20.1,1.8-25.8,2-19.5.6-53.9,2.4-72.1,0s-1-2.1-2.9-2.2c-8.6-.3-19.5,1.2-29.1,1.1-72.2-.8-146.9,2.3-220,0-24.7-.7-48.9.7-73.5,1v62.4c-.2,1.2-1.7.4-2,.6Z" fill="#c45880"/><path d="M153.3,225.9c-3.3,1.3-6.2,1-9.1,2.6v86.9c0,69.5.2,140.3,0,210.5l-2-5.5V225.9s11,0,11,0Z" fill="#c45880"/><path d="M902.3,237.9c.3.1.8-.1,1,0l3,3c.6.6,1.5,1.5,2,2,2,2.2,3.6,5.2,6,7,.1.3-.1.7,0,1,1.8,3.9,3.9,9,7,12,.1.3-.1.7,0,1,20.5,56.4,23.9,87.2,7,146,0,.3,0,.7,0,1-3.6,5.5-5.1,12.2-8,18s-.7,1.4-1,2c-4.2,8-11.5,20.2-20.7,22.8s-2.7.8-2.3-1.3c11.3-6.5,18-19.2,23.2-30.8,22.3-49.8,21.3-116-5.4-164-6.9-12.4-13.3-19.7-28.3-21.7H206.9c-17.3,3.5-23.7,14.7-30.4,28.7-22.2,46.9-24.4,98.9-6,147.6,5.3,14.1,16.3,38.9,32.5,42.5,168.1.5,336.8.2,504.7.2,60.4,0,121.8,1.6,182.1,0,1.7,0,2.9-.3,4.4-1.1v3s-7.4,1.1-7.4,1.1l-681.9-.2c-23.7-2.8-37.2-40.2-42.9-60.1-12.5-44.1-9.3-92.3,10.9-133.6,7.1-14.6,15.3-28.5,33-31h680c5.6,0,11.5,2.3,16.5,4.9Z" fill="#140608"/><path d="M921.3,263.9c5.3,2.2,4.4,8.3,6.1,12.2,19,43,15.1,76.2,6.2,121.5-1,5.2,1.6,10.1-5.3,12.2,16.9-58.8,13.5-89.6-7-146Z" fill="#c45880"/><path d="M914.3,250.9c1.1,1.7,5.1,5.5,5.8,6.7,1,1.8.7,3.8,1.2,5.3-3.1-3-5.2-8.1-7-12Z" fill="#c45880"/><path d="M908.3,242.9c3.1-.9,6,4.5,6,7-2.4-1.8-4-4.8-6-7Z" fill="#c45880"/><path d="M928.3,410.9c-1.4,5-1.9,6.5-4,10.7s-1.5,5.4-4,7.3c2.9-5.8,4.4-12.5,8-18Z" fill="#c45880"/><path d="M906.3,240.9l-3-3c1.9,1.1,1.9,2,3,3Z" fill="#c45880"/><path d="M919.3,430.9c2.1.8,0,2.7-.4,3.6-4.9,10.3-17.9,23.9-31.1,25.4H205.9c-18.8-1.1-28.3-18.3-35.5-33.5-15.7-33.2-22.6-85.2-14-121.9s1.9-.6,1.9-1.1c0-2.3-1.5-4.5-.8-7.8s3.7-2.7,3.7-3c.3-1-.7-2.3-.4-3.8,2.3-9.6,9.6-25.9,14.7-35.3s16.9-20.3,24.4-21.6,23.7-.9,33.9-1.1c19.7-.3,39.5,0,59,0,197.7,0,396.6.2,595.1,0,5,.8,12.7,1.5,14.5,7-4.9-2.6-10.8-4.9-16.5-5H205.9c-17.6,2.7-25.8,16.5-33,31.2-20.2,41.4-23.4,89.5-10.9,133.6s19.1,57.3,42.9,60.1l681.9.2,7.4-1.1v-3c-1.5.7-2.7,1-4.4,1.1-60.3,1.5-121.7,0-182.1,0-167.8,0-336.6.3-504.7-.2-16.2-3.6-27.2-28.3-32.5-42.5-18.4-48.6-16.2-100.7,6-147.6s13.1-25.2,30.4-28.6h678.9c15,1.9,21.4,9.2,28.3,21.6,26.7,48,27.7,114.2,5.4,164-5.2,11.6-11.8,24.3-23.2,30.8-.4,2.1.8,1.7,2.3,1.3,9.2-2.6,16.5-14.8,20.7-22.8ZM354.3,442.9c0,.1,1.2.5.6,1.9-1.3,2.9-6.4,5.2-9.6,5.1-2.3,2.2,5.5,3,6.5,3,12.1.9,25.1-.2,36.9-.1,89.8.4,179.8-.4,270.3-.5,26.1,0,54.1,2.1,79.9.7,3.5-.2,6.9-1.3,10.4-1.1.7-3-2.6-1.8-4.7-2.8s-5.5-2.9-6-3.5c-3.1-4.2-.4-39.6-1.3-48.2-.4-3.9-2.5-6.5-2.9-9.1s1-8,1-10.9c0-31.5-.6-63.4,0-94,.2-10.3.2-20.5.3-30.8,4.4-9.5,7.3-10.1,16.4-12.6,1.7-.5,2.8.7,2.3-2.1h-429c-.1,2.3-.4,1.8,1.5,2,6.7.8,21.7,0,26.2,4.3s.3,1.5.7,2.2,1.2.5,1.4.7c.6,1-.8,1.5-.8,1.7-2.6-3.2-4.8-6.4-9.5-6-43.9,3-92.8-3.9-136.1,0s-28,26.3-33.5,41.5c-15.7,43.8-14.3,92.5,5.2,134.9s13.4,27.2,29.3,28.7c42.9,3.9,91.6-3,135.1,0,4.4.5,6.3-2.9,9.5-5ZM747,243.1c-2.8.6-7.7,5.2-7.8,8.2l-.5,189.1c2,4,5.1,7.8,10,7.5,43.3-2.9,91.3,3.7,134.1,0,19.9-1.7,28.1-21.1,34.5-37.5,14.5-37.4,16.3-74,5.7-112.7-4.4-16.1-17.1-52.6-36.3-54.8l-139.7.2Z" fill="#c45880"/><path d="M354.3,248.9c0-.2,1.4-.7.8-1.7s-1.1-.2-1.4-.7c-.5-.7-.3-1.8-.7-2.2-4.5-4.4-19.5-3.5-26.2-4.3s-1.6.3-1.5-2h429c.5,2.9-.6,1.7-2.3,2.1-9.1,2.5-12,3.1-16.4,12.6,0,10.3-.1,20.5-.3,30.8-.5,30.6,0,62.5,0,94,0,2.9-1.4,8.5-1,10.9s2.5,5.2,2.9,9.1c.9,8.5-1.8,44,1.3,48.2s4.8,3,6,3.5c2.2,1,5.5-.3,4.7,2.8-3.6-.3-6.9.9-10.4,1.1-25.8,1.4-53.8-.7-79.9-.7-90.5.1-180.5.9-270.3.5s-24.9,1.1-36.9.1c-1,0-8.8-.8-6.5-3,3.2.1,8.2-2.2,9.6-5.1s-.6-1.8-.6-1.9c.8-64.6-.2-129.4,0-194ZM713.3,445.9c.3-.1.8.1,1,0,1.4-.8,1.3-1.3,2-2s.6-1.4,1-2,.8-.6,1-1c.4-.6,2.6-1.1,2.1-3.4v-184.1s-3.1-3.5-3.1-3.5c-.2-.6.2-1.7,0-2,.8-2.6-1.8-1.8-2-2-1.1-1.2-.7-3.1-4.1-4.4-10.8-4.2-42.1-.9-55.3-.9-86.2-.5-173-1.8-258.2.4-14.3.4-23.1-1.2-25.5,16.5v178.1c2.7,10.1,6,13.6,16.5,14.5,102-.9,204.2,1.5,306-.8,5-.1,16.2,3.8,18.5-3.2Z" fill="#e34f89"/><path d="M715.3,245.9c0,0-.2,1.1.4,1.7s1.6.3,1.6.3c.2.3-.2,1.4,0,2,.7,2.3.9,4,1,6.5,3.4,60.4-2.6,123.9,0,184.5l-1,1c-.4.6-.6,1.6-1,2l-2,2c-.2.1-.7-.1-1,0-2.4,1-4.8,2.1-7.5,2l-321.6-.5c-6.5-1.6-9.5-7.8-10-14l.7-180.4c1.4-5.3,6.4-9.6,11.8-10.2h318.1c2.5.2,8.5,1.8,10.5,3ZM710.3,442.9c5.4-3.4,5.6-3.9,6-10.5v-176.1c-1.8-5.9-5.4-11.3-12.5-10.5l-320.3.8c-3.5.9-4.7,4-5.8,7.1l-.5,179.6c0,4.8,2.3,8.3,6.3,10.7l325.1.6c1.3-.4,1.4-1.6,1.7-1.8Z" fill="#140608"/><path d="M715.3,245.9c.2.2,2.8-.6,2,2,0,0-1.2.2-1.6-.3s-.3-1.6-.4-1.7c-1.9-1.3-7.9-2.8-10.5-3h-318.1c-5.4.7-10.4,5-11.8,10.2l-.7,180.4c.4,6.3,3.5,12.4,10,14l321.6.5c2.7,0,5.1-1,7.5-2-2.3,7-13.5,3.1-18.5,3.2-101.8,2.3-204.1,0-306,.8-10.5-.9-13.8-4.4-16.5-14.5v-178.1c2.4-17.6,11.2-16.1,25.5-16.5,85.2-2.2,172-.9,258.2-.4s44.5-3.2,55.3.9c3.4,1.3,3,3.2,4.1,4.4Z" fill="#c45880"/><path d="M718.3,440.9c-2.6-60.7,3.4-124.2,0-184.5-.1-2.4-.4-4.2-1-6.5l3.1,3.5v184.1c.6,2.3-1.7,2.9-2.1,3.4Z" fill="#b43c6c"/><path d="M717.3,441.9l1-1c-.2.4-.7.6-1,1Z" fill="#c45880"/><path d="M714.3,445.9l2-2c-.7.7-.6,1.2-2,2Z" fill="#c45880"/><path d="M209.3,247.9c-9.4,13-17.2,26.6-22.7,41.7-17.4,47.3-12.6,92.9,11.7,136,2.3,4,8.9,12.8,10,15.8s-6.5-.8-7.5-1.5c-16.4-12-28.3-57.8-30.5-77.5-3.1-28.3,2.5-60.2,13.8-86.2s11.9-27.5,25.2-28.3Z" fill="#b43c6c"/><path d="M896,437.5c-1.3,1.1-7.7,4.9-9.2,5.3-4.4,1.3,4-8.5,4.5-9.5,27.4-44.2,34.5-91.4,17-141-5.7-16-14.2-30.7-24-44.5,9.3-.2,17.2,11.9,21.2,19.3,24.5,46.4,25.6,109.4.3,155.7-1.9,3.5-7.1,12.2-9.9,14.6Z" fill="#b43c6c"/><path d="M747,243.1l139.7-.2c19.3,2.2,31.9,38.7,36.3,54.8,10.6,38.7,8.8,75.4-5.7,112.7-6.4,16.5-14.6,35.8-34.5,37.5-42.8,3.7-90.7-2.9-134.1,0-4.9.3-8-3.5-10-7.5l.5-189.1c0-3,5-7.6,7.8-8.2ZM744.3,434.9c-.3,5.6-.8,8.3,5.5,9h128.1c1.3.2,2-.3,2.9-1,2.3-1.9,12-18.3,14-22,21.3-39.1,25.6-85.2,10.2-127.3-5.8-16-15.3-31.2-24.8-45.2l-135.1.9-.9,5.6c27.9,1.6,49.4,14.7,66.5,36.1,39.7,49.6,10.9,126.5-50.3,141.6-5.1,1.3-10.9,2.1-16.2,2.3ZM896,437.5c2.7-2.4,7.9-11.1,9.9-14.6,25.3-46.3,24.1-109.3-.3-155.7-3.9-7.5-11.9-19.5-21.2-19.3,9.8,13.8,18.4,28.5,24,44.5,17.5,49.6,10.4,96.9-17,141-.6,1-8.9,10.8-4.5,9.5s7.9-4.2,9.2-5.3ZM743.3,261.4c-1.4,8.4,1,20.2,0,29,6,3.5,12.8,3.5,19.4,6.6,48.4,23.2,34,96.6-19.3,99.9l1.1,33.8c32.8-1.1,62.1-23.9,74.3-53.9,22.2-54.6-15.7-114.2-73.8-118-.6.2-1.6,2-1.7,2.5ZM773.3,378.9c.6-.6,2.4-.6,4.4-3.1s7.8-12.7,8.7-15.3c6.5-17.5-.2-40.1-13.7-52.6-3.9-3.7-18.8-11.2-24.1-11.9s-3.6,0-5.4,0v6c33.5,3.5,50.7,38.9,31.8,67.4s-7.2,7.2-10.8,11.7c-2.7.9-4.8,2.3-7,3-4.4,1.4-8.2,3.3-13.1,3.4l-.9,5.6c6.6,1.2,10.6-1.6,16-4,8.1-3.6,8.4-4.6,14-10ZM743.3,383.9c48-4.9,47.9-73.2,0-79v79Z" fill="#140608"/><path d="M744.3,434.9c5.3-.2,11.1-1,16.2-2.3,61.2-15.1,89.9-92,50.3-141.6-17.1-21.4-38.5-34.5-66.5-36.1l.9-5.6,135.1-.9c9.5,14,18.9,29.3,24.8,45.2,15.4,42.1,11,88.1-10.2,127.3-2,3.7-11.7,20.1-14,22-.9.8-1.6,1.2-2.9,1.1h-128.1c-6.3-.8-5.8-3.4-5.5-9.1Z" fill="#9f9f9a"/><path d="M743.3,261.4c0-.5,1.1-2.4,1.7-2.5,58.1,3.8,96,63.5,73.8,118-12.2,30-41.5,52.7-74.3,53.9l-1.1-33.8c53.3-3.2,67.8-76.7,19.3-99.9-6.6-3.1-13.4-3.1-19.4-6.6,1-8.8-1.4-20.6,0-29Z" fill="#b43c6c"/><path d="M743.3,383.9v-79c47.9,5.8,48,74.1,0,79Z" fill="#9f9f9a"/><path d="M764.3,380.9c3.6-4.5,7.5-6.7,10.8-11.7,18.9-28.5,1.7-63.9-31.8-67.4v-6c1.7,0,3.6-.2,5.4,0,5.2.7,20.1,8.2,24.1,11.9,13.5,12.5,20.2,35.1,13.7,52.6-1,2.6-6.8,12.9-8.7,15.3s-3.8,2.5-4.4,3.1c-3.2-1-5.3,2.3-7.7,2.8s-1.3-.8-1.3-.8Z" fill="#9f9f9a"/><path d="M759.3,388.9c-5.4,2.4-9.4,5.2-16,4l.9-5.6c4.9,0,8.7-2,13.1-3.4l2,5Z" fill="#9f9f9a"/><path d="M773.3,378.9c-5.6,5.4-5.9,6.4-14,10l-2-5c2.2-.7,4.3-2.1,7-3s.7.9,1.3.8c2.4-.4,4.4-3.8,7.7-2.8Z" fill="#f1eed8"/><path d="M710.3,442.9c4.6-4.5,2.8-8.8,3.1-13.4,3-39.8,1-84.1.9-124.1,0-18.5,1.2-37.2-2.3-55.3-2.1-3.8-17.9-1.8-22.3-1.2s-3.2.7-1.5,2c5.9,0,13.9-2.3,17,4-2.4-1-4.7-2.2-7.5-2h-301.1c-3.5-.3-5.7,1.6-8.5,3,2.5-6.9,8.9-4.3,14.5-5s1.6.3,1.5-2h-20.5c-.3,0-3,2.9-3.3,3.7-1.6,4.9,2.1,3.9,1.8,5.7s-2.9,3.5-3,6.1c-.7,11.5,2.1,25.1,0,36.9l1,137.1c2.5,3.5,11.4,4.5,15.5,4.5s4,.8,3.5-1.5c-1.7-2.3-3.4-.5-5.9-1-3.6-.8-3.4-2.8-4.1-3.5s-1.7,0-2.5-1-2.4-7.6-2.6-9.4v-167.1c.1-1,2.3-3,3.1-3.5-.8,2.1-1,4.2-1,6.5-2.3,54.8,1.9,111.2,0,166.1l3,8.5,314.4-1.1,2.9-3.1.8-170.3c0-2.7-.9-5.1-2-7.5,1.8.7,4.3-.7,4.1,3.5l-.8,174.3c-1.9,5.8-9.3,6.9-14.7,7.3-50.1,3.9-105.4-3-156.1,0h-95s-3.5,2.5-3.5,2.5l271,.5c-.3.2-.4,1.4-1.7,1.8l-325.1-.6c-4-2.4-6.4-5.9-6.3-10.7l.5-179.6c1.2-3.1,2.3-6.2,5.8-7.1l320.3-.8c7.1-.8,10.7,4.6,12.5,10.5v176.1c-.5,6.6-.6,7.1-6,10.5ZM638.3,248.9h-3v1h3v-1ZM643.3,248.9h-3v2h3v-2ZM410.3,442.9h17c.3-2,.2-1.6-1.2-2.3-3.1-1.3-19.7-1.2-15.8,2.3ZM437.3,442.9l-1.7-2.9-5.3.9c-.8,3.7,4.9,1.4,7,2Z" fill="#c45880"/><path d="M705.3,254.9c1.1,2.3,2,4.8,2,7.5l-.8,170.3-2.9,3.1-314.4,1.1-3-8.5c1.9-54.9-2.3-111.3,0-166.1,0-2.2.3-4.4,1-6.5.2-.1.7.1,1,0,2.7-1.5,4.9-3.4,8.5-3h301.1c2.7-.1,5,1.1,7.5,2Z" fill="#f1eed8"/><path d="M705.3,254.9c-3.1-6.3-11.1-4-17-4-1.7-1.3.1-1.8,1.5-2,4.4-.6,20.2-2.6,22.3,1.2,3.5,18.1,2.2,36.9,2.3,55.3,0,39.9,2,84.3-.9,124.1-.3,4.6,1.5,8.9-3.1,13.4l-271-.5,3.5-2.5h95c50.7-2.9,105.9,4,156.1,0s12.7-1.5,14.7-7.3l.8-174.3c.3-4.2-2.3-2.8-4.1-3.5Z" fill="#e34f89"/><path d="M389.3,436.9c.7.7.5,2.7,4.1,3.5s4.2-1.3,5.9,1c.5,2.4-2,1.5-3.5,1.5-4.2,0-13-1-15.5-4.5l-1-137.1c2.2-11.8-.6-25.4,0-36.9s2.7-3.9,3-6.1-3.4-.8-1.8-5.7,3-3.7,3.3-3.7h20.5c.1,2.3.4,1.8-1.5,2-5.6.7-12-1.9-14.5,5-.3.1-.8-.1-1,0-.7.5-2.9,2.5-3.1,3.5v167.1c.2,1.9,1.8,8.2,2.6,9.4s2.3.8,2.5,1Z" fill="#e34f89"/><path d="M410.3,442.9c-4-3.5,12.6-3.6,15.8-2.3s1.5.3,1.2,2.3h-17Z" fill="#e34f89"/><path d="M437.3,442.9c-2.1-.6-7.8,1.7-7-2l5.3-.9,1.7,2.9Z" fill="#e34f89"/><rect x="640.3" y="248.9" width="3" height="2" fill="#e34f89"/><rect x="635.3" y="248.9" width="3" height="1" fill="#e34f89"/><path d="M354.3,248.9c-.2,64.6.8,129.4,0,194-3.1,2.2-5.1,5.5-9.5,5-43.5-3-92.2,3.9-135.1,0-15.9-1.4-23.3-15.7-29.3-28.7-19.5-42.3-20.9-91.1-5.2-134.9s15-39.9,33.5-41.5c43.3-3.9,92.2,3,136.1,0,4.6-.3,6.9,2.9,9.5,6ZM209.3,247.9c-13.3.8-20.4,17.5-25.2,28.3-11.3,26-16.9,57.9-13.8,86.2,2.2,19.7,14,65.5,30.5,77.5s9,5.4,7.5,1.5-7.8-11.7-10-15.8c-24.3-43.1-29.1-88.7-11.7-136,5.6-15.2,13.4-28.7,22.7-41.7ZM349.3,250.9l-1.7-2.8h-134.2c-6.1,10.6-13.7,20.4-18.9,31.6-25.4,54.9-17.8,116.7,19.7,163.7h132c.8-1.8,5.2-5,1.5-5.5s-8.8-.4-12.9-1.1c-64.9-11.3-98.8-80-67.8-137.5s48.6-48.5,82.2-48.3ZM349.3,254.9c-37.2-.8-73,24.3-85,59.5-20.4,59.7,23.5,118.4,85,120.5v-36.5c-2.2-2.6-6-1.1-9.3-1.7-15.3-3.1-30.5-14.8-37.3-28.7-17.3-35.5,7.7-75.3,46.5-76v-37ZM302.3,335.9c-2.1,14.1-1.2,21.5,6,34s23.9,23,41,24v-6c-14.4-.2-29.3-8.8-37-21-6.3-10-7.3-20.4-5-32s8.9-18.8,15.5-24,16.8-8.6,27-10l.4-5.1c-24.3-.1-44.4,15.7-48,40ZM345.3,305.9c-10.9.8-19.3,5.1-26.5,14-21.3,26.4-2,62.1,30,65l.5-80c-1.2-.4-2.5,1-3,1s-.7,0-1,0Z" fill="#140608"/><path d="M349.3,250.9c-33.6-.2-66.3,18.8-82.2,48.3-31,57.6,2.9,126.3,67.8,137.5,4.1.7,8.7.6,12.9,1.1s-.7,3.6-1.5,5.5h-132c-37.5-47-45.1-108.8-19.7-163.7,5.2-11.2,12.8-21,18.9-31.6h134.2s1.7,2.8,1.7,2.8Z" fill="#9f9f9a"/><path d="M349.3,254.9v37c-38.9.8-63.8,40.5-46.5,76,6.8,14,22,25.6,37.3,28.7,3.3.7,7.1-.9,9.3,1.7v36.5c-61.5-2.1-105.4-60.8-85-120.5,12-35.1,47.8-60.3,85-59.5Z" fill="#b43c6c"/><path d="M345.3,305.9l.5,76,.5-76c.5,0,1.8-1.4,3-1l-.5,80c-32-2.9-51.3-38.6-30-65s15.6-13.2,26.5-14Z" fill="#9f9f9a"/><path d="M302.3,335.9c3.6-24.3,23.7-40.1,48-40l-.4,5.1c-10.3,1.3-18.8,3.5-27,10s-13.9,15.8-15.5,24l-5,1Z" fill="#9f9f9a"/><path d="M312.3,366.9c7.7,12.2,22.5,20.8,37,21v6c-17.1-1-32.4-9.1-41-24l4-3Z" fill="#9f9f9a"/><path d="M307.3,334.9c-2.3,11.6-1.3,22,5,32l-4,3c-7.2-12.5-8.1-19.9-6-34l5-1Z" fill="#f1eed8"/><path d="M346.3,305.9l-.5,76-.5-76c.3,0,.7,0,1,0Z" fill="#f1eed8"/><path d="M400.9,369v-.3c2.2-2.2,3.5-5.2,3.5-8.3v-31.5c0-3.2-1.3-6.2-3.5-8.4v-.3h18.1c7.1,0,19.5,2.4,19.5,11.6s-5.7,9.2-10.9,10.5c4.6,1.3,9.8,4.2,9.8,9.6v8.1c-.1,3.3,1.1,6.5,3.5,8.8v.3h-9.1c-5,0-7-4.8-7-9.1s1.6-16.7-6.3-16.7h-1.6v17.2c0,3.2,1.3,6.1,3.5,8.3v.3h-19.5ZM416.9,341h2.7c4.8,0,6.2-5.6,6.2-9.5s-1.5-9.5-6.2-9.5h-2.7v18.9Z" fill="#c45880"/><path d="M442.4,351.5c-.4-6.3,2.7-12.3,8.1-15.7,5.3-3.4,12-3.5,17.6-.5,5.5,3.1,9,8.9,8.9,15.2v1.8c0,9.6-7.7,17.3-17.3,17.3s-17.3-7.7-17.3-17.3v-.8ZM459.7,367.5c5,0,5.4-13,5.4-16.1s-.4-16.1-5.4-16.1-5.4,13-5.4,16.1.4,16.1,5.4,16.1Z" fill="#c45880"/><path d="M494,340.2c2.5-4,6.8-6.5,11.5-6.9,4.4,0,8.2,3.2,9,7.6,2.5-4.3,7-7.2,12-7.6,6.4,0,9.4,5.8,9.4,11.6v15.3c0,3.2,1.2,6.2,3.5,8.3v.3h-18.8v-.3c2.2-2.2,3.5-5.2,3.5-8.3v-16c0-2-.7-5.5-3.4-5.5s-4.8,3.6-5.7,5.7v16.2c0,3,1.3,6,3.5,8v.3h-18.9v-.3c2.3-2.2,3.6-5.2,3.5-8.3v-16c0-2-.7-5.5-3.4-5.5s-4.8,3.6-5.7,5.7v16.2c0,3,1.3,5.9,3.5,8v.3h-18.8v-.3c2.2-2.2,3.5-5.2,3.5-8.3v-15.8c0-1.3-.3-6.7-2.3-6.7v-.6l14.2-4.2v7.1Z" fill="#c45880"/><path d="M548.6,336.6c2.3,0,4.6,1.1,5.7,3.1,1.2,2,1.2,4.5,0,6.4-1.2,2-3.4,3.3-5.7,3.2-3.4,0-6.2-2.8-6.2-6.2,0-7.6,7.1-9.9,13.6-9.9s14.6,3.2,14.6,11.5v13.4c0,1.4.2,7.8,2.6,7.8s.3,0,.4,0l.2.8c-2.9,1.8-6.2,2.8-9.6,3-2.7,0-4.9-1.9-5.3-4.6-2.3,2.6-5.6,4.1-9.1,4.3-2.2,0-4.3-.8-5.7-2.4-1.5-1.5-2.4-3.6-2.3-5.8,0-9.1,13-7,16.3-14.8.4-.9.7-1.9.8-2.9,0-3.9-1.5-8.3-6-8.3s-2.9.4-4.2,1.2ZM558.7,348.5c-1.3,3.9-5.3,6.9-5.3,11.1s1,4.8,3.3,4.8c.8,0,1.6-.5,2.1-1.1v-14.8Z" fill="#c45880"/><path d="M591,340.2c2.6-4,6.9-6.5,11.6-6.9,6.5,0,9.5,5.8,9.5,11.6v15.3c0,3.2,1.2,6.2,3.5,8.3v.3h-18.9v-.3c2.3-2.2,3.6-5.2,3.5-8.3v-16c0-2-.8-5.5-3.4-5.5s-4.8,3.6-5.7,5.7v16.2c0,3,1.3,5.9,3.5,8v.3h-18.8v-.3c2.2-2.2,3.5-5.2,3.5-8.3v-15.8c0-1.3-.3-6.7-2.3-6.7v-.6l14.2-4.2v7.1Z" fill="#c45880"/><path d="M618.1,358.7v-22.6h-2.9v-2.1c6.8-.4,12.5-5.3,14-11.8h.7v11.8h7.4v2.1h-7.2v21.4c0,2.3.6,7.4,3.8,7.4,1.1,0,2-.5,2.7-1.2l.5.6c-2.5,3.2-6.3,5.3-10.4,5.5-6,0-8.5-5.7-8.5-11Z" fill="#c45880"/><path d="M654.1,359.9c0,3.3,1.2,6.4,3.5,8.8v.3h-18.8v-.3c2.2-2.2,3.5-5.2,3.5-8.3,0-5.3,0-10.5,0-15.8s-.2-6.7-2.2-6.7v-.6l14.1-4.2v26.8ZM643.9,321c1.1-1.1,2.7-1.7,4.2-1.7,2.4,0,4.6,1.5,5.5,3.7.9,2.2.3,4.8-1.3,6.4s-4.3,2.2-6.4,1.2c-2.2-.9-3.6-3.1-3.6-5.5s.6-3.1,1.8-4.2Z" fill="#c45880"/><path d="M674.5,333.3c5.4,0,12.1,2.5,12.1,8.9,0,3.2-2.6,5.7-5.8,5.9-3.2,0-5.9-2.3-6.1-5.5,0-1.4.5-2.8,1.5-3.8,1-1,2.5-1.5,3.8-1.5-.8-1.3-2.1-2-3.6-1.9-5,0-6.1,7.6-6.1,11.3,0,6.4,2.5,14.7,10.3,14.7s5.3-1.8,6.2-4.5h.3c0,7-5.5,12.6-12.5,12.6-10.8,0-15.4-9.2-15.4-18.8s4.7-17.4,15.2-17.4Z" fill="#c45880"/></svg>