<?xml version="1.0" encoding="UTF-8"?><svg id="a" xmlns="http://www.w3.org/2000/svg" width="1088.6" height="641.9" viewBox="0 0 1088.6 641.9"><path d="M922.3,130.5l1,68h12s0,295.5,0,295.5c0,8.2-9,17.2-17.5,16.5H143.8c-10.2-.9-16.6-7.3-17.5-17.5V199s10.4-.7,10.4-.7l1.5-1.5,1.1-66.4h783ZM893,215.8c-5.5-6-16.2-9.7-24.1-10.4l-679.8.3c-16,2.2-23.4,13.6-30.3,26.7-24.9,47.6-26.7,107.8-6.2,157.3,6.9,16.7,16.9,38.7,37.3,40.7l683.7-.2c17.9-3.9,26.8-19.9,33.6-35.4,17.3-39,20.8-84.3,9.9-125.6-3.7-14.2-14.3-42.8-24.1-53.4Z" fill="#559d67"/><path d="M924.3,514.5c1.6,1.4-5.6,8.1-6,8.7-.7,1.1-.7,2.9-1.5,4.2-2.6,4-9.9,15.8-13.7,17.3l-737.3.8c-3.5,0-6.8-1.2-9-4l-18.5-27h786Z" fill="#457f52"/><path d="M893,215.8c9.8,10.6,20.3,39.2,24.1,53.4,10.9,41.3,7.5,86.6-9.9,125.6s-15.7,31.5-33.6,35.4l-683.7.2c-20.4-2.1-30.4-24-37.3-40.7-20.5-49.5-18.7-109.7,6.2-157.3,6.9-13.2,14.3-24.6,30.3-26.7l679.8-.3c8,.6,18.6,4.4,24.1,10.4ZM191.1,208.7c-17.8,2.3-24.8,15.7-31.6,30.4-23.2,49.5-22.9,110.4,1.2,159.5,7.5,15.3,15.9,29,35.1,28.9h673c19.7-.6,29.3-20.3,36-36.1,20.2-47.3,19.6-106.1-2.3-152.6-8.1-17.2-14.9-28.9-35.6-30.4l-675.8.3Z" fill="#070b07"/><path d="M191.1,208.7l675.8-.3c20.8,1.4,27.6,13.2,35.6,30.4,21.9,46.6,22.5,105.4,2.3,152.6-6.7,15.8-16.3,35.5-36,36H195.8c-19.2.2-27.6-13.5-35.1-28.8-24.1-49.1-24.4-110.1-1.2-159.5,6.9-14.6,13.9-28.1,31.6-30.4ZM336,418.1c1.5-1.6,2.3-4.9,2.4-7.1v-186.1c.3-4-2.3-6.6-5.1-8.9l-140.5-.6c-11.4,1.2-17.7,8.8-23,18-26.4,45.7-27.8,108.5-6.3,156.4,6.4,14.4,13.9,29.2,31.3,30.7,43.1,3.7,91.4-2.9,135.1,0,2,0,4.8-.9,6.1-2.4ZM368.8,218.5h324c.5,0,2.1,1.6,3.5,1v-3s-6.5-1.1-6.5-1.1h-320.1c-6.6,1.7-11.7,7.4-11.5,14.5v178.1c1.3,6.9,6,12.5,13.5,12.5l322.6-.5c3.6-1.9,7.5-4.5,8-9,.5-56.3-.9-112.8,0-169.1,0-3.4,1.2-6.4,1.1-10s-1.5-11.8-5.1-11c.4,3.7,1.8,7.2,2,10.9,3.2,57-2.5,116.8,0,174.1,0,4.8-2.3,8.3-6.3,10.7h-326.5l-5.6-6.4-.7-182.4c-.4-3.1,5-8.9,7.5-9.5ZM727.5,420.2l140.3.2c15.4-1.1,23-14.5,29-27,23-48,22.5-107.7-2-155s-12.7-21.7-26-23l-140.5.6c-8.5,3.9-6,30.5-6.1,39,0,10.8.8,22.1.8,33,0,39.6-1.6,80.1-.9,120,0,2.9,3.1,11,5.3,12.3ZM485.3,225.5c-.7,0-1.3,0-2,0l-.5-1-1.5,1c-3,0-6,0-9,0-2.2-1.7-8-1.7-10,0-.7,0-1.3,0-2,0-5-1.7-12.9-1.7-18,0-1.7,0-3.3,0-5,0h-50c-7.1.2-14.8-1.5-17.1,7.4v169.1c.5,3.7,3,8.4,7.1,8.5,100.8,2.4,202.5.3,303.6,1.1,1.6.6,2.6-.7,3.4-1.1,3.8-1.5,7.7-3.8,7-8.5v-169.1c-1-9.9-12.8-7.3-20-7.5l-.5-2h-1.5s0,2,0,2c-2,0-4,0-6,0l-.5-2-4.5,2c-15-.2-30,.1-45,0-1.3-1.7-5.7-1.7-7,0h-3c-.7-1.6-4.3-1.6-5,0-1.3,0-2.7,0-4,0-.7-1.6-4.3-1.6-5,0-1,0-2,0-3,0-.1-1.5-2.9-1.5-3,0-3.7,0-7.3,0-11,0-.3-1.5-3.6-1.6-4,0-5.3,0-10.7,0-16,0l-.5-1-1.5,1c-2,0-4,0-6,0-.1-1.5-2.9-1.5-3,0-1.7,0-3.3,0-5,0l-.5-1-.5,1c-4,0-8,0-12,0l-.6-2h-3.4s0,2,0,2c-3.3,0-6.7,0-10,0l-.5-1-.5,1h-20v-2s-2.5,0-2.5,0l-.5,2Z" fill="#559d67"/><path d="M387.3,225.5c16.6-.5,33.4,0,50,0s3.3,0,5,0c6,0,12,0,18,0s1.3,0,2,0c3.3,0,6.7,0,10,0s6,0,9,0,1.3,0,2,0,1.3,0,2,0c1,0,2,0,3,0h20c.3,0,.7,0,1,0,3.3,0,6.7,0,10,0s2.7,0,4,0c4,0,8,0,12,0s.7,0,1,0c1.7,0,3.3,0,5,0s2,0,3,0c2,0,4,0,6,0s1.3,0,2,0c5.3,0,10.7,0,16,0s2.7,0,4,0c3.7,0,7.3,0,11,0s2,0,3,0,2,0,3,0c1.7,0,3.3,0,5,0s2.7,0,4,0h15c15,.1,30-.2,45,0,1.7,0,3.3,0,5,0s4,0,6,0,1.3,0,2,0c7.3.2,19.1-2.4,20,7.5v169.1c.6,4.7-3.2,7-7,8.5h-307c-4.1,0-6.6-4.8-7-8.5v-169.1c2.2-8.9,9.9-7.2,17-7.4Z" fill="#f1eeda"/><path d="M368.8,218.5c-2.6.6-7.9,6.3-7.5,9.5l.7,182.4,5.6,6.4h326.5c4-2.4,6.4-5.9,6.3-10.7-2.5-57.3,3.2-117.1,0-174.1-.2-3.7-1.6-7.3-2-10.9,3.6-.9,5,8,5.1,11s-1.1,6.5-1.1,10c-.8,56.3.6,112.7,0,169.1-.5,4.5-4.4,7.1-8,9l-322.6.5c-7.5,0-12.2-5.6-13.5-12.5v-178.1c-.2-7.1,4.9-12.8,11.5-14.5h320.1s6.4,1.1,6.4,1.1v3c-1.4.6-3-1-3.5-1h-324Z" fill="#070b07"/><path d="M684.3,410.5c-.8.3-1.8,1.6-3.4,1.1-101.1-.8-202.8,1.3-303.6-1.1h307Z" fill="#457f52"/><path d="M437.3,225.5c-16.6,0-33.4-.5-50,0h50Z" fill="#457f52"/><path d="M460.3,225.5c-6,0-12,0-18,0,5.1-1.7,13-1.7,18,0Z" fill="#457f52"/><path d="M472.3,225.5c-3.3,0-6.7,0-10,0,2-1.7,7.8-1.7,10,0Z" fill="#457f52"/><path d="M519.3,225.5v-2s3.4,0,3.4,0l.6,2c-1.3,0-2.7,0-4,0Z" fill="#457f52"/><path d="M613.3,225.5h-7c1.3-1.7,5.7-1.7,7,0Z" fill="#457f52"/><path d="M658.3,225.5l4.5-2,.5,2c-1.7,0-3.3,0-5,0Z" fill="#457f52"/><path d="M485.3,225.5l.5-2h2.5s0,2,0,2c-1,0-2,0-3,0Z" fill="#457f52"/><path d="M594.3,225.5c-1.7,0-3.3,0-5,0,.7-1.6,4.3-1.6,5,0Z" fill="#457f52"/><path d="M603.3,225.5h-5c.7-1.6,4.3-1.6,5,0Z" fill="#457f52"/><path d="M669.3,225.5v-2s1.5,0,1.5,0l.5,2c-.7,0-1.3,0-2,0Z" fill="#457f52"/><path d="M572.3,225.5c-1.3,0-2.7,0-4,0,.4-1.6,3.7-1.5,4,0Z" fill="#457f52"/><path d="M586.3,225.5c-1,0-2,0-3,0,.1-1.5,2.9-1.5,3,0Z" fill="#457f52"/><path d="M544.3,225.5c-1,0-2,0-3,0,.1-1.5,2.9-1.5,3,0Z" fill="#457f52"/><path d="M483.3,225.5c-.7,0-1.3,0-2,0l1.5-1,.5,1Z" fill="#457f52"/><path d="M552.3,225.5c-.7,0-1.3,0-2,0l1.5-1,.5,1Z" fill="#457f52"/><path d="M536.3,225.5c-.3,0-.7,0-1,0l.5-1,.5,1Z" fill="#457f52"/><path d="M509.3,225.5c-.3,0-.7,0-1,0l.5-1,.5,1Z" fill="#457f52"/><path d="M193.3,220.5c-43.8,57.4-43.8,136.5-1,194.5-5,.9-10.8-5.4-13.8-9.2-27.8-35.2-29.5-99.9-16.4-141.1s14.2-41.7,31.3-44.2Z" fill="#457f52"/><path d="M336,418.1c-1.3,1.5-4.1,2.5-6.1,2.4-43.7-2.9-92,3.7-135.1,0-17.4-1.5-24.9-16.3-31.3-30.7-21.5-47.8-20-110.7,6.3-156.4,5.3-9.2,11.6-16.8,23-18l140.5.6c2.8,2.3,5.4,5,5.1,8.9v186.1c0,2.2-.9,5.5-2.4,7.1ZM193.3,220.5c-17.1,2.5-26.6,29.5-31.3,44.2-13.1,41.2-11.3,105.8,16.4,141.1,3,3.8,8.9,10.1,13.8,9.2-42.8-58-42.7-137.1,1-194.5ZM333.3,221.5l-5.5-1.1-130.3.3c-24.3,33.1-38.2,73.6-33.1,115.2,2.6,20.8,10.4,43.2,20.7,61.3,3.7,6.4,9.9,18.9,17.6,19.4,39.7-2,81.7,2.5,121.1,0,1.9-.1,6.4-.2,7.5-1.7s1.3-3.5-.7-4.2c-5.2-1.7-13.7-1.5-19.9-3.1-98.6-23.8-94.8-169.4,15.1-184.1s10.2.8,7.5-2ZM333.3,226.5c-64.2,2.3-108.2,64.3-82.9,125.4,13.8,33.3,47.2,54.4,82.9,55.6v-36.5c-1.9-2.5-5.4-1.1-8.2-1.8-63.4-14.1-55.3-101.9,8.2-104.7v-38ZM334.3,268.5c-41.8-1.4-64.5,48.5-38,80.5,7.6,9.1,23.5,17.4,35.5,17.6,3,0,1-4,1.5-6-56.3-3.5-56.5-83.3,0-86.4l.9-5.6ZM329.3,278.5c-26,2.3-42.7,29.5-31.9,54.4s19.6,22.4,35.3,24.7l.5-80c-1.2-.4-2.5,1-3,1s-.7,0-1,0Z" fill="#070b07"/><path d="M333.3,221.5c2.7,2.8-6.7,1.9-7.5,2-110,14.7-113.7,160.3-15.1,184.1,6.2,1.5,14.8,1.4,19.9,3.1s1.9,2.6.7,4.2-5.6,1.6-7.5,1.7c-39.4,2.5-81.4-2-121.1,0-7.7-.5-14-12.9-17.6-19.4-10.3-18.1-18.1-40.5-20.7-61.3-5.1-41.6,8.8-82,33.1-115.2l130.3-.3,5.5,1.1Z" fill="#a0a09d"/><path d="M333.3,226.5v38c-63.6,2.8-71.6,90.7-8.2,104.7,2.9.6,6.3-.7,8.2,1.8v36.5c-35.7-1.2-69-22.3-82.9-55.6-25.4-61.1,18.6-123,82.9-125.4Z" fill="#60605d"/><path d="M329.3,278.5l.5,76,.5-76c.5,0,1.8-1.4,3-1l-.5,80c-15.7-2.3-28.8-9.7-35.3-24.7-10.8-24.8,5.9-52.1,31.9-54.4Z" fill="#a0a09d"/><path d="M334.3,268.5l-.9,5.6c-56.5,3.1-56.4,82.9,0,86.4-.5,2,1.5,6.1-1.5,6-11.9-.1-27.9-8.4-35.5-17.6-26.6-32-3.8-81.9,38-80.5Z" fill="#a0a09d"/><path d="M329.3,278.5c.3,0,.7,0,1,0l-.5,76" fill="#a0a09d"/><path d="M869.3,415.4l13.2-21.3c16.2-30.4,23-64.7,17.7-99-4.1-26.8-15.6-52.7-31.9-74.1,13.3,0,21.8,19.6,26.5,30.5,18,42.1,18.4,88.6,1,131-5,12.3-12.5,29.5-26.5,33Z" fill="#457f52"/><path d="M727.5,420.2c-2.2-1.3-5.2-9.4-5.3-12.3-.7-39.9.9-80.4.9-120,0-10.9-.9-22.1-.8-33,0-8.5-2.4-35.2,6.1-39l140.5-.6c13.3,1.4,20.4,12.2,26,23,24.4,47.3,25,107,2,155-6,12.5-13.6,25.9-29,27l-140.3-.2ZM728.3,407.5c-.8,7.6.5,8.3,7.5,9h126c1.3.2,2-.2,2.9-1,2.3-1.9,12-18.3,14-22,31-57,24-121.2-14.5-172.5l-135.1.9-.9,5.6c12.8.5,25.8,4.5,37,10.5,41.6,22.1,59.7,75.2,39.1,117.2-14.2,29.1-43.4,50.5-76.2,52.3ZM869.3,415.4c13.9-3.6,21.4-20.8,26.5-33,17.4-42.3,17-88.9-1-131s-13.2-30.6-26.5-30.5c16.3,21.4,27.7,47.4,31.9,74.1,5.3,34.3-1.5,68.6-17.7,99l-13.2,21.3ZM727.3,403.5c36.6-1,68.7-28.1,78.7-62.8,15.3-53.4-23.3-104.9-77.2-110.2-2,0-1.6,30.9-1.4,33.9,64.6,7.2,64.9,98.6,0,105.1-.8,11.5,2.1,22.5,0,34ZM763.7,290.1c-1.2-1.8-1.3-3.7-2.8-5.7-6.4-8.5-22.9-16.3-33.5-16v6c29.7,2.4,48.6,33.9,35.5,61s-19.7,23.2-34.5,24.5l-.9,5.6c34.4-1.4,56.7-39.7,40.2-70.7-1.3-2.4-3-3.4-3.8-4.7ZM727.3,356.5c48-4.8,48.1-73.6,0-79v79Z" fill="#070b07"/><path d="M728.3,407.5c32.8-1.9,62-23.3,76.2-52.3,20.5-42,2.4-95.1-39.1-117.2-11.2-6-24.2-10-37-10.5l.9-5.6,135.1-.9c38.6,51.3,45.5,115.5,14.5,172.5-2,3.7-11.7,20.1-14,22s-1.6,1.2-2.9,1.1h-126c-7-.8-8.3-1.5-7.5-9.1Z" fill="#a0a09d"/><path d="M727.3,403.5c2.1-11.4-.7-22.5,0-34,64.9-6.5,64.6-98,0-105.1-.2-3-.6-34,1.4-33.9,53.9,5.3,92.5,56.9,77.2,110.2-10,34.7-42.1,61.8-78.7,62.8Z" fill="#60605d"/><path d="M727.3,356.5v-79c48.1,5.4,48,74.2,0,79Z" fill="#a0a09d"/><path d="M763.7,290.1c.8,1.2,2.6,2.3,3.8,4.7,16.5,30.9-5.8,69.2-40.2,70.7l.9-5.6c14.9-1.2,28.1-11.2,34.5-24.5,13.1-27.2-5.7-58.7-35.4-61v-6c10.6-.4,27.1,7.5,33.5,16,1.5,2,1.6,3.9,2.8,5.7Z" fill="#a0a09d"/><path d="M510,83.8c.7.5.4,2.3,2.8,2.7s35.9.5,37.5-.5,1.1-2.4,2-3l379.7.3c4.4,1.6,6.2,4.9,8,9-.9,24.6,2.1,51.4.3,75.8-.6,8-3.2,16.1-5.1,23.9,0,1,6.1,1.4,5.1,5v296c-.7,2.7-.9,5.6-1.8,8.3-1.9,6.2-20.2,35-24.9,41.1-4.1,5.4-8.8,8.2-15.9,8.1H165.8c-5.8,0-10.8-2.1-14.5-6.5-8.6-17.3-25.5-31.2-30-50V196.9c-1.1-4.3,4.9-3,5-4-.6-8.2-4.4-15.8-5.1-23.9-1.5-19-1.8-55.3,0-74.1s2.3-9.7,7.3-11.7l376.3-.8c2,0,3.5.2,5.2,1.4ZM133.3,192.5v-64.5c0-.2,1.5-1.8,2-2l789.5-.5c2.8.4,3.2,3.1,3.5,5.5,1.4,12.2.4,32.3,0,45-.1,5.1-1.9,10.5-1.1,15.9l3,.6c.9-8.2,4.4-16.3,5.1-24.5,1.6-20,.4-46.5-.7-66.9s2.3-10.5-4.3-13.2h-374c-.9.6-1.1,2.5-2,3-3.9,2.5-38.2-.9-45.5.5l-5-4.1H132.9c-3.7.7-6.5,3.8-6.6,7.6.9,32.5-3.2,63.4,5,95.1s-1,2.9,2,2.4ZM922.3,130.5H139.3l-1.1,66.4-1.5,1.5-10.4.7v294c.9,10.2,7.3,16.6,17.5,17.5h774.1c8.5.7,17.5-8.3,17.5-16.5V198.5h-12s-1-68-1-68ZM924.3,514.5H138.3l18.5,27c2.2,2.8,5.4,4,9,4l737.3-.8c3.8-1.5,11.1-13.3,13.7-17.3s.8-3.1,1.5-4.2,7.6-7.3,6-8.7Z" fill="#070b07"/><path d="M133.3,192.5c-3,.5-1.6-.8-2-2.4-8.2-31.7-4.1-62.6-5-95.1.1-3.8,2.8-6.9,6.6-7.4h371c0-.1,5,3.9,5,3.9,7.3-1.3,41.5,2,45.5-.5s1.1-2.4,2-3h374c6.7,2.6,4.1,8.4,4.3,13.2,1,20.3,2.2,46.8.7,66.9-.6,8.2-4.2,16.3-5.1,24.5l-3-.6c-.8-5.4,1-10.8,1.1-15.9.3-12.8,1.3-32.8,0-45-.3-2.4-.8-5.1-3.5-5.5l-789.5.5c-.5.2-2,1.8-2,2v64.5Z" fill="#457f52"/><path d="M396.1,327.6c-.1,2.4.2,4.9.9,7.3.8,2.4,2.5,3.9,5.1,4.6,2,.5,4.2.6,6.4.3,2.3-.2,4.2-1.1,5.7-2.6,1.9-1.9,3.8-2.5,5.7-1.8,2,.8,3.4,2.1,4.2,4.2.8,2.1.4,4.2-1.2,6.3-3,3.2-6.9,5.2-11.8,6-4.9.8-9.3.6-13.5-.8-4.8-1.8-8.4-4.7-10.8-8.8-2.4-4-3.5-8.6-3.4-13.6,0-4.8,1.1-9.3,3-13.5,2-4.2,5.2-7.4,9.6-9.7,4.3-2.1,9-3.2,14.1-3.3,5.1-.2,9.7.9,14,3.3,2.2,1.5,3.2,3.3,3,5.5s-1.2,3.9-3,5.2c-1.8,1.3-3.9,1.3-6.3,0-2.2-1.2-4.8-1.7-7.8-1.7s-5.6.6-7.8,1.7c-4.4,2.4-6.5,6.2-6.5,11.3Z" fill="#559d67"/><path d="M475.9,298.8c2.2,6,2.1,12,0,18-2.3,5.7-5.9,10.5-11,14.2-5,3.7-10.8,4.7-17.2,2.8-6.5-2.5-10.8-6.9-13-13.2-2.2-6.3-2.7-12.6-1.4-19.1,1.3-5.8,4.3-10.2,8.9-13.2s9.9-4.4,15.7-4c2.3.2,4.1,1.2,5.3,3,6.4,1.6,10.6,5.3,12.8,11.4ZM464.8,308.9c.3-2.2.2-4.3-.4-6.2-.6-1.9-1.9-3-3.9-3.2-2.3-.2-3.9-1.1-4.9-2.7-2.4,0-4.6.6-6.6,1.7-2,1.1-3.2,2.9-3.8,5.3-.6,2.7-.6,5.9-.2,9.6.5,3.7,1.9,6.3,4.4,7.9,3,1.4,5.8,1.2,8.3-.5,2.6-1.7,4.4-4,5.6-6.7.6-1.2,1-3,1.3-5.2Z" fill="#559d67"/><path d="M540.7,327.6c-1.3,1.8-3,2.8-5.2,3-2.2.3-4.1-.7-5.6-2.9-4-6.4-7.5-13-10.6-19.9-1.7,4.5-3.5,8.9-5.2,13.3-1.2,2.6-2.9,4.1-5.2,4.4-2.3.3-4.4-.7-6.2-2.9-2.5-3.4-5.1-6.7-7.7-10.1.1,6,.4,12,.9,18.1.1.4.2.9.2,1.3,0,.5,0,1,0,1.5,0,.3,0,.5,0,.8,0,1.7-.6,3.2-1.9,4.4s-2.7,1.8-4.4,1.8-3.2-.6-4.3-1.8-1.7-2.7-1.9-4.4c-1.3-12.9-1.6-25.9-1-38.9.1-1.7.7-3.1,1.7-4.1,1-1,2.2-1.6,3.5-1.8,2.3-.6,4.2,0,5.8,1.6,4.2,5.3,8.4,10.6,12.5,15.9l7-17.9c1.3-2.8,3.4-4.3,6.1-4.4,2.7,0,4.7,1.4,5.9,4.4,3.8,11.4,8.9,22.2,15.3,32.3,1.3,2.4,1.3,4.4,0,6.1Z" fill="#559d67"/><path d="M567.2,294.7c-.2.7-.4,1.5-.5,2.2-.2.7-.4,1.5-.5,2.2,1.3.2,2.5.5,3.8.7,1.3.2,2.5.5,3.8.8,1.7.4,2.9,1.4,3.7,2.9.8,1.5,1,3.1.6,4.7-.5,1.7-1.5,3-2.9,3.7s-3,.9-4.7.6c-1.2-.2-2.4-.5-3.7-.7-1.2-.2-2.4-.5-3.7-.7-.7,3-1.5,6-2.2,9,3,.4,6,.9,8.9,1.5,2.6.7,4,2.1,4.4,4.2.3,2.1-.2,4-1.6,5.7-1.4,1.7-3.4,2.4-6.1,2-4.4-.9-8.8-1.6-13.3-1.9-2.1-.2-3.7-1-4.9-2.5s-1.5-3.2-1.1-5.4c1.5-5.9,2.9-11.9,4.4-17.8,1.4-6,2.9-11.9,4.4-17.8-.1-1.7.3-3.2,1.3-4.5,1-1.3,2.6-2,4.7-1.9,5.9.2,11.6,1.2,17.2,2.9,2.5.9,3.9,2.5,4.2,4.6s-.2,4.1-1.6,5.8-3.4,2.2-6,1.6c-2.9-.9-5.7-1.5-8.6-1.9Z" fill="#559d67"/><path d="M633.1,320.4c-.4,4.1-2,7.9-4.9,11.4-2.9,3.1-6.2,5.5-10,7.1-3.8,1.6-7.7,2.9-11.8,3.8-1.1.3-2,.3-2.9,0-2.4-.2-4.1-1.6-5.1-4.4-3.5-12.3-6.7-24.8-9.5-37.3-.4-2.2,0-4,1.3-5.4,1.3-1.4,2.8-2.1,4.6-2.3,7.5-2.8,15.1-3.6,22.8-2.2,8.4,2.2,13.4,7.7,14.8,16.5.8,4.3,1,8.5.6,12.7ZM621,318.1c.2-2.3,0-4.7-.5-7.1-.4-2.4-1.1-4.3-2.1-5.7-1.1-1.4-2.9-2.1-5.4-2.2-3.6-.2-7.1.1-10.7.9,2,8.5,4.1,16.9,6.4,25.4,3.6-.9,6.7-2.5,9.3-4.9,1.7-1.9,2.7-4,2.9-6.3Z" fill="#559d67"/><path d="M679,343.1c-.3,1.6-1.3,2.8-2.8,3.8-1.5.8-3,1-4.7.6-1.7-.4-2.9-1.3-3.8-2.9-3.4-6.9-6.3-13.9-8.7-21.2-1.4-.5-2.7-.9-4-1.5-.5-.2-1.1-.4-1.6-.6-3.9-1.5-7.7-3.1-11.4-4.9-1.5-.8-2.5-2.1-2.8-3.8-.4-1.7-.2-3.3.6-4.7,1-1.6,2.2-2.5,3.8-2.8,1.6-.3,3.1-.2,4.7.6,3.8,1.9,7.8,3.5,11.9,5,.2-.5.3-1.1.5-1.6.3-1,.5-1.9.8-2.7l3.2-9.3c1-2.5,2.6-3.9,4.9-4.2,2.2-.3,4.1.2,5.8,1.6,1.6,1.4,2.1,3.3,1.3,5.9-1.2,3.4-2.4,6.8-3.5,10.2-.3.9-.6,1.7-.9,2.6-.2.6-.4,1.3-.6,2-.3,1.1-.7,2.2-1.1,3.3,2.2,6.8,4.8,13.3,7.9,19.7.8,1.6.9,3.1.6,4.7Z" fill="#559d67"/></svg>