<?xml version="1.0" encoding="UTF-8"?>
<svg id="svg3705" xmlns="http://www.w3.org/2000/svg" version="1.1" viewBox="0 0 593.91 356.35">
  <!-- Generator: Adobe Illustrator 30.0.0, SVG Export Plug-In . SVG Version: 2.1.1 Build 123)  -->
  <defs>
    <style>
      .st0 {
        fill: #fcfc4f;
      }

      .st1 {
        fill: #214697;
      }

      .st2 {
        fill: none;
        stroke: #fcfc4f;
        stroke-width: 5px;
      }

      .st3 {
        fill-rule: evenodd;
      }
    </style>
  </defs>
  <g>
    <path id="Ticket" class="st1" d="M46.02,349.35s-13.52-75.28-13.52-80.1c0-8.29,19.75-11.14,25.01-21.43,15.32-23.28,1.71-52.74-20.37-60.27-10.09-3.08-18.91-1.11-22-16.13C10.3,144.83.18,96.09.09,91.73s3.71-4.98,3.71-4.98c0,0,336.45-58.24,498.89-86.45,7.84-1.36,13.78,7.25,14.29,19.13,3.29,10.26,10.21,18.31,17.26,26.66,7.16,9.23,8.8,20.72,8.54,32.06,3.71,9.86,2.1,22.14,9.7,29.54,2.55,10.69,1.68,21.22-4.54,31.14,1.66,11.02,1.93,22.02,2.15,33.55.86,15.36-1.99,31.29,2.57,46.19,6.27,10.6,7.14,22.84,10.5,34.27-2.89,8.37-3.66,13.41-15.2,15.73-78.01,14.74-234.52,41.51-234.52,41.51,0,0-263.12,46.25-265.62,46.25-.5,0-1.8-7-1.8-7h-.01Z"/>
    <path id="Border" class="st2" d="M517.47,22.7L56.81,103.2l37.73,219.1,464.54-81.44"/>
    <path id="Registered" class="st3" d="M582.41,245.9c-5.25,0-9.51,4.25-9.51,9.5h0c0,5.25,4.26,9.51,9.51,9.51,5.25,0,9.51-4.25,9.51-9.5,0-5.25-4.25-9.51-9.5-9.51h0ZM582.41,247.47c4.38,0,7.93,3.55,7.93,7.93h0c0,4.38-3.55,7.93-7.93,7.93h0c-4.38,0-7.93-3.55-7.93-7.93h0c0-4.38,3.55-7.93,7.93-7.93h0ZM578.25,250.44v10.23h1.65v-4.35h.97c.58,0,1.02.12,1.32.35.44.32,1.01,1.11,1.72,2.38l.91,1.61h2.02l-1.25-2c-.6-.95-1.1-1.62-1.51-2.03-.22-.21-.51-.39-.87-.54.88-.07,1.59-.38,2.12-.93.53-.55.8-1.21.8-1.95,0-.53-.16-1.03-.48-1.5-.32-.47-.75-.8-1.29-.99-.54-.19-1.41-.28-2.61-.28h-3.52,0ZM579.9,251.82h1.88c.81,0,1.36.06,1.66.18.3.12.53.3.7.54.17.24.25.51.25.81,0,.47-.17.85-.52,1.13-.35.29-1,.43-1.96.43h-2v-3.09h0Z"/>
  </g>
  <g>
    <path class="st0" d="M120.57,167.51l14.36-2.52-7.06,78.8-14.41,2.53-32.31-71.89,14.41-2.53,20.49,45.63,4.52-50.03Z"/>
    <path class="st0" d="M143,163.57l14.41-2.53,13.22,75.24-14.41,2.53-13.22-75.24Z"/>
    <path class="st0" d="M201.08,153.37l12.97,9.14,9.33,53.14-9.09,12.96-35.6,6.25-13.22-75.24,35.6-6.25ZM200.28,168.37l-17.86,3.14,8.15,46.41,17.86-3.14-8.15-46.41Z"/>
    <path class="st0" d="M258.42,143.3l2.53,14.41-23.83,4.19,2.82,16.03,19.04-3.34,2.52,14.36-19.04,3.34,2.82,16.03,23.83-4.19,2.53,14.41-38.24,6.72-13.22-75.24,38.24-6.72Z"/>
    <path class="st0" d="M302.09,135.63l12.97,9.14,9.33,53.14-9.09,12.96-24.58,4.32-12.96-9.09-9.33-53.14,9.08-13.02,24.58-4.32ZM301.29,150.63l-17.86,3.14,8.15,46.41,17.86-3.14-8.15-46.41Z"/>
    <path class="st0" d="M356.79,126.02l12.97,9.14,2.56,14.58-14.36,2.52-1.97-11.24-17.86,3.14,8.15,46.41,17.86-3.14-1.97-11.24,14.36-2.52,2.57,14.63-9.09,12.96-24.58,4.32-12.96-9.09-9.33-53.14,9.08-13.02,24.58-4.32Z"/>
    <path class="st0" d="M400.98,180.96l23.77-4.18,2.53,14.41-38.19,6.71-13.22-75.24,14.41-2.53,10.69,60.83Z"/>
    <path class="st0" d="M454.35,108.88l14.41-2.53,11.28,64.22-9.09,12.96-24.58,4.32-12.96-9.09-11.28-64.22,14.41-2.53,10.69,60.83,17.8-3.13-10.69-60.83Z"/>
    <path class="st0" d="M512.43,98.68l12.97,9.14,4,22.75-3.24,4.62,4.6,3.13,3.98,22.64-9.09,12.96-35.6,6.25-13.22-75.24,35.6-6.25ZM496.59,132.84l17.8-3.13-2.82-16.03-17.8,3.13,2.82,16.03ZM516.97,144.06l-17.86,3.14,2.82,16.03,17.86-3.14-2.82-16.03Z"/>
  </g>
</svg>